{
.appVersion = "99";
copyright = "Copyright (c) 2010-2011 by tyPoland Lukasz Dziedzic with Reserved Font Name \"Lato\". Licensed under the SIL Open Font License, Version 1.1.";
date = "2011-09-12 07:00:00 +0000";
designer = "Paul Go";
designerURL = "http://www.github.com/paul-go";
familyName = "Lato Code";
featurePrefixes = (
{
automatic = 1;
code = "languagesystem DFLT dflt;\012";
name = Languagesystems;
}
);
features = (
{
automatic = 1;
code = "feature frac;\012feature ordn;\012";
name = aalt;
},
{
automatic = 1;
code = "sub one slash four by onequarter;\012sub one slash two by onehalf;\012sub three slash four by threequarters;\012";
name = frac;
},
{
automatic = 1;
code = "sub [zero one two three four five six seven eight nine] [A a]' by ordfeminine;\012sub [zero one two three four five six seven eight nine] [O o]' by ordmasculine;\012";
name = ordn;
},
{
automatic = 1;
code = "sub f i by fi;\012sub f l by fl;\012";
name = liga;
}
);
fontMaster = (
{
ascender = 1610;
capHeight = 1457;
custom = Black;
customParameters = (
{
name = "Prep Table Assembly";

glyphs = (
{
glyphname = A;
layers = (
{
layerId = "10974C74-6ED2-4F66-BD25-910E45086E66";
paths = (
{
closed = 1;
nodes = (
"950 1457 LINE",
"616 1457 LINE",
"-80 0 LINE",
"176 0 LINE SMOOTH",
"228 0 OFFCURVE",
"275.333 33.667 OFFCURVE",
"290 71 CURVE SMOOTH",
"398 333 LINE",
"893 333 LINE",
"938 71 LINE SMOOTH",
"944.667 28.333 OFFCURVE",
"980 0 OFFCURVE",
"1036 0 CURVE SMOOTH",
"1288 0 LINE"
);
},
{
closed = 1;
nodes = (
"660 969 LINE SMOOTH",
"676.929 1009.629 OFFCURVE",
"731.128 1126.385 OFFCURVE",
"747 1174 CURVE",
"751.667 1144.667 OFFCURVE",
"757.5 1112.167 OFFCURVE",
"764.5 1076.5 CURVE SMOOTH",
"771.5 1040.833 OFFCURVE",
"778 1005.667 OFFCURVE",
"784 971 CURVE SMOOTH",
"855 555 LINE",
"489 555 LINE"
);
}
);
userData = {
assembly = "NPUSHB[ ]\011/* 12 values pushed */
15 14 13 12 11 9 6 5 2 0 5 7 
CALL[ ]\011/* CallFunction */
MPPEM[ ]\011/* MeasurePixelPerEm */
PUSHB[ ]\011/* 1 value pushed */
94 
LT[ ]\011/* LessThan */
IF[ ]\011/* If */
NPUSHB[ ]\011/* 29 values pushed */
19 1 4 3 1 30 0 4 0 1 0 4 1 0 2 38 0 3 3 11 31 2 1 0 0 12 0 32 4 
ELSE[ ]\011/* Else */
MPPEM[ ]\011/* MeasurePixelPerEm */
PUSHB[ ]\011/* 1 value pushed */
232 
LT[ ]\011/* LessThan */
IF[ ]\011/* If */
NPUSHB[ ]\011/* 40 values pushed */
19 1 4 3 1 30 0 3 4 3 52 2 1 0 1 0 53 0 4 1 1 4 0 0 35 0 4 4 1 0 2 36 0 1 4 1 0 2 33 6 
ELSE[ ]\011/* Else */
NPUSHB[ ]\011/* 46 values pushed */
19 1 4 3 1 30 0 3 4 3 52 0 2 1 0 1 2 0 50 0 0 0 51 0 4 1 1 4 0 0 35 0 4 4 1 0 2 36 0 1 4 1 0 2 33 7 
EIF[ ]\011/* EndIf */
EIF[ ]\011/* EndIf */
PUSHB[ ]\011/* 1 value pushed */
56 
CALL[ ]\011/* CallFunction */";
};
width = 1326;
}
);
note = A;
unicode = 0041;
},
{
glyphname = Aogonek;
layers = (
{
layerId = "10974C74-6ED2-4F66-BD25-910E45086E66";
paths = (
{
closed = 1;
nodes = (
"1232 -171 OFFCURVE",
"1226.333 -172.5 OFFCURVE",
"1221 -175.5 CURVE SMOOTH",
"1215.667 -178.5 OFFCURVE",
"1204 -180 OFFCURVE",
"1186 -180 CURVE SMOOTH",
"1159.333 -180 OFFCURVE",
"1146 -160.667 OFFCURVE",
"1146 -134 CURVE SMOOTH",
"1146 -76.667 OFFCURVE",
"1190 -30.667 OFFCURVE",
"1246 0 CURVE",
"1288 0 LINE",
"950 1457 LINE",
"616 1457 LINE",
"-80 0 LINE",
"176 0 LINE SMOOTH",
"228 0 OFFCURVE",
"275.333 33.667 OFFCURVE",
"290 71 CURVE SMOOTH",
"398 333 LINE",
"893 333 LINE",
"938 71 LINE SMOOTH",
"944.667 28.333 OFFCURVE",
"980 0 OFFCURVE",
"1036 0 CURVE SMOOTH",
"1072 0 LINE",
"961.333 -64 OFFCURVE",
"916 -139.333 OFFCURVE",
"916 -214 CURVE SMOOTH",
"916 -290 OFFCURVE",
"976.667 -347 OFFCURVE",
"1102 -347 CURVE SMOOTH",
"1174 -347 OFFCURVE",
"1245.333 -325 OFFCURVE",
"1292 -297 CURVE",
"1262 -190 LINE",
"1260 -177.333 OFFCURVE",
"1252 -171 OFFCURVE",
"1238 -171 CURVE SMOOTH"
);
},
{
closed = 1;
nodes = (
"660 969 LINE",
"686.667 1025 OFFCURVE",
"716.667 1096.333 OFFCURVE",
"746 1175 CURVE",
"752.667 1136.333 OFFCURVE",
"759.333 1099.667 OFFCURVE",
"766 1065 CURVE SMOOTH",
"772.667 1030.333 OFFCURVE",
"778.667 999 OFFCURVE",
"784 971 CURVE SMOOTH",
"855 555 LINE",
"489 555 LINE"
);
}
);
userData = {
assembly = "NPUSHB[ ]\011/* 24 values pushed */
1 0 37 36 34 32 27 26 25 24 23 21 18 17 14 12 7 5 0 35 1 35 10 7 
CALL[ ]\011/* CallFunction */
MPPEM[ ]\011/* MeasurePixelPerEm */
PUSHB[ ]\011/* 1 value pushed */
53 
LT[ ]\011/* LessThan */
IF[ ]\011/* If */
NPUSHB[ ]\011/* 49 values pushed */
41 1 8 5 3 1 1 0 2 30 7 9 2 0 2 1 2 0 1 50 0 8 0 3 2 8 3 0 2 38 0 5 5 11 31 6 4 2 2 2 12 31 0 1 1 16 1 32 6 
ELSE[ ]\011/* Else */
MPPEM[ ]\011/* MeasurePixelPerEm */
PUSHB[ ]\011/* 1 value pushed */
54 
LT[ ]\011/* LessThan */
IF[ ]\011/* If */
NPUSHB[ ]\011/* 55 values pushed */
41 1 8 5 3 1 1 7 2 30 9 1 0 2 7 2 0 7 50 0 7 1 2 7 1 48 0 8 0 3 2 8 3 0 2 38 0 5 5 11 31 6 4 2 2 2 12 31 0 1 1 16 1 32 7 
ELSE[ ]\011/* Else */
MPPEM[ ]\011/* MeasurePixelPerEm */
PUSHB[ ]\011/* 1 value pushed */
94 
LT[ ]\011/* LessThan */
IF[ ]\011/* If */
NPUSHB[ ]\011/* 54 values pushed */
41 1 8 5 3 1 1 7 2 30 9 1 0 2 7 2 0 7 50 0 7 1 2 7 1 48 0 1 1 51 0 8 0 3 2 8 3 0 2 38 0 5 5 11 31 6 4 2 2 2 12 2 32 7 
ELSE[ ]\011/* Else */
MPPEM[ ]\011/* MeasurePixelPerEm */
PUSHB[ ]\011/* 1 value pushed */
232 
LT[ ]\011/* LessThan */
IF[ ]\011/* If */
NPUSHB[ ]\011/* 67 values pushed */
41 1 8 5 3 1 1 7 2 30 0 5 8 5 52 6 4 2 2 3 0 3 2 0 50 9 1 0 7 3 0 7 48 0 7 1 3 7 1 48 0 1 1 51 0 8 3 3 8 0 0 35 0 8 8 3 0 2 36 0 3 8 3 0 2 33 9 
ELSE[ ]\011/* Else */
NPUSHB[ ]\011/* 79 values pushed */
41 1 8 5 3 1 1 7 2 30 0 5 8 5 52 0 6 3 4 3 6 4 50 0 4 2 3 4 2 48 0 2 0 3 2 0 48 9 1 0 7 3 0 7 48 0 7 1 3 7 1 48 0 1 1 51 0 8 3 3 8 0 0 35 0 8 8 3 0 2 36 0 3 8 3 0 2 33 11 
EIF[ ]\011/* EndIf */
EIF[ ]\011/* EndIf */
EIF[ ]\011/* EndIf */
EIF[ ]\011/* EndIf */
PUSHB[ ]\011/* 1 value pushed */
56 
CALL[ ]\011/* CallFunction */";
};
width = 1326;
}
);
note = Aogonek;
unicode = 0104;
},
{
glyphname = AE;
layers = (
{
layerId = "10974C74-6ED2-4F66-BD25-910E45086E66";
paths = (
{
closed = 1;
nodes = (
"-102 0 LINE",
"152 0 LINE SMOOTH",
"206.667 0 OFFCURVE",
"255.333 32.333 OFFCURVE",
"274 71 CURVE SMOOTH",
"405 333 LINE",
"834 333 LINE",
"834 0 LINE",
"1592 0 LINE",
"1624 251 LINE",
"1142 251 LINE",
"1142 610 LINE",
"1538 610 LINE",
"1568 852 LINE",
"1142 852 LINE",
"1142 1206 LINE",
"1740 1206 LINE",
"1772 1457 LINE",
"716 1457 LINE"
);
},
{
closed = 1;
nodes = (
"748 1019 LINE",
"778.667 1069.667 OFFCURVE",
"806 1130 OFFCURVE",
"834 1198 CURVE",
"834 555 LINE",
"516 555 LINE"
);
}
);
userData = {
assembly = "NPUSHB[ ]\011/* 20 values pushed */
20 19 18 16 13 12 11 10 9 8 7 6 5 4 3 2 1 0 9 7 
CALL[ ]\011/* CallFunction */
MPPEM[ ]\011/* MeasurePixelPerEm */
PUSHB[ ]\011/* 1 value pushed */
94 
LT[ ]\011/* LessThan */
IF[ ]\011/* If */
NPUSHB[ ]\011/* 53 values pushed */
21 1 2 1 1 30 0 2 0 3 8 2 3 0 0 38 0 8 0 6 4 8 6 0 0 38 0 1 1 0 0 0 36 0 0 0 11 31 0 4 4 5 1 0 36 7 1 5 5 12 5 32 7 
ELSE[ ]\011/* Else */
MPPEM[ ]\011/* MeasurePixelPerEm */
PUSHB[ ]\011/* 1 value pushed */
232 
LT[ ]\011/* LessThan */
IF[ ]\011/* If */
NPUSHB[ ]\011/* 60 values pushed */
21 1 2 1 1 30 0 0 0 1 2 0 1 0 0 38 0 2 0 3 8 2 3 0 0 38 0 8 0 6 4 8 6 0 0 38 0 4 5 5 4 0 0 35 0 4 4 5 1 0 36 7 1 5 4 5 1 0 33 7 
ELSE[ ]\011/* Else */
NPUSHB[ ]\011/* 67 values pushed */
21 1 2 1 1 30 0 7 4 5 4 7 5 50 0 0 0 1 2 0 1 0 0 38 0 2 0 3 8 2 3 0 0 38 0 8 0 6 4 8 6 0 0 38 0 4 7 5 4 0 0 35 0 4 4 5 0 0 36 0 5 4 5 0 0 33 8 
EIF[ ]\011/* EndIf */
EIF[ ]\011/* EndIf */
PUSHB[ ]\011/* 1 value pushed */
56 
CALL[ ]\011/* CallFunction */";
};
width = 1716;
}
);
note = AE;
unicode = 00C6;
},
{
glyphname = B;
layers = (
{
layerId = "10974C74-6ED2-4F66-BD25-910E45086E66";
paths = (
{
closed = 1;
nodes = (
"588 0 LINE SMOOTH",
"764 0 OFFCURVE",
"904.667 53.333 OFFCURVE",
"1002 140 CURVE SMOOTH",
"1099.333 226.667 OFFCURVE",
"1152 346.333 OFFCURVE",
"1152 481 CURVE SMOOTH",
"1152 618.333 OFFCURVE",
"1078.333 708.333 OFFCURVE",
"921 751 CURVE",
"1021 785.667 OFFCURVE",
"1090.833 838.333 OFFCURVE",
"1135.5 901 CURVE SMOOTH",
"1180.167 963.667 OFFCURVE",
"1200 1039 OFFCURVE",
"1200 1119 CURVE SMOOTH",
"1200 1220.333 OFFCURVE",
"1166.167 1305.167 OFFCURVE",
"1089.5 1364.5 CURVE SMOOTH",
"1012.833 1423.833 OFFCURVE",
"893.333 1457 OFFCURVE",
"724 1457 CURVE SMOOTH",
"224 1457 LINE",
"44 0 LINE"
);
},
{
closed = 1;
nodes = (
"656 622 LINE SMOOTH",
"779.763 622 OFFCURVE",
"830 572.281 OFFCURVE",
"830 477 CURVE SMOOTH",
"830 337.557 OFFCURVE",
"766.53 245 OFFCURVE",
"614 245 CURVE SMOOTH",
"400 245 LINE",
"446 622 LINE"
);
},
{
closed = 1;
nodes = (
"518 1214 LINE",
"694 1214 LINE SMOOTH",
"812.667 1214 OFFCURVE",
"868 1174 OFFCURVE",
"868 1066 CURVE SMOOTH",
"868 898.206 OFFCURVE",
"780.716 838 OFFCURVE",
"628 838 CURVE SMOOTH",
"472 838 LINE"
);
}
);
userData = {
assembly = "NPUSHB[ ]\011/* 22 values pushed */
21 21 0 0 44 42 36 34 21 33 21 32 24 22 0 20 0 19 3 1 8 7 
CALL[ ]\011/* CallFunction */
MPPEM[ ]\011/* MeasurePixelPerEm */
PUSHB[ ]\011/* 1 value pushed */
94 
LT[ ]\011/* LessThan */
IF[ ]\011/* If */
NPUSHB[ ]\011/* 44 values pushed */
12 1 3 4 1 30 0 4 7 1 3 2 4 3 1 0 38 0 5 5 0 1 0 36 0 0 0 11 31 0 2 2 1 1 0 36 6 1 1 1 12 1 32 6 
ELSE[ ]\011/* Else */
NPUSHB[ ]\011/* 51 values pushed */
12 1 3 4 1 30 0 0 0 5 4 0 5 1 0 38 0 4 7 1 3 2 4 3 1 0 38 0 2 1 1 2 1 0 35 0 2 2 1 1 0 36 6 1 1 2 1 1 0 33 6 
EIF[ ]\011/* EndIf */
PUSHB[ ]\011/* 1 value pushed */
56 
CALL[ ]\011/* CallFunction */";
};
width = 1208;
}
);
note = B;
unicode = 0042;
},
{
glyphname = C;
layers = (
{
layerId = "10974C74-6ED2-4F66-BD25-910E45086E66";
paths = (
{
closed = 1;
nodes = (
"594 252 OFFCURVE",
"520 288.167 OFFCURVE",
"468 355.5 CURVE SMOOTH",
"416 422.833 OFFCURVE",
"384 521 OFFCURVE",
"384 645 CURVE SMOOTH",
"384 815.667 OFFCURVE",
"430.5 955.833 OFFCURVE",
"508.5 1052.5 CURVE SMOOTH",
"586.5 1149.167 OFFCURVE",
"695.333 1203 OFFCURVE",
"818 1203 CURVE SMOOTH",
"884.993 1203 OFFCURVE",
"970.226 1174.713 OFFCURVE",
"1002 1150 CURVE SMOOTH",
"1033.014 1125.878 OFFCURVE",
"1063.152 1097 OFFCURVE",
"1094 1097 CURVE SMOOTH",
"1128.667 1097 OFFCURVE",
"1148 1114.333 OFFCURVE",
"1164 1133 CURVE SMOOTH",
"1278 1265 LINE",
"1235.333 1326.333 OFFCURVE",
"1178.167 1377.833 OFFCURVE",
"1105.5 1414.5 CURVE SMOOTH",
"1032.833 1451.167 OFFCURVE",
"943.333 1473 OFFCURVE",
"834 1473 CURVE SMOOTH",
"761.333 1473 OFFCURVE",
"691.667 1463.5 OFFCURVE",
"625 1444.5 CURVE SMOOTH",
"491.667 1406.5 OFFCURVE",
"374.833 1335.333 OFFCURVE",
"279.5 1234 CURVE SMOOTH",
"231.833 1183.333 OFFCURVE",
"191 1126.333 OFFCURVE",
"157 1063 CURVE SMOOTH",
"89 936.333 OFFCURVE",
"50 785.667 OFFCURVE",
"50 619 CURVE SMOOTH",
"50 439 OFFCURVE",
"100.667 279.333 OFFCURVE",
"198 166 CURVE SMOOTH",
"295.333 52.667 OFFCURVE",
"438 -16 OFFCURVE",
"622 -16 CURVE SMOOTH",
"843.333 -16 OFFCURVE",
"1017.333 63.333 OFFCURVE",
"1144 214 CURVE",
"1030 351 LINE",
"1023.333 360.333 OFFCURVE",
"1009.333 369 OFFCURVE",
"988 369 CURVE SMOOTH",
"957.952 369 OFFCURVE",
"925.29 336.3 OFFCURVE",
"892 310.5 CURVE SMOOTH",
"856.217 282.768 OFFCURVE",
"756.483 252 OFFCURVE",
"678 252 CURVE SMOOTH"
);
}
);
userData = {
assembly = "NPUSHB[ ]\011/* 18 values pushed */
1 0 43 41 36 34 27 25 15 13 8 6 0 51 1 51 7 7 
CALL[ ]\011/* CallFunction */
MPPEM[ ]\011/* MeasurePixelPerEm */
PUSHB[ ]\011/* 1 value pushed */
94 
LT[ ]\011/* LessThan */
IF[ ]\011/* If */
NPUSHB[ ]\011/* 52 values pushed */
31 1 5 3 11 1 2 0 2 30 0 4 5 1 5 4 1 50 0 1 0 5 1 0 48 0 5 5 3 1 0 36 0 3 3 17 31 6 1 0 0 2 1 0 36 0 2 2 18 2 32 7 
ELSE[ ]\011/* Else */
NPUSHB[ ]\011/* 60 values pushed */
31 1 5 3 11 1 2 0 2 30 0 4 5 1 5 4 1 50 0 1 0 5 1 0 48 0 3 0 5 4 3 5 1 0 38 6 1 0 2 2 0 1 0 35 6 1 0 0 2 1 0 36 0 2 0 2 1 0 33 7 
EIF[ ]\011/* EndIf */
PUSHB[ ]\011/* 1 value pushed */
56 
CALL[ ]\011/* CallFunction */";
};
width = 1182;
}
);
note = C;
unicode = 0043;
},
{
glyphname = Ccedilla;
layers = (
{
layerId = "10974C74-6ED2-4F66-BD25-910E45086E66";
paths = (
{
closed = 1;
nodes = (
"467.333 -214 OFFCURVE",
"458.667 -224.333 OFFCURVE",
"452 -239 CURVE SMOOTH",
"412 -329 LINE",
"458.667 -342.333 OFFCURVE",
"497.333 -347 OFFCURVE",
"548 -347 CURVE SMOOTH",
"695.219 -347 OFFCURVE",
"820 -288.846 OFFCURVE",
"820 -178 CURVE SMOOTH",
"820 -123.333 OFFCURVE",
"788.667 -75 OFFCURVE",
"694 -47 CURVE",
"707 -12 LINE",
"888.333 6.667 OFFCURVE",
"1033.333 83.333 OFFCURVE",
"1144 214 CURVE",
"1030 351 LINE",
"1023.333 360.333 OFFCURVE",
"1009.333 369 OFFCURVE",
"988 369 CURVE SMOOTH",
"957.952 369 OFFCURVE",
"925.29 336.3 OFFCURVE",
"892 310.5 CURVE SMOOTH",
"856.217 282.768 OFFCURVE",
"756.483 252 OFFCURVE",
"678 252 CURVE SMOOTH",
"594 252 OFFCURVE",
"520 288.167 OFFCURVE",
"468 355.5 CURVE SMOOTH",
"416 422.833 OFFCURVE",
"384 521 OFFCURVE",
"384 645 CURVE SMOOTH",
"384 815.667 OFFCURVE",
"430.5 955.833 OFFCURVE",
"508.5 1052.5 CURVE SMOOTH",
"586.5 1149.167 OFFCURVE",
"695.333 1203 OFFCURVE",
"818 1203 CURVE SMOOTH",
"884.993 1203 OFFCURVE",
"970.226 1174.713 OFFCURVE",
"1002 1150 CURVE SMOOTH",
"1033.014 1125.878 OFFCURVE",
"1063.152 1097 OFFCURVE",
"1094 1097 CURVE SMOOTH",
"1128.667 1097 OFFCURVE",
"1148 1114.333 OFFCURVE",
"1164 1133 CURVE SMOOTH",
"1278 1265 LINE",
"1235.333 1326.333 OFFCURVE",
"1178.167 1377.833 OFFCURVE",
"1105.5 1414.5 CURVE SMOOTH",
"1032.833 1451.167 OFFCURVE",
"943.333 1473 OFFCURVE",
"834 1473 CURVE SMOOTH",
"761.333 1473 OFFCURVE",
"691.667 1463.5 OFFCURVE",
"625 1444.5 CURVE SMOOTH",
"491.667 1406.5 OFFCURVE",
"374.833 1335.333 OFFCURVE",
"279.5 1234 CURVE SMOOTH",
"231.833 1183.333 OFFCURVE",
"191 1126.333 OFFCURVE",
"157 1063 CURVE SMOOTH",
"89 936.333 OFFCURVE",
"50 785.667 OFFCURVE",
"50 619 CURVE SMOOTH",
"50 455 OFFCURVE",
"92 309.5 OFFCURVE",
"172 199.5 CURVE SMOOTH",
"252 89.5 OFFCURVE",
"370 14.667 OFFCURVE",
"522 -8 CURVE",
"472 -136 LINE",
"514 -142 OFFCURVE",
"543.5 -148.5 OFFCURVE",
"560.5 -155.5 CURVE SMOOTH",
"577.5 -162.5 OFFCURVE",
"586 -172.667 OFFCURVE",
"586 -186 CURVE SMOOTH",
"586 -204.667 OFFCURVE",
"572.667 -224 OFFCURVE",
"542 -224 CURVE SMOOTH",
"530 -224 OFFCURVE",
"520.167 -222.333 OFFCURVE",
"512.5 -219 CURVE SMOOTH",
"504.833 -215.667 OFFCURVE",
"496 -214 OFFCURVE",
"486 -214 CURVE SMOOTH"
);
}
);
userData = {
assembly = "NPUSHB[ ]\011/* 22 values pushed */
1 0 72 70 56 54 49 47 39 37 32 30 23 21 4 2 0 77 1 77 9 7 
CALL[ ]\011/* CallFunction */
MPPEM[ ]\011/* MeasurePixelPerEm */
PUSHB[ ]\011/* 1 value pushed */
49 
LT[ ]\011/* LessThan */
IF[ ]\011/* If */
NPUSHB[ ]\011/* 67 values pushed */
27 1 4 2 63 59 10 9 4 0 5 74 1 7 0 3 30 0 3 4 6 4 3 6 50 0 6 5 4 6 5 48 0 5 0 4 5 0 48 0 4 4 2 1 0 36 0 2 2 17 31 1 8 2 0 0 7 1 0 36 0 7 7 16 7 32 8 
ELSE[ ]\011/* Else */
MPPEM[ ]\011/* MeasurePixelPerEm */
PUSHB[ ]\011/* 1 value pushed */
54 
LT[ ]\011/* LessThan */
IF[ ]\011/* If */
NPUSHB[ ]\011/* 73 values pushed */
27 1 4 2 63 59 10 9 4 0 5 74 1 7 1 3 30 0 3 4 6 4 3 6 50 0 6 5 4 6 5 48 0 5 0 4 5 0 48 8 1 0 1 4 0 1 48 0 4 4 2 1 0 36 0 2 2 17 31 0 1 1 7 1 0 36 0 7 7 16 7 32 9 
ELSE[ ]\011/* Else */
MPPEM[ ]\011/* MeasurePixelPerEm */
PUSHB[ ]\011/* 1 value pushed */
94 
LT[ ]\011/* LessThan */
IF[ ]\011/* If */
NPUSHB[ ]\011/* 70 values pushed */
27 1 4 2 63 59 10 9 4 0 5 74 1 7 1 3 30 0 3 4 6 4 3 6 50 0 6 5 4 6 5 48 0 5 0 4 5 0 48 8 1 0 1 4 0 1 48 0 1 0 7 1 7 1 0 37 0 4 4 2 1 0 36 0 2 2 17 4 32 8 
ELSE[ ]\011/* Else */
NPUSHB[ ]\011/* 80 values pushed */
27 1 4 2 63 59 10 9 4 0 5 74 1 7 1 3 30 0 3 4 6 4 3 6 50 0 6 5 4 6 5 48 0 5 0 4 5 0 48 8 1 0 1 4 0 1 48 0 2 0 4 3 2 4 1 0 38 0 1 7 7 1 1 0 35 0 1 1 7 1 0 36 0 7 1 7 1 0 33 9 
EIF[ ]\011/* EndIf */
EIF[ ]\011/* EndIf */
EIF[ ]\011/* EndIf */
PUSHB[ ]\011/* 1 value pushed */
56 
CALL[ ]\011/* CallFunction */";
};
width = 1182;
}
);
note = Ccedilla;
unicode = 00C7;
},
{
glyphname = D;
layers = (
{
layerId = "10974C74-6ED2-4F66-BD25-910E45086E66";
paths = (
{
closed = 1;
nodes = (
"1366 1003.333 OFFCURVE",
"1306.667 1161.667 OFFCURVE",
"1200 1275 CURVE SMOOTH",
"1093.333 1388.333 OFFCURVE",
"938.667 1457 OFFCURVE",
"748 1457 CURVE SMOOTH",
"224 1457 LINE",
"44 0 LINE",
"568 0 LINE SMOOTH",
"644.667 0 OFFCURVE",
"717.833 9.333 OFFCURVE",
"787.5 28 CURVE SMOOTH",
"926.833 65.333 OFFCURVE",
"1045.167 135.5 OFFCURVE",
"1140.5 233.5 CURVE SMOOTH",
"1188.167 282.5 OFFCURVE",
"1228.667 337.5 OFFCURVE",
"1262 398.5 CURVE SMOOTH",
"1328.667 520.5 OFFCURVE",
"1366 663.333 OFFCURVE",
"1366 822 CURVE SMOOTH"
);
},
{
closed = 1;
nodes = (
"1032 640.667 OFFCURVE",
"990.667 500.333 OFFCURVE",
"916 403 CURVE SMOOTH",
"841.333 305.667 OFFCURVE",
"733.333 251 OFFCURVE",
"600 251 CURVE SMOOTH",
"404 251 LINE",
"520 1206 LINE",
"716 1206 LINE SMOOTH",
"817.333 1206 OFFCURVE",
"896.5 1167 OFFCURVE",
"950.5 1099 CURVE SMOOTH",
"1004.5 1031 OFFCURVE",
"1032 932.667 OFFCURVE",
"1032 814 CURVE SMOOTH"
);
}
);
userData = {
assembly = "NPUSHB[ ]\011/* 10 values pushed */
24 22 21 19 11 9 8 6 4 7 
CALL[ ]\011/* CallFunction */
MPPEM[ ]\011/* MeasurePixelPerEm */
PUSHB[ ]\011/* 1 value pushed */
94 
LT[ ]\011/* LessThan */
IF[ ]\011/* If */
NPUSHB[ ]\011/* 26 values pushed */
0 2 2 1 1 0 36 0 1 1 11 31 0 3 3 0 1 0 36 0 0 0 12 0 32 4 
ELSE[ ]\011/* Else */
NPUSHB[ ]\011/* 33 values pushed */
0 1 0 2 3 1 2 1 0 38 0 3 0 0 3 1 0 35 0 3 3 0 1 0 36 0 0 3 0 1 0 33 4 
EIF[ ]\011/* EndIf */
PUSHB[ ]\011/* 1 value pushed */
56 
CALL[ ]\011/* CallFunction */";
};
width = 1364;
}
);
note = D;
unicode = 0044;
},
{
glyphname = Eth;
layers = (
{
layerId = "10974C74-6ED2-4F66-BD25-910E45086E66";
paths = (
{
closed = 1;
nodes = (
"68 641 LINE",
"218 641 LINE",
"140 0 LINE",
"664 0 LINE SMOOTH",
"740.667 0 OFFCURVE",
"813.5 9.333 OFFCURVE",
"882.5 28 CURVE SMOOTH",
"1020.5 65.333 OFFCURVE",
"1139.167 135.5 OFFCURVE",
"1234.5 233.5 CURVE SMOOTH",
"1282.167 282.5 OFFCURVE",
"1322.667 337.5 OFFCURVE",
"1356 398.5 CURVE SMOOTH",
"1422.667 520.5 OFFCURVE",
"1460 663.333 OFFCURVE",
"1460 822 CURVE SMOOTH",
"1460 1003.333 OFFCURVE",
"1401.667 1161.667 OFFCURVE",
"1295 1275 CURVE SMOOTH",
"1188.333 1388.333 OFFCURVE",
"1034 1457 OFFCURVE",
"842 1457 CURVE SMOOTH",
"318 1457 LINE",
"240 819 LINE",
"92 819 LINE"
);
},
{
closed = 1;
nodes = (
"1126 640.667 OFFCURVE",
"1084.5 500.333 OFFCURVE",
"1010.5 403 CURVE SMOOTH",
"936.5 305.667 OFFCURVE",
"829.333 251 OFFCURVE",
"696 251 CURVE SMOOTH",
"500 251 LINE",
"546 641 LINE",
"858 641 LINE",
"880 819 LINE",
"568 819 LINE",
"614 1206 LINE",
"810 1206 LINE SMOOTH",
"911.333 1206 OFFCURVE",
"990.5 1167 OFFCURVE",
"1044.5 1099 CURVE SMOOTH",
"1098.5 1031 OFFCURVE",
"1126 932.667 OFFCURVE",
"1126 814 CURVE SMOOTH"
);
}
);
userData = {
assembly = "NPUSHB[ ]\011/* 18 values pushed */
32 30 29 28 27 26 25 23 18 17 16 14 4 2 1 0 8 7 
CALL[ ]\011/* CallFunction */
MPPEM[ ]\011/* MeasurePixelPerEm */
PUSHB[ ]\011/* 1 value pushed */
94 
LT[ ]\011/* LessThan */
IF[ ]\011/* If */
NPUSHB[ ]\011/* 38 values pushed */
5 1 0 6 1 3 7 0 3 0 0 38 0 4 4 1 1 0 36 0 1 1 11 31 0 7 7 2 1 0 36 0 2 2 12 2 32 5 
ELSE[ ]\011/* Else */
MPPEM[ ]\011/* MeasurePixelPerEm */
PUSHB[ ]\011/* 1 value pushed */
232 
LT[ ]\011/* LessThan */
IF[ ]\011/* If */
NPUSHB[ ]\011/* 45 values pushed */
0 1 0 4 0 1 4 1 0 38 5 1 0 6 1 3 7 0 3 0 0 38 0 7 2 2 7 1 0 35 0 7 7 2 1 0 36 0 2 7 2 1 0 33 5 
ELSE[ ]\011/* Else */
NPUSHB[ ]\011/* 53 values pushed */
0 1 0 4 0 1 4 1 0 38 0 5 0 6 3 5 6 0 0 38 0 0 0 3 7 0 3 0 0 38 0 7 2 2 7 1 0 35 0 7 7 2 1 0 36 0 2 7 2 1 0 33 6 
EIF[ ]\011/* EndIf */
EIF[ ]\011/* EndIf */
PUSHB[ ]\011/* 1 value pushed */
56 
CALL[ ]\011/* CallFunction */";
};
width = 1458;
}
);
note = Eth;
unicode = 00D0;
},
{
glyphname = E;
layers = (
{
layerId = "10974C74-6ED2-4F66-BD25-910E45086E66";
paths = (
{
closed = 1;
nodes = (
"1092 1457 LINE",
"224 1457 LINE",
"44 0 LINE",
"914 0 LINE",
"946 251 LINE",
"403 251 LINE",
"447 612 LINE",
"858 612 LINE",
"890 854 LINE",
"477 854 LINE",
"521 1206 LINE",
"1060 1206 LINE"
);
}
);
userData = {
assembly = "NPUSHB[ ]\011/* 14 values pushed */
11 10 9 8 7 6 5 4 3 2 1 0 6 7 
CALL[ ]\011/* CallFunction */
MPPEM[ ]\011/* MeasurePixelPerEm */
PUSHB[ ]\011/* 1 value pushed */
94 
LT[ ]\011/* LessThan */
IF[ ]\011/* If */
NPUSHB[ ]\011/* 36 values pushed */
0 1 0 2 3 1 2 0 0 38 0 0 0 5 0 0 36 0 5 5 11 31 0 3 3 4 0 0 36 0 4 4 12 4 32 5 
ELSE[ ]\011/* Else */
NPUSHB[ ]\011/* 43 values pushed */
0 5 0 0 1 5 0 0 0 38 0 1 0 2 3 1 2 0 0 38 0 3 4 4 3 0 0 35 0 3 3 4 0 0 36 0 4 3 4 0 0 33 5 
EIF[ ]\011/* EndIf */
PUSHB[ ]\011/* 1 value pushed */
56 
CALL[ ]\011/* CallFunction */";
};
width = 1036;
}
);
note = E;
unicode = 0045;
},
{
glyphname = Eogonek;
layers = (
{
layerId = "10974C74-6ED2-4F66-BD25-910E45086E66";
paths = (
{
closed = 1;
nodes = (
"804 -171 OFFCURVE",
"798.333 -172.5 OFFCURVE",
"793 -175.5 CURVE SMOOTH",
"787.667 -178.5 OFFCURVE",
"776 -180 OFFCURVE",
"758 -180 CURVE SMOOTH",
"731.333 -180 OFFCURVE",
"718 -160.667 OFFCURVE",
"718 -134 CURVE SMOOTH",
"718 -76.667 OFFCURVE",
"762 -30.667 OFFCURVE",
"818 0 CURVE",
"914 0 LINE",
"946 251 LINE",
"403 251 LINE",
"447 612 LINE",
"858 612 LINE",
"890 854 LINE",
"477 854 LINE",
"521 1206 LINE",
"1060 1206 LINE",
"1092 1457 LINE",
"224 1457 LINE",
"44 0 LINE",
"644 0 LINE",
"533.333 -64 OFFCURVE",
"488 -139.333 OFFCURVE",
"488 -214 CURVE SMOOTH",
"488 -290 OFFCURVE",
"548.667 -347 OFFCURVE",
"674 -347 CURVE SMOOTH",
"746 -347 OFFCURVE",
"817.333 -325 OFFCURVE",
"864 -297 CURVE",
"834 -190 LINE",
"832 -177.333 OFFCURVE",
"824 -171 OFFCURVE",
"810 -171 CURVE SMOOTH"
);
}
);
userData = {
assembly = "NPUSHB[ ]\011/* 26 values pushed */
1 0 32 30 25 24 23 22 21 20 19 18 17 16 15 14 13 12 7 5 0 33 1 33 11 7 
CALL[ ]\011/* CallFunction */
MPPEM[ ]\011/* MeasurePixelPerEm */
PUSHB[ ]\011/* 1 value pushed */
53 
LT[ ]\011/* LessThan */
IF[ ]\011/* If */
NPUSHB[ ]\011/* 58 values pushed */
3 1 1 0 1 30 9 10 2 0 2 1 2 0 1 50 0 5 0 6 7 5 6 0 0 38 0 4 4 3 0 0 36 0 3 3 11 31 0 7 7 2 0 0 36 8 1 2 2 12 31 0 1 1 16 1 32 8 
ELSE[ ]\011/* Else */
MPPEM[ ]\011/* MeasurePixelPerEm */
PUSHB[ ]\011/* 1 value pushed */
54 
LT[ ]\011/* LessThan */
IF[ ]\011/* If */
NPUSHB[ ]\011/* 64 values pushed */
3 1 1 9 1 30 10 1 0 2 9 2 0 9 50 0 9 1 2 9 1 48 0 5 0 6 7 5 6 0 0 38 0 4 4 3 0 0 36 0 3 3 11 31 0 7 7 2 0 0 36 8 1 2 2 12 31 0 1 1 16 1 32 9 
ELSE[ ]\011/* Else */
MPPEM[ ]\011/* MeasurePixelPerEm */
PUSHB[ ]\011/* 1 value pushed */
94 
LT[ ]\011/* LessThan */
IF[ ]\011/* If */
NPUSHB[ ]\011/* 63 values pushed */
3 1 1 9 1 30 10 1 0 2 9 2 0 9 50 0 9 1 2 9 1 48 0 1 1 51 0 5 0 6 7 5 6 0 0 38 0 4 4 3 0 0 36 0 3 3 11 31 0 7 7 2 0 0 36 8 1 2 2 12 2 32 9 
ELSE[ ]\011/* Else */
MPPEM[ ]\011/* MeasurePixelPerEm */
PUSHB[ ]\011/* 1 value pushed */
232 
LT[ ]\011/* LessThan */
IF[ ]\011/* If */
NPUSHB[ ]\011/* 70 values pushed */
3 1 1 9 1 30 10 1 0 2 9 2 0 9 50 0 9 1 2 9 1 48 0 1 1 51 0 3 0 4 5 3 4 0 0 38 0 5 0 6 7 5 6 0 0 38 0 7 2 2 7 0 0 35 0 7 7 2 0 0 36 8 1 2 7 2 0 0 33 9 
ELSE[ ]\011/* Else */
NPUSHB[ ]\011/* 76 values pushed */
3 1 1 9 1 30 0 8 7 2 2 8 42 10 1 0 2 9 2 0 9 50 0 9 1 2 9 1 48 0 1 1 51 0 3 0 4 5 3 4 0 0 38 0 5 0 6 7 5 6 0 0 38 0 7 8 2 7 0 2 35 0 7 7 2 0 0 36 0 2 7 2 0 0 33 10 
EIF[ ]\011/* EndIf */
EIF[ ]\011/* EndIf */
EIF[ ]\011/* EndIf */
EIF[ ]\011/* EndIf */
PUSHB[ ]\011/* 1 value pushed */
56 
CALL[ ]\011/* CallFunction */";
};
width = 1036;
}
);
note = Eogonek;
unicode = 0118;
},
{
glyphname = F;
layers = (
{
layerId = "10974C74-6ED2-4F66-BD25-910E45086E66";
paths = (
{
closed = 1;
nodes = (
"1092 1457 LINE",
"224 1457 LINE",
"44 0 LINE",
"372 0 LINE",
"442 571 LINE",
"890 571 LINE",
"924 822 LINE",
"473 822 LINE",
"521 1206 LINE",
"1060 1206 LINE"
);
}
);
userData = {
assembly = "NPUSHB[ ]\011/* 12 values pushed */
9 8 7 6 5 4 3 2 1 0 5 7 
CALL[ ]\011/* CallFunction */
MPPEM[ ]\011/* MeasurePixelPerEm */
PUSHB[ ]\011/* 1 value pushed */
94 
LT[ ]\011/* LessThan */
IF[ ]\011/* If */
NPUSHB[ ]\011/* 29 values pushed */
0 1 0 2 3 1 2 0 0 38 0 0 0 4 0 0 36 0 4 4 11 31 0 3 3 12 3 32 4 
ELSE[ ]\011/* Else */
NPUSHB[ ]\011/* 38 values pushed */
0 3 2 3 53 0 4 0 0 1 4 0 0 0 38 0 1 2 2 1 0 0 35 0 1 1 2 0 0 36 0 2 1 2 0 0 33 5 
EIF[ ]\011/* EndIf */
PUSHB[ ]\011/* 1 value pushed */
56 
CALL[ ]\011/* CallFunction */";
};
width = 1024;
}
);
note = F;
unicode = 0046;
},
{
glyphname = G;
layers = (
{
layerId = "10974C74-6ED2-4F66-BD25-910E45086E66";
paths = (
{
closed = 1;
nodes = (
"612.667 235 OFFCURVE",
"531.333 273.5 OFFCURVE",
"474 343.5 CURVE SMOOTH",
"416.667 413.5 OFFCURVE",
"384 517 OFFCURVE",
"384 645 CURVE SMOOTH",
"384 810.333 OFFCURVE",
"428 950.5 OFFCURVE",
"504 1048.5 CURVE SMOOTH",
"580 1146.5 OFFCURVE",
"687.333 1203 OFFCURVE",
"814 1203 CURVE SMOOTH",
"930.029 1203 OFFCURVE",
"994.699 1170.887 OFFCURVE",
"1090 1110 CURVE SMOOTH",
"1108.667 1098 OFFCURVE",
"1127 1092 OFFCURVE",
"1145 1092 CURVE SMOOTH",
"1175 1092 OFFCURVE",
"1202 1106.667 OFFCURVE",
"1226 1136 CURVE SMOOTH",
"1332 1267 LINE",
"1284 1320.333 OFFCURVE",
"1222 1372.5 OFFCURVE",
"1142 1410.5 CURVE SMOOTH",
"1062 1448.5 OFFCURVE",
"962 1473 OFFCURVE",
"838 1473 CURVE SMOOTH",
"764 1473 OFFCURVE",
"693.333 1463.5 OFFCURVE",
"626 1444.5 CURVE SMOOTH",
"491.333 1406.5 OFFCURVE",
"373.833 1335 OFFCURVE",
"278.5 1235 CURVE SMOOTH",
"230.833 1185 OFFCURVE",
"190 1129 OFFCURVE",
"156 1067 CURVE SMOOTH",
"88 943 OFFCURVE",
"50 795.333 OFFCURVE",
"50 634 CURVE SMOOTH",
"50 448.667 OFFCURVE",
"110.5 286 OFFCURVE",
"216.5 170 CURVE SMOOTH",
"322.5 54 OFFCURVE",
"474 -16 OFFCURVE",
"654 -16 CURVE SMOOTH",
"763.333 -16 OFFCURVE",
"859.167 -4.333 OFFCURVE",
"946.5 21 CURVE SMOOTH",
"1033.833 46.333 OFFCURVE",
"1113.333 85.333 OFFCURVE",
"1188 140 CURVE",
"1264 749 LINE",
"778 749 LINE",
"756 561 LINE",
"756 531.667 OFFCURVE",
"776.667 513 OFFCURVE",
"814 513 CURVE SMOOTH",
"938 513 LINE",
"910 275 LINE",
"851.333 249.667 OFFCURVE",
"790 235 OFFCURVE",
"710 235 CURVE SMOOTH"
);
}
);
userData = {
assembly = "NPUSHB[ ]\011/* 20 values pushed */
1 0 44 42 37 35 29 27 17 15 10 9 6 4 0 52 1 52 8 7 
CALL[ ]\011/* CallFunction */
MPPEM[ ]\011/* MeasurePixelPerEm */
PUSHB[ ]\011/* 1 value pushed */
94 
LT[ ]\011/* LessThan */
IF[ ]\011/* If */
NPUSHB[ ]\011/* 55 values pushed */
33 1 6 4 8 1 1 2 2 30 0 5 6 2 6 5 2 50 0 2 0 1 0 2 1 1 0 38 0 6 6 4 1 0 36 0 4 4 17 31 7 1 0 0 3 1 0 36 0 3 3 18 3 32 7 
ELSE[ ]\011/* Else */
NPUSHB[ ]\011/* 63 values pushed */
33 1 6 4 8 1 1 2 2 30 0 5 6 2 6 5 2 50 0 4 0 6 5 4 6 1 0 38 0 2 0 1 0 2 1 1 0 38 7 1 0 3 3 0 1 0 35 7 1 0 0 3 1 0 36 0 3 0 3 1 0 33 7 
EIF[ ]\011/* EndIf */
PUSHB[ ]\011/* 1 value pushed */
56 
CALL[ ]\011/* CallFunction */";
};
width = 1306;
}
);
note = G;
unicode = 0047;
},
{
glyphname = H;
layers = (
{
layerId = "10974C74-6ED2-4F66-BD25-910E45086E66";
paths = (
{
closed = 1;
nodes = (
"1406 1457 LINE",
"1078 1457 LINE",
"1002 842 LINE",
"476 842 LINE",
"552 1457 LINE",
"224 1457 LINE",
"44 0 LINE",
"372 0 LINE",
"448 620 LINE",
"974 620 LINE",
"898 0 LINE",
"1226 0 LINE"
);
}
);
userData = {
assembly = "NPUSHB[ ]\011/* 14 values pushed */
11 10 9 8 7 6 5 4 3 2 1 0 6 7 
CALL[ ]\011/* CallFunction */
MPPEM[ ]\011/* MeasurePixelPerEm */
PUSHB[ ]\011/* 1 value pushed */
94 
LT[ ]\011/* LessThan */
IF[ ]\011/* If */
NPUSHB[ ]\011/* 24 values pushed */
0 4 0 1 0 4 1 0 2 38 5 1 3 3 11 31 2 1 0 0 12 0 32 3 
ELSE[ ]\011/* Else */
MPPEM[ ]\011/* MeasurePixelPerEm */
PUSHB[ ]\011/* 1 value pushed */
232 
LT[ ]\011/* LessThan */
IF[ ]\011/* If */
NPUSHB[ ]\011/* 35 values pushed */
5 1 3 4 3 52 2 1 0 1 0 53 0 4 1 1 4 0 0 35 0 4 4 1 0 2 36 0 1 4 1 0 2 33 5 
ELSE[ ]\011/* Else */
NPUSHB[ ]\011/* 45 values pushed */
0 3 5 3 52 0 5 4 5 52 0 2 1 0 1 2 0 50 0 0 0 51 0 4 1 1 4 0 0 35 0 4 4 1 0 2 36 0 1 4 1 0 2 33 7 
EIF[ ]\011/* EndIf */
EIF[ ]\011/* EndIf */
PUSHB[ ]\011/* 1 value pushed */
56 
CALL[ ]\011/* CallFunction */";
};
width = 1392;
}
);
note = H;
unicode = 0048;
},
{
glyphname = I;
layers = (
{
layerId = "10974C74-6ED2-4F66-BD25-910E45086E66";
paths = (
{
closed = 1;
nodes = (
"578 1457 LINE",
"250 1457 LINE",
"72 0 LINE",
"400 0 LINE"
);
}
);
userData = {
assembly = "NPUSHB[ ]\011/* 6 values pushed */
3 2 1 0 2 7 
CALL[ ]\011/* CallFunction */
MPPEM[ ]\011/* MeasurePixelPerEm */
PUSHB[ ]\011/* 1 value pushed */
94 
LT[ ]\011/* LessThan */
IF[ ]\011/* If */
NPUSHB[ ]\011/* 12 values pushed */
0 1 1 11 31 0 0 0 12 0 32 2 
ELSE[ ]\011/* Else */
NPUSHB[ ]\011/* 23 values pushed */
0 1 0 0 1 0 0 35 0 1 1 0 0 0 36 0 0 1 0 0 0 33 3 
EIF[ ]\011/* EndIf */
PUSHB[ ]\011/* 1 value pushed */
56 
CALL[ ]\011/* CallFunction */";
};
width = 592;
}
);
note = I;
unicode = 0049;
},
{
glyphname = J;
layers = (
{
layerId = "10974C74-6ED2-4F66-BD25-910E45086E66";
paths = (
{
closed = 1;
nodes = (
"802 1457 LINE",
"476 1457 LINE",
"362 515 LINE SMOOTH",
"339.333 323 OFFCURVE",
"268 244 OFFCURVE",
"160 244 CURVE SMOOTH",
"136 244 OFFCURVE",
"114 245.833 OFFCURVE",
"94 249.5 CURVE SMOOTH",
"74 253.167 OFFCURVE",
"56 255 OFFCURVE",
"40 255 CURVE SMOOTH",
"-2.667 255 OFFCURVE",
"-20 230.333 OFFCURVE",
"-24 197 CURVE SMOOTH",
"-48 10 LINE",
"24 -8.667 OFFCURVE",
"89.333 -16 OFFCURVE",
"160 -16 CURVE SMOOTH",
"317.333 -16 OFFCURVE",
"439 37.333 OFFCURVE",
"527 132 CURVE SMOOTH",
"615 226.667 OFFCURVE",
"668 360.333 OFFCURVE",
"688 523 CURVE SMOOTH"
);
}
);
userData = {
assembly = "NPUSHB[ ]\011/* 10 values pushed */
20 19 16 14 13 11 6 4 4 7 
CALL[ ]\011/* CallFunction */
MPPEM[ ]\011/* MeasurePixelPerEm */
PUSHB[ ]\011/* 1 value pushed */
43 
LT[ ]\011/* LessThan */
IF[ ]\011/* If */
NPUSHB[ ]\011/* 26 values pushed */
8 1 0 1 1 30 0 3 3 11 31 2 1 1 1 0 1 0 36 0 0 0 18 0 32 4 
ELSE[ ]\011/* Else */
MPPEM[ ]\011/* MeasurePixelPerEm */
PUSHB[ ]\011/* 1 value pushed */
94 
LT[ ]\011/* LessThan */
IF[ ]\011/* If */
NPUSHB[ ]\011/* 33 values pushed */
8 1 0 2 1 30 0 1 3 2 3 1 2 50 0 3 3 11 31 0 2 2 0 1 0 36 0 0 0 18 0 32 5 
ELSE[ ]\011/* Else */
NPUSHB[ ]\011/* 39 values pushed */
8 1 0 2 1 30 0 3 1 3 52 0 1 2 1 52 0 2 0 0 2 1 0 35 0 2 2 0 1 0 36 0 0 2 0 1 0 33 6 
EIF[ ]\011/* EndIf */
EIF[ ]\011/* EndIf */
PUSHB[ ]\011/* 1 value pushed */
56 
CALL[ ]\011/* CallFunction */";
};
width = 788;
}
);
note = J;
unicode = 004A;
},
{
glyphname = K;
layers = (
{
layerId = "10974C74-6ED2-4F66-BD25-910E45086E66";
paths = (
{
closed = 1;
nodes = (
"548 1457 LINE",
"222 1457 LINE",
"44 0 LINE",
"368 0 LINE",
"445 624 LINE",
"520 624 LINE SMOOTH",
"576 624 OFFCURVE",
"606.667 610.667 OFFCURVE",
"624 572 CURVE SMOOTH",
"850 60 LINE SMOOTH",
"868.195 17.545 OFFCURVE",
"901.25 0 OFFCURVE",
"968 0 CURVE SMOOTH",
"1258 0 LINE",
"950 676 LINE SMOOTH",
"926 729.333 OFFCURVE",
"891.333 758.333 OFFCURVE",
"846 777 CURVE",
"882 795.667 OFFCURVE",
"915.333 820.667 OFFCURVE",
"946 862 CURVE SMOOTH",
"1404 1457 LINE",
"1122 1457 LINE SMOOTH",
"1058 1457 OFFCURVE",
"1011.333 1444 OFFCURVE",
"974 1392 CURVE SMOOTH",
"628 909 LINE SMOOTH",
"605.333 875.667 OFFCURVE",
"568.667 861 OFFCURVE",
"522 861 CURVE SMOOTH",
"474 861 LINE"
);
}
);
userData = {
assembly = "NPUSHB[ ]\011/* 14 values pushed */
32 31 30 29 28 26 19 17 9 7 2 0 6 7 
CALL[ ]\011/* CallFunction */
MPPEM[ ]\011/* MeasurePixelPerEm */
PUSHB[ ]\011/* 1 value pushed */
94 
LT[ ]\011/* LessThan */
IF[ ]\011/* If */
NPUSHB[ ]\011/* 30 values pushed */
13 1 3 0 1 30 0 0 0 3 2 0 3 1 2 38 5 1 1 1 11 31 4 1 2 2 12 2 32 4 
ELSE[ ]\011/* Else */
MPPEM[ ]\011/* MeasurePixelPerEm */
PUSHB[ ]\011/* 1 value pushed */
232 
LT[ ]\011/* LessThan */
IF[ ]\011/* If */
NPUSHB[ ]\011/* 42 values pushed */
13 1 3 0 1 30 5 1 1 0 2 1 1 0 35 0 0 0 3 2 0 3 1 2 38 5 1 1 1 2 1 0 36 4 1 2 1 2 1 0 33 5 
ELSE[ ]\011/* Else */
NPUSHB[ ]\011/* 55 values pushed */
13 1 3 0 1 30 0 5 1 0 1 5 0 50 0 4 3 2 3 4 2 50 0 1 5 2 1 1 0 35 0 0 0 3 4 0 3 1 2 38 0 1 1 2 1 0 36 0 2 1 2 1 0 33 7 
EIF[ ]\011/* EndIf */
EIF[ ]\011/* EndIf */
PUSHB[ ]\011/* 1 value pushed */
56 
CALL[ ]\011/* CallFunction */";
};
width = 1320;
}
);
note = K;
unicode = 004B;
},
{
glyphname = L;
layers = (
{
layerId = "10974C74-6ED2-4F66-BD25-910E45086E66";
paths = (
{
closed = 1;
nodes = (
"550 1457 LINE",
"224 1457 LINE",
"44 0 LINE",
"860 0 LINE",
"892 260 LINE",
"402 260 LINE"
);
}
);
userData = {
assembly = "NPUSHB[ ]\011/* 8 values pushed */
5 4 3 2 1 0 3 7 
CALL[ ]\011/* CallFunction */
MPPEM[ ]\011/* MeasurePixelPerEm */
PUSHB[ ]\011/* 1 value pushed */
94 
LT[ ]\011/* LessThan */
IF[ ]\011/* If */
NPUSHB[ ]\011/* 19 values pushed */
0 2 2 11 31 0 0 0 1 0 2 36 0 1 1 12 1 32 3 
ELSE[ ]\011/* Else */
NPUSHB[ ]\011/* 28 values pushed */
0 2 0 2 52 0 0 1 1 0 0 0 35 0 0 0 1 0 2 36 0 1 0 1 0 2 33 4 
EIF[ ]\011/* EndIf */
PUSHB[ ]\011/* 1 value pushed */
56 
CALL[ ]\011/* CallFunction */";
};
width = 956;
}
);
note = L;
unicode = 004C;
},
{
glyphname = Lslash;
layers = (
{
layerId = "10974C74-6ED2-4F66-BD25-910E45086E66";
paths = (
{
closed = 1;
nodes = (
"624 1457 LINE",
"298 1457 LINE",
"213 770 LINE",
"64 696 LINE SMOOTH",
"40 684.667 OFFCURVE",
"26.667 666.667 OFFCURVE",
"24 642 CURVE SMOOTH",
"-4 424 LINE",
"181 513 LINE",
"118 0 LINE",
"934 0 LINE",
"966 260 LINE",
"476 260 LINE",
"526 666 LINE",
"792 807 LINE SMOOTH",
"814.667 819 OFFCURVE",
"832 837.667 OFFCURVE",
"836 867 CURVE SMOOTH",
"864 1081 LINE",
"558 926 LINE"
);
}
);
userData = {
assembly = "NPUSHB[ ]\011/* 8 values pushed */
18 17 10 9 8 7 3 7 
CALL[ ]\011/* CallFunction */
MPPEM[ ]\011/* MeasurePixelPerEm */
PUSHB[ ]\011/* 1 value pushed */
94 
LT[ ]\011/* LessThan */
IF[ ]\011/* If */
NPUSHB[ ]\011/* 28 values pushed */
12 11 1 0 4 0 2 1 30 0 2 2 11 31 0 0 0 1 0 2 36 0 1 1 12 1 32 4 
ELSE[ ]\011/* Else */
NPUSHB[ ]\011/* 37 values pushed */
12 11 1 0 4 0 2 1 30 0 2 0 2 52 0 0 1 1 0 0 0 35 0 0 0 1 0 2 36 0 1 0 1 0 2 33 5 
EIF[ ]\011/* EndIf */
PUSHB[ ]\011/* 1 value pushed */
56 
CALL[ ]\011/* CallFunction */";
};
width = 1030;
}
);
note = Lslash;
unicode = 0141;
},
{
glyphname = M;
layers = (
{
layerId = "10974C74-6ED2-4F66-BD25-910E45086E66";
paths = (
{
closed = 1;
nodes = (
"830 640 LINE",
"574 1407 LINE SMOOTH",
"558.59 1455.799 OFFCURVE",
"526.705 1457 OFFCURVE",
"472 1457 CURVE SMOOTH",
"224 1457 LINE",
"44 0 LINE",
"332 0 LINE",
"432 853 LINE SMOOTH",
"434 870.333 OFFCURVE",
"435.5 889.667 OFFCURVE",
"436.5 911 CURVE SMOOTH",
"437.5 932.333 OFFCURVE",
"438.667 954.333 OFFCURVE",
"440 977 CURVE",
"696 223 LINE SMOOTH",
"710.667 179 OFFCURVE",
"751.333 156 OFFCURVE",
"802 156 CURVE SMOOTH",
"846 156 LINE SMOOTH",
"896.667 156 OFFCURVE",
"941.333 177.667 OFFCURVE",
"968 223 CURVE SMOOTH",
"1406 975 LINE",
"1395.333 928.333 OFFCURVE",
"1386 884 OFFCURVE",
"1382 848 CURVE SMOOTH",
"1280 0 LINE",
"1566 0 LINE",
"1746 1457 LINE",
"1490 1457 LINE SMOOTH",
"1452.667 1457 OFFCURVE",
"1408.667 1452.333 OFFCURVE",
"1382 1407 CURVE SMOOTH",
"936 640 LINE SMOOTH",
"910.667 597.333 OFFCURVE",
"887.333 555 OFFCURVE",
"866 511 CURVE",
"856 555 OFFCURVE",
"844 598 OFFCURVE",
"830 640 CURVE"
);
}
);
userData = {
assembly = "NPUSHB[ ]\011/* 12 values pushed */
34 31 30 29 22 19 12 11 10 8 5 7 
CALL[ ]\011/* CallFunction */
MPPEM[ ]\011/* MeasurePixelPerEm */
PUSHB[ ]\011/* 1 value pushed */
94 
LT[ ]\011/* LessThan */
IF[ ]\011/* If */
NPUSHB[ ]\011/* 30 values pushed */
25 16 2 3 2 0 1 30 0 2 0 1 0 2 1 50 4 1 0 0 11 31 3 1 1 1 12 1 32 4 
ELSE[ ]\011/* Else */
MPPEM[ ]\011/* MeasurePixelPerEm */
PUSHB[ ]\011/* 1 value pushed */
78 
LT[ ]\011/* LessThan */
IF[ ]\011/* If */
NPUSHB[ ]\011/* 42 values pushed */
25 16 2 3 2 0 1 30 0 2 0 1 0 2 1 50 4 1 0 2 1 0 1 0 35 4 1 0 0 1 0 0 36 3 1 1 0 1 0 0 33 5 
ELSE[ ]\011/* Else */
MPPEM[ ]\011/* MeasurePixelPerEm */
PUSHW[ ]\011/* 1 value pushed */
1000 
LT[ ]\011/* LessThan */
IF[ ]\011/* If */
NPUSHB[ ]\011/* 48 values pushed */
25 16 2 3 2 4 1 30 0 2 4 1 4 2 1 50 0 0 4 1 0 1 0 35 0 4 2 1 4 1 0 35 0 4 4 1 0 0 36 3 1 1 4 1 0 0 33 6 
ELSE[ ]\011/* Else */
NPUSHB[ ]\011/* 49 values pushed */
25 16 2 3 2 4 1 30 0 2 4 3 4 2 3 50 0 0 4 1 0 1 0 35 0 4 0 3 1 4 3 0 0 38 0 0 0 1 0 0 36 0 1 0 1 0 0 33 6 
EIF[ ]\011/* EndIf */
EIF[ ]\011/* EndIf */
EIF[ ]\011/* EndIf */
PUSHB[ ]\011/* 1 value pushed */
56 
CALL[ ]\011/* CallFunction */";
};
width = 1732;
}
);
note = M;
unicode = 004D;
},
{
glyphname = N;
layers = (
{
layerId = "10974C74-6ED2-4F66-BD25-910E45086E66";
paths = (
{
closed = 1;
nodes = (
"396 1457 LINE",
"224 1457 LINE",
"44 0 LINE",
"332 0 LINE",
"432 850 LINE SMOOTH",
"433.333 865.333 OFFCURVE",
"434.833 881.667 OFFCURVE",
"436.5 899 CURVE SMOOTH",
"438.167 916.333 OFFCURVE",
"439.667 934.333 OFFCURVE",
"441 953 CURVE",
"950 54 LINE SMOOTH",
"974 11.333 OFFCURVE",
"1005.333 0 OFFCURVE",
"1056 0 CURVE SMOOTH",
"1226 0 LINE",
"1406 1457 LINE",
"1118 1457 LINE",
"1020 634 LINE SMOOTH",
"1018 615.333 OFFCURVE",
"1015.667 595.333 OFFCURVE",
"1013 574 CURVE SMOOTH",
"1010.333 552.667 OFFCURVE",
"1008.333 530.333 OFFCURVE",
"1007 507 CURVE",
"496 1407 LINE SMOOTH",
"471.249 1451.002 OFFCURVE",
"449.876 1457 OFFCURVE",
"396 1457 CURVE SMOOTH"
);
}
);
userData = {
assembly = "NPUSHB[ ]\011/* 12 values pushed */
24 23 22 21 14 12 11 10 1 0 5 7 
CALL[ ]\011/* CallFunction */
MPPEM[ ]\011/* MeasurePixelPerEm */
PUSHB[ ]\011/* 1 value pushed */
94 
LT[ ]\011/* LessThan */
IF[ ]\011/* If */
NPUSHB[ ]\011/* 21 values pushed */
6 1 2 0 1 30 4 1 2 0 0 11 31 3 1 2 2 12 2 32 3 
ELSE[ ]\011/* Else */
MPPEM[ ]\011/* MeasurePixelPerEm */
PUSHB[ ]\011/* 1 value pushed */
232 
LT[ ]\011/* LessThan */
IF[ ]\011/* If */
NPUSHB[ ]\011/* 34 values pushed */
6 1 2 0 1 30 4 1 2 0 2 2 0 0 0 35 4 1 2 0 0 2 1 0 36 3 1 2 0 2 1 0 33 4 
ELSE[ ]\011/* Else */
NPUSHB[ ]\011/* 44 values pushed */
6 1 3 4 1 30 0 0 1 0 52 0 1 4 2 1 0 0 35 0 4 0 3 2 4 3 0 0 38 0 1 1 2 1 0 36 0 2 1 2 1 0 33 6 
EIF[ ]\011/* EndIf */
EIF[ ]\011/* EndIf */
PUSHB[ ]\011/* 1 value pushed */
56 
CALL[ ]\011/* CallFunction */";
};
width = 1392;
}
);
note = N;
unicode = 004E;
},
{
glyphname = O;
layers = (
{
layerId = "10974C74-6ED2-4F66-BD25-910E45086E66";
paths = (
{
closed = 1;
nodes = (
"1468 1003.333 OFFCURVE",
"1409.5 1166.667 OFFCURVE",
"1303.5 1284 CURVE SMOOTH",
"1197.5 1401.333 OFFCURVE",
"1042.667 1473 OFFCURVE",
"852 1473 CURVE SMOOTH",
"774.667 1473 OFFCURVE",
"701.333 1463.167 OFFCURVE",
"632 1443.5 CURVE SMOOTH",
"493.333 1404.167 OFFCURVE",
"374 1332.333 OFFCURVE",
"278 1231 CURVE SMOOTH",
"230 1180.333 OFFCURVE",
"189.167 1124 OFFCURVE",
"155.5 1062 CURVE SMOOTH",
"88.167 938 OFFCURVE",
"50 791.333 OFFCURVE",
"50 634 CURVE SMOOTH",
"50 451.333 OFFCURVE",
"108.333 289.167 OFFCURVE",
"215 172.5 CURVE SMOOTH",
"321.667 55.833 OFFCURVE",
"476 -16 OFFCURVE",
"668 -16 CURVE SMOOTH",
"744.667 -16 OFFCURVE",
"817.667 -6.167 OFFCURVE",
"887 13.5 CURVE SMOOTH",
"1025.667 52.833 OFFCURVE",
"1145.167 124.667 OFFCURVE",
"1240.5 226 CURVE SMOOTH",
"1288.167 276.667 OFFCURVE",
"1328.833 333 OFFCURVE",
"1362.5 395 CURVE SMOOTH",
"1429.833 519 OFFCURVE",
"1468 664.667 OFFCURVE",
"1468 822 CURVE SMOOTH"
);
},
{
closed = 1;
nodes = (
"1134 643.333 OFFCURVE",
"1092.5 501 OFFCURVE",
"1018.5 401 CURVE SMOOTH",
"944.5 301 OFFCURVE",
"837.333 244 OFFCURVE",
"704 244 CURVE SMOOTH",
"601.333 244 OFFCURVE",
"520.5 283.667 OFFCURVE",
"466.5 353 CURVE SMOOTH",
"412.5 422.333 OFFCURVE",
"384 521 OFFCURVE",
"384 641 CURVE SMOOTH",
"384 811.667 OFFCURVE",
"424.5 955 OFFCURVE",
"498.5 1055 CURVE SMOOTH",
"572.5 1155 OFFCURVE",
"678.667 1213 OFFCURVE",
"812 1213 CURVE SMOOTH",
"913.333 1213 OFFCURVE",
"994.167 1173.5 OFFCURVE",
"1049.5 1103.5 CURVE SMOOTH",
"1104.833 1033.5 OFFCURVE",
"1134 934 OFFCURVE",
"1134 814 CURVE SMOOTH"
);
}
);
userData = {
assembly = "NPUSHB[ ]\011/* 10 values pushed */
40 38 30 28 20 18 8 6 4 7 
CALL[ ]\011/* CallFunction */
MPPEM[ ]\011/* MeasurePixelPerEm */
PUSHB[ ]\011/* 1 value pushed */
94 
LT[ ]\011/* LessThan */
IF[ ]\011/* If */
NPUSHB[ ]\011/* 26 values pushed */
0 2 2 1 1 0 36 0 1 1 17 31 0 3 3 0 1 0 36 0 0 0 18 0 32 4 
ELSE[ ]\011/* Else */
NPUSHB[ ]\011/* 33 values pushed */
0 1 0 2 3 1 2 1 0 38 0 3 0 0 3 1 0 35 0 3 3 0 1 0 36 0 0 3 0 1 0 33 4 
EIF[ ]\011/* EndIf */
PUSHB[ ]\011/* 1 value pushed */
56 
CALL[ ]\011/* CallFunction */";
};
width = 1464;
}
);
note = O;
unicode = 004F;
},
{
glyphname = Oslash;
layers = (
{
layerId = "10974C74-6ED2-4F66-BD25-910E45086E66";
paths = (
{
closed = 1;
nodes = (
"1468 992.667 OFFCURVE",
"1417.667 1144 OFFCURVE",
"1323 1260 CURVE",
"1528 1521 LINE",
"1362 1521 LINE SMOOTH",
"1291.62 1521 OFFCURVE",
"1265.395 1502.747 OFFCURVE",
"1220 1444 CURVE SMOOTH",
"1176 1388 LINE",
"1085.333 1442.667 OFFCURVE",
"977.333 1473 OFFCURVE",
"852 1473 CURVE SMOOTH",
"774.667 1473 OFFCURVE",
"701.333 1463.167 OFFCURVE",
"632 1443.5 CURVE SMOOTH",
"493.333 1404.167 OFFCURVE",
"374 1332.333 OFFCURVE",
"278 1231 CURVE SMOOTH",
"230 1180.333 OFFCURVE",
"189.167 1124 OFFCURVE",
"155.5 1062 CURVE SMOOTH",
"88.167 938 OFFCURVE",
"50 791.333 OFFCURVE",
"50 634 CURVE SMOOTH",
"50 448.667 OFFCURVE",
"109.667 286.667 OFFCURVE",
"219 168 CURVE",
"-2 -113 LINE",
"126 -113 LINE SMOOTH",
"189.786 -113 OFFCURVE",
"263.9 -89.757 OFFCURVE",
"312 -29 CURVE SMOOTH",
"374 50 LINE",
"458 7.333 OFFCURVE",
"556 -16 OFFCURVE",
"668 -16 CURVE SMOOTH",
"744.667 -16 OFFCURVE",
"817.667 -6.167 OFFCURVE",
"887 13.5 CURVE SMOOTH",
"1025.667 52.833 OFFCURVE",
"1145.167 124.667 OFFCURVE",
"1240.5 226 CURVE SMOOTH",
"1288.167 276.667 OFFCURVE",
"1328.833 333 OFFCURVE",
"1362.5 395 CURVE SMOOTH",
"1429.833 519 OFFCURVE",
"1468 664.667 OFFCURVE",
"1468 822 CURVE SMOOTH"
);
},
{
closed = 1;
nodes = (
"384 811.667 OFFCURVE",
"424.5 955 OFFCURVE",
"498.5 1055 CURVE SMOOTH",
"572.5 1155 OFFCURVE",
"678.667 1213 OFFCURVE",
"812 1213 CURVE SMOOTH",
"884 1213 OFFCURVE",
"944.667 1193 OFFCURVE",
"994 1157 CURVE",
"423 428 LINE",
"397 488 OFFCURVE",
"384 559 OFFCURVE",
"384 641 CURVE SMOOTH"
);
},
{
closed = 1;
nodes = (
"1134 643.333 OFFCURVE",
"1092.5 501 OFFCURVE",
"1018.5 401 CURVE SMOOTH",
"944.5 301 OFFCURVE",
"837.333 244 OFFCURVE",
"704 244 CURVE SMOOTH",
"646.667 244 OFFCURVE",
"596.333 255.667 OFFCURVE",
"553 279 CURVE",
"1109 987 LINE",
"1125 936.333 OFFCURVE",
"1134 878 OFFCURVE",
"1134 814 CURVE SMOOTH"
);
}
);
userData = {
assembly = "NPUSHB[ ]\011/* 14 values pushed */
60 58 49 47 38 36 29 27 17 15 8 6 6 7 
CALL[ ]\011/* CallFunction */
MPPEM[ ]\011/* MeasurePixelPerEm */
PUSHB[ ]\011/* 1 value pushed */
54 
LT[ ]\011/* LessThan */
IF[ ]\011/* If */
NPUSHB[ ]\011/* 53 values pushed */
39 31 2 4 2 57 44 2 5 4 18 10 2 0 5 3 30 0 1 0 1 53 0 3 3 19 31 0 4 4 2 1 0 36 0 2 2 17 31 0 5 5 0 1 0 36 0 0 0 18 0 32 7 
ELSE[ ]\011/* Else */
MPPEM[ ]\011/* MeasurePixelPerEm */
PUSHB[ ]\011/* 1 value pushed */
94 
LT[ ]\011/* LessThan */
IF[ ]\011/* If */
NPUSHB[ ]\011/* 53 values pushed */
39 31 2 4 2 57 44 2 5 4 18 10 2 0 5 3 30 0 3 2 3 52 0 1 0 1 53 0 4 4 2 1 0 36 0 2 2 17 31 0 5 5 0 1 0 36 0 0 0 18 0 32 7 
ELSE[ ]\011/* Else */
NPUSHB[ ]\011/* 60 values pushed */
39 31 2 4 2 57 44 2 5 4 18 10 2 0 5 3 30 0 3 2 3 52 0 1 0 1 53 0 2 0 4 5 2 4 1 0 38 0 5 0 0 5 1 0 35 0 5 5 0 1 0 36 0 0 5 0 1 0 33 7 
EIF[ ]\011/* EndIf */
EIF[ ]\011/* EndIf */
PUSHB[ ]\011/* 1 value pushed */
56 
CALL[ ]\011/* CallFunction */";
};
width = 1464;
}
);
note = Oslash;
unicode = 00D8;
},
{
glyphname = OE;
layers = (
{
layerId = "10974C74-6ED2-4F66-BD25-910E45086E66";
paths = (
{
closed = 1;
nodes = (
"2008 1457 LINE",
"1178 1457 LINE",
"1158 1299 LINE",
"1070 1407 OFFCURVE",
"944 1473 OFFCURVE",
"780 1473 CURVE SMOOTH",
"569.333 1473 OFFCURVE",
"387.5 1380.167 OFFCURVE",
"257.5 1227.5 CURVE SMOOTH",
"127.5 1074.833 OFFCURVE",
"50 862.667 OFFCURVE",
"50 624 CURVE SMOOTH",
"50 444 OFFCURVE",
"101.5 283.667 OFFCURVE",
"195.5 169 CURVE SMOOTH",
"289.5 54.333 OFFCURVE",
"427.333 -16 OFFCURVE",
"598 -16 CURVE SMOOTH",
"759.333 -16 OFFCURVE",
"900.333 40 OFFCURVE",
"1015 136 CURVE",
"998 0 LINE",
"1828 0 LINE",
"1860 251 LINE",
"1318 251 LINE",
"1362 610 LINE",
"1774 610 LINE",
"1804 852 LINE",
"1392 852 LINE",
"1435 1206 LINE",
"1976 1206 LINE"
);
},
{
closed = 1;
nodes = (
"1056 650.667 OFFCURVE",
"1018 504 OFFCURVE",
"950 400 CURVE SMOOTH",
"882 296 OFFCURVE",
"783.333 235 OFFCURVE",
"662 235 CURVE SMOOTH",
"570 235 OFFCURVE",
"500.667 275.5 OFFCURVE",
"454 345.5 CURVE SMOOTH",
"407.333 415.5 OFFCURVE",
"384 515 OFFCURVE",
"384 631 CURVE SMOOTH",
"384 804.333 OFFCURVE",
"422 951.833 OFFCURVE",
"490 1056.5 CURVE SMOOTH",
"558 1161.167 OFFCURVE",
"658 1222 OFFCURVE",
"782 1222 CURVE SMOOTH",
"871.333 1222 OFFCURVE",
"940.5 1180.5 OFFCURVE",
"986.5 1110.5 CURVE SMOOTH",
"1032.5 1040.5 OFFCURVE",
"1056 941.333 OFFCURVE",
"1056 824 CURVE SMOOTH"
);
}
);
userData = {
assembly = "NPUSHB[ ]\011/* 22 values pushed */
45 43 35 33 28 27 24 22 14 12 9 8 7 6 5 4 3 2 1 0 10 7 
CALL[ ]\011/* CallFunction */
MPPEM[ ]\011/* MeasurePixelPerEm */
PUSHB[ ]\011/* 1 value pushed */
30 
LT[ ]\011/* LessThan */
IF[ ]\011/* If */
NPUSHB[ ]\011/* 50 values pushed */
26 1 0 6 10 1 4 3 2 30 0 1 0 2 3 1 2 0 0 38 8 1 0 0 6 1 0 36 7 1 6 6 17 31 9 1 3 3 4 1 0 36 5 1 4 4 12 4 32 6 
ELSE[ ]\011/* Else */
MPPEM[ ]\011/* MeasurePixelPerEm */
PUSHB[ ]\011/* 1 value pushed */
94 
LT[ ]\011/* LessThan */
IF[ ]\011/* If */
NPUSHB[ ]\011/* 70 values pushed */
26 1 8 7 10 1 4 9 2 30 0 1 0 2 3 1 2 0 0 38 0 8 8 6 1 0 36 0 6 6 17 31 0 0 0 7 0 0 36 0 7 7 11 31 0 3 3 4 0 0 36 0 4 4 12 31 0 9 9 5 1 0 36 0 5 5 18 5 32 10 
ELSE[ ]\011/* Else */
NPUSHB[ ]\011/* 73 values pushed */
26 1 8 7 10 1 4 9 2 30 0 6 0 8 0 6 8 1 0 38 0 7 0 0 1 7 0 0 0 38 0 1 0 2 3 1 2 0 0 38 0 9 4 5 9 1 0 35 0 3 0 4 5 3 4 0 0 38 0 9 9 5 1 0 36 0 5 9 5 1 0 33 8 
EIF[ ]\011/* EndIf */
EIF[ ]\011/* EndIf */
PUSHB[ ]\011/* 1 value pushed */
56 
CALL[ ]\011/* CallFunction */";
};
width = 1952;
}
);
note = OE;
unicode = 0152;
},
{
glyphname = P;
layers = (
{
layerId = "10974C74-6ED2-4F66-BD25-910E45086E66";
paths = (
{
closed = 1;
nodes = (
"584 491 LINE SMOOTH",
"793.333 491 OFFCURVE",
"946 550.333 OFFCURVE",
"1046 649 CURVE SMOOTH",
"1146 747.667 OFFCURVE",
"1194 886.333 OFFCURVE",
"1194 1045 CURVE SMOOTH",
"1194 1161 OFFCURVE",
"1157.833 1264.5 OFFCURVE",
"1078.5 1338.5 CURVE SMOOTH",
"999.167 1412.5 OFFCURVE",
"877.333 1457 OFFCURVE",
"704 1457 CURVE SMOOTH",
"222 1457 LINE",
"44 0 LINE",
"368 0 LINE",
"428 491 LINE"
);
},
{
closed = 1;
nodes = (
"672 1214 LINE SMOOTH",
"801.27 1214 OFFCURVE",
"866 1136.342 OFFCURVE",
"866 1018 CURVE SMOOTH",
"866 845.82 OFFCURVE",
"796.727 736 OFFCURVE",
"616 736 CURVE SMOOTH",
"459 736 LINE",
"518 1214 LINE"
);
}
);
userData = {
assembly = "NPUSHB[ ]\011/* 20 values pushed */
15 15 0 0 15 27 15 26 18 16 0 14 0 13 5 3 2 1 7 7 
CALL[ ]\011/* CallFunction */
MPPEM[ ]\011/* MeasurePixelPerEm */
PUSHB[ ]\011/* 1 value pushed */
94 
LT[ ]\011/* LessThan */
IF[ ]\011/* If */
NPUSHB[ ]\011/* 31 values pushed */
0 3 5 1 2 0 3 2 1 0 38 6 1 4 4 1 1 0 36 0 1 1 11 31 0 0 0 12 0 32 4 
ELSE[ ]\011/* Else */
NPUSHB[ ]\011/* 40 values pushed */
0 0 2 0 53 0 1 6 1 4 3 1 4 1 0 38 0 3 2 2 3 1 0 35 0 3 3 2 1 0 36 5 1 2 3 2 1 0 33 5 
EIF[ ]\011/* EndIf */
PUSHB[ ]\011/* 1 value pushed */
56 
CALL[ ]\011/* CallFunction */";
};
width = 1180;
}
);
note = P;
unicode = 0050;
},
{
glyphname = Thorn;
layers = (
{
layerId = "10974C74-6ED2-4F66-BD25-910E45086E66";
paths = (
{
closed = 1;
nodes = (
"608 1457 LINE",
"282 1457 LINE",
"104 0 LINE",
"428 0 LINE",
"459 254 LINE",
"616 254 LINE SMOOTH",
"825.333 254 OFFCURVE",
"978 312.333 OFFCURVE",
"1078 411 CURVE SMOOTH",
"1178 509.667 OFFCURVE",
"1226 648 OFFCURVE",
"1226 808 CURVE SMOOTH",
"1226 924 OFFCURVE",
"1190 1025.833 OFFCURVE",
"1110 1098.5 CURVE SMOOTH",
"1030 1171.167 OFFCURVE",
"908 1216 OFFCURVE",
"736 1216 CURVE SMOOTH",
"578 1216 LINE"
);
},
{
closed = 1;
nodes = (
"704 973 LINE SMOOTH",
"833.166 973 OFFCURVE",
"898 898.835 OFFCURVE",
"898 781 CURVE SMOOTH",
"898 608.82 OFFCURVE",
"828.727 499 OFFCURVE",
"648 499 CURVE SMOOTH",
"489 499 LINE",
"548 973 LINE"
);
}
);
userData = {
assembly = "NPUSHB[ ]\011/* 18 values pushed */
17 17 17 29 17 28 20 18 16 15 14 13 12 10 2 0 7 7 
CALL[ ]\011/* CallFunction */
MPPEM[ ]\011/* MeasurePixelPerEm */
PUSHB[ ]\011/* 1 value pushed */
94 
LT[ ]\011/* LessThan */
IF[ ]\011/* If */
NPUSHB[ ]\011/* 33 values pushed */
0 0 6 1 5 4 0 5 1 2 38 0 4 0 1 2 4 1 1 0 38 0 3 3 11 31 0 2 2 12 2 32 4 
ELSE[ ]\011/* Else */
NPUSHB[ ]\011/* 44 values pushed */
0 3 0 3 52 0 2 1 2 53 0 0 6 1 5 4 0 5 1 2 38 0 4 1 1 4 1 0 35 0 4 4 1 1 0 36 0 1 4 1 1 0 33 6 
EIF[ ]\011/* EndIf */
PUSHB[ ]\011/* 1 value pushed */
56 
CALL[ ]\011/* CallFunction */";
};
width = 1180;
}
);
note = Thorn;
unicode = 00DE;
},
{
glyphname = Q;
layers = (
{
layerId = "10974C74-6ED2-4F66-BD25-910E45086E66";
paths = (
{
closed = 1;
nodes = (
"1468 1003.333 OFFCURVE",
"1409.5 1166.667 OFFCURVE",
"1303.5 1284 CURVE SMOOTH",
"1197.5 1401.333 OFFCURVE",
"1042.667 1473 OFFCURVE",
"852 1473 CURVE SMOOTH",
"774.667 1473 OFFCURVE",
"701.333 1463.167 OFFCURVE",
"632 1443.5 CURVE SMOOTH",
"493.333 1404.167 OFFCURVE",
"374 1332.333 OFFCURVE",
"278 1231 CURVE SMOOTH",
"230 1180.333 OFFCURVE",
"189.167 1124 OFFCURVE",
"155.5 1062 CURVE SMOOTH",
"88.167 938 OFFCURVE",
"50 791.333 OFFCURVE",
"50 634 CURVE SMOOTH",
"50 451.333 OFFCURVE",
"108.333 289.167 OFFCURVE",
"215 172.5 CURVE SMOOTH",
"321.667 55.833 OFFCURVE",
"476 -16 OFFCURVE",
"668 -16 CURVE SMOOTH",
"722.667 -16 OFFCURVE",
"775.667 -11 OFFCURVE",
"827 -1 CURVE",
"968 -204 LINE SMOOTH",
"1006.667 -261.333 OFFCURVE",
"1070 -274 OFFCURVE",
"1146 -274 CURVE SMOOTH",
"1414 -274 LINE",
"1123 124 LINE",
"1228.333 197.333 OFFCURVE",
"1315 298.167 OFFCURVE",
"1375 417.5 CURVE SMOOTH",
"1435 536.833 OFFCURVE",
"1468 674 OFFCURVE",
"1468 822 CURVE SMOOTH"
);
},
{
closed = 1;
nodes = (
"1134 643.333 OFFCURVE",
"1092.5 501 OFFCURVE",
"1018.5 401 CURVE SMOOTH",
"944.5 301 OFFCURVE",
"837.333 244 OFFCURVE",
"704 244 CURVE SMOOTH",
"601.333 244 OFFCURVE",
"520.5 283.667 OFFCURVE",
"466.5 353 CURVE SMOOTH",
"412.5 422.333 OFFCURVE",
"384 521 OFFCURVE",
"384 641 CURVE SMOOTH",
"384 811.667 OFFCURVE",
"424.5 955 OFFCURVE",
"498.5 1055 CURVE SMOOTH",
"572.5 1155 OFFCURVE",
"678.667 1213 OFFCURVE",
"812 1213 CURVE SMOOTH",
"913.333 1213 OFFCURVE",
"994.167 1173.5 OFFCURVE",
"1049.5 1103.5 CURVE SMOOTH",
"1104.833 1033.5 OFFCURVE",
"1134 934 OFFCURVE",
"1134 814 CURVE SMOOTH"
);
}
);
userData = {
assembly = "NPUSHB[ ]\011/* 12 values pushed */
46 44 36 34 26 24 14 12 8 6 5 7 
CALL[ ]\011/* CallFunction */
MPPEM[ ]\011/* MeasurePixelPerEm */
PUSHB[ ]\011/* 1 value pushed */
94 
LT[ ]\011/* LessThan */
IF[ ]\011/* If */
NPUSHB[ ]\011/* 38 values pushed */
11 5 2 1 4 1 30 0 0 1 0 53 0 3 3 2 1 0 36 0 2 2 17 31 0 4 4 1 1 0 36 0 1 1 18 1 32 6 
ELSE[ ]\011/* Else */
NPUSHB[ ]\011/* 45 values pushed */
11 5 2 1 4 1 30 0 0 1 0 53 0 2 0 3 4 2 3 1 0 38 0 4 1 1 4 1 0 35 0 4 4 1 1 0 36 0 1 4 1 1 0 33 6 
EIF[ ]\011/* EndIf */
PUSHB[ ]\011/* 1 value pushed */
56 
CALL[ ]\011/* CallFunction */";
};
width = 1464;
}
);
note = Q;
unicode = 0051;
},
{
glyphname = R;
layers = (
{
layerId = "10974C74-6ED2-4F66-BD25-910E45086E66";
paths = (
{
closed = 1;
nodes = (
"508 544 LINE SMOOTH",
"556 544 OFFCURVE",
"577.333 530.333 OFFCURVE",
"592 493 CURVE SMOOTH",
"750 62 LINE SMOOTH",
"764.667 22 OFFCURVE",
"803.333 0 OFFCURVE",
"858 0 CURVE SMOOTH",
"1152 0 LINE",
"940 513 LINE SMOOTH",
"920 561 OFFCURVE",
"882 591.333 OFFCURVE",
"842 614 CURVE",
"943.333 654 OFFCURVE",
"1023.333 716.833 OFFCURVE",
"1078 797.5 CURVE SMOOTH",
"1132.667 878.167 OFFCURVE",
"1162 975 OFFCURVE",
"1162 1083 CURVE SMOOTH",
"1162 1189.667 OFFCURVE",
"1127 1283.333 OFFCURVE",
"1047 1350 CURVE SMOOTH",
"967 1416.667 OFFCURVE",
"842.667 1457 OFFCURVE",
"664 1457 CURVE SMOOTH",
"222 1457 LINE",
"44 0 LINE",
"368 0 LINE",
"435 544 LINE"
);
},
{
closed = 1;
nodes = (
"634 1214 LINE SMOOTH",
"768.656 1214 OFFCURVE",
"838 1147.39 OFFCURVE",
"838 1033 CURVE SMOOTH",
"838 881.354 OFFCURVE",
"760.356 769 OFFCURVE",
"582 769 CURVE SMOOTH",
"463 769 LINE",
"518 1214 LINE"
);
}
);
userData = {
assembly = "NPUSHB[ ]\011/* 22 values pushed */
27 27 0 0 27 39 27 38 30 28 0 26 0 25 20 18 5 3 2 1 8 7 
CALL[ ]\011/* CallFunction */
MPPEM[ ]\011/* MeasurePixelPerEm */
PUSHB[ ]\011/* 1 value pushed */
94 
LT[ ]\011/* LessThan */
IF[ ]\011/* If */
NPUSHB[ ]\011/* 38 values pushed */
14 1 3 4 1 30 0 4 6 1 3 0 4 3 1 0 38 7 1 5 5 1 1 0 36 0 1 1 11 31 2 1 0 0 12 0 32 5 
ELSE[ ]\011/* Else */
MPPEM[ ]\011/* MeasurePixelPerEm */
PUSHB[ ]\011/* 1 value pushed */
232 
LT[ ]\011/* LessThan */
IF[ ]\011/* If */
NPUSHB[ ]\011/* 47 values pushed */
14 1 3 4 1 30 2 1 0 3 0 53 0 1 7 1 5 4 1 5 1 0 38 0 4 3 3 4 1 0 35 0 4 4 3 1 0 36 6 1 3 4 3 1 0 33 6 
ELSE[ ]\011/* Else */
NPUSHB[ ]\011/* 53 values pushed */
14 1 3 4 1 30 0 2 3 0 3 2 0 50 0 0 0 51 0 1 7 1 5 4 1 5 1 0 38 0 4 3 3 4 1 0 35 0 4 4 3 1 0 36 6 1 3 4 3 1 0 33 7 
EIF[ ]\011/* EndIf */
EIF[ ]\011/* EndIf */
PUSHB[ ]\011/* 1 value pushed */
56 
CALL[ ]\011/* CallFunction */";
};
width = 1228;
}
);
note = R;
unicode = 0052;
},
{
glyphname = S;
layers = (
{
layerId = "10974C74-6ED2-4F66-BD25-910E45086E66";
paths = (
{
closed = 1;
nodes = (
"1040 1299 LINE",
"959.264 1402.008 OFFCURVE",
"802.976 1471 OFFCURVE",
"646 1471 CURVE SMOOTH",
"484.667 1471 OFFCURVE",
"353.667 1412 OFFCURVE",
"263 1320 CURVE SMOOTH",
"172.333 1228 OFFCURVE",
"122 1104.333 OFFCURVE",
"122 975 CURVE SMOOTH",
"122 863 OFFCURVE",
"154.833 789.167 OFFCURVE",
"203.5 736.5 CURVE SMOOTH",
"252.167 683.833 OFFCURVE",
"317.667 654 OFFCURVE",
"383 630 CURVE SMOOTH",
"435.694 610.643 OFFCURVE",
"520.641 583.936 OFFCURVE",
"562.5 561 CURVE SMOOTH",
"611.167 534.333 OFFCURVE",
"644 498 OFFCURVE",
"644 438 CURVE SMOOTH",
"644 308.667 OFFCURVE",
"575.333 242 OFFCURVE",
"454 242 CURVE SMOOTH",
"371.333 242 OFFCURVE",
"317.667 273.167 OFFCURVE",
"275 304.5 CURVE SMOOTH",
"236.448 332.812 OFFCURVE",
"197.509 367 OFFCURVE",
"162 367 CURVE SMOOTH",
"134 367 OFFCURVE",
"103.333 350.667 OFFCURVE",
"86 328 CURVE SMOOTH",
"-30 176 LINE",
"16.667 118.667 OFFCURVE",
"85.5 71.5 OFFCURVE",
"163.5 37.5 CURVE SMOOTH",
"241.5 3.5 OFFCURVE",
"328 -16 OFFCURVE",
"412 -16 CURVE SMOOTH",
"581.333 -16 OFFCURVE",
"718.333 44.833 OFFCURVE",
"813 141.5 CURVE SMOOTH",
"907.667 238.167 OFFCURVE",
"960 371.333 OFFCURVE",
"960 518 CURVE SMOOTH",
"960 620.667 OFFCURVE",
"927.5 692 OFFCURVE",
"877.5 744 CURVE SMOOTH",
"827.5 796 OFFCURVE",
"761.5 828.333 OFFCURVE",
"695.5 855 CURVE SMOOTH",
"642.767 876.306 OFFCURVE",
"557.039 906.246 OFFCURVE",
"514.5 929.5 CURVE SMOOTH",
"464.5 956.833 OFFCURVE",
"432 990.667 OFFCURVE",
"432 1044 CURVE SMOOTH",
"432 1146.269 OFFCURVE",
"498.695 1215 OFFCURVE",
"616 1215 CURVE SMOOTH",
"682.667 1215 OFFCURVE",
"730.5 1191 OFFCURVE",
"768.5 1167 CURVE SMOOTH",
"801.619 1146.083 OFFCURVE",
"837.707 1119 OFFCURVE",
"866 1119 CURVE SMOOTH",
"898 1119 OFFCURVE",
"919.333 1133 OFFCURVE",
"942 1165 CURVE SMOOTH"
);
}
);
userData = {
assembly = "NPUSHB[ ]\011/* 14 values pushed */
59 57 42 40 37 35 28 26 9 7 4 2 6 7 
CALL[ ]\011/* CallFunction */
MPPEM[ ]\011/* MeasurePixelPerEm */
PUSHB[ ]\011/* 1 value pushed */
94 
LT[ ]\011/* LessThan */
IF[ ]\011/* If */
NPUSHB[ ]\011/* 51 values pushed */
63 1 1 5 32 1 2 4 2 30 0 0 1 3 1 0 3 50 0 3 4 1 3 4 48 0 1 1 5 1 0 36 0 5 5 17 31 0 4 4 2 1 0 36 0 2 2 18 2 32 7 
ELSE[ ]\011/* Else */
NPUSHB[ ]\011/* 58 values pushed */
63 1 1 5 32 1 2 4 2 30 0 0 1 3 1 0 3 50 0 3 4 1 3 4 48 0 5 0 1 0 5 1 1 0 38 0 4 2 2 4 1 0 35 0 4 4 2 1 0 36 0 2 4 2 1 0 33 7 
EIF[ ]\011/* EndIf */
PUSHB[ ]\011/* 1 value pushed */
56 
CALL[ ]\011/* CallFunction */";
};
width = 1000;
}
);
note = S;
unicode = 0053;
},
{
glyphname = T;
layers = (
{
layerId = "10974C74-6ED2-4F66-BD25-910E45086E66";
paths = (
{
closed = 1;
nodes = (
"136 1457 LINE",
"104 1199 LINE",
"476 1199 LINE",
"330 0 LINE",
"654 0 LINE",
"802 1199 LINE",
"1172 1199 LINE",
"1206 1457 LINE"
);
}
);
userData = {
assembly = "NPUSHB[ ]\011/* 14 values pushed */
0 0 0 7 0 7 6 5 4 3 2 1 5 7 
CALL[ ]\011/* CallFunction */
MPPEM[ ]\011/* MeasurePixelPerEm */
PUSHB[ ]\011/* 1 value pushed */
94 
LT[ ]\011/* LessThan */
IF[ ]\011/* If */
NPUSHB[ ]\011/* 21 values pushed */
2 1 0 0 3 0 0 36 4 1 3 3 11 31 0 1 1 12 1 32 3 
ELSE[ ]\011/* Else */
MPPEM[ ]\011/* MeasurePixelPerEm */
PUSHB[ ]\011/* 1 value pushed */
232 
LT[ ]\011/* LessThan */
IF[ ]\011/* If */
NPUSHB[ ]\011/* 31 values pushed */
0 1 0 1 53 4 1 3 0 0 3 0 0 35 4 1 3 3 0 0 0 36 2 1 0 3 0 0 0 33 4 
ELSE[ ]\011/* Else */
NPUSHB[ ]\011/* 37 values pushed */
0 2 3 0 0 2 42 0 1 0 1 53 4 1 3 2 0 3 0 2 35 4 1 3 3 0 0 0 36 0 0 3 0 0 0 33 5 
EIF[ ]\011/* EndIf */
EIF[ ]\011/* EndIf */
PUSHB[ ]\011/* 1 value pushed */
56 
CALL[ ]\011/* CallFunction */";
};
width = 1104;
}
);
note = T;
unicode = 0054;
},
{
glyphname = U;
layers = (
{
layerId = "10974C74-6ED2-4F66-BD25-910E45086E66";
paths = (
{
closed = 1;
nodes = (
"497.333 256 OFFCURVE",
"420 355.667 OFFCURVE",
"420 521 CURVE SMOOTH",
"420 543.667 OFFCURVE",
"421.333 567 OFFCURVE",
"424 591 CURVE SMOOTH",
"530 1457 LINE",
"204 1457 LINE",
"100 591 LINE SMOOTH",
"96 557.667 OFFCURVE",
"94 525.333 OFFCURVE",
"94 494 CURVE SMOOTH",
"94 343.333 OFFCURVE",
"140.167 215.5 OFFCURVE",
"227.5 125.5 CURVE SMOOTH",
"314.833 35.5 OFFCURVE",
"443.333 -16 OFFCURVE",
"606 -16 CURVE SMOOTH",
"786 -16 OFFCURVE",
"938.5 47.167 OFFCURVE",
"1052.5 154.5 CURVE SMOOTH",
"1166.5 261.833 OFFCURVE",
"1239.333 413.667 OFFCURVE",
"1262 591 CURVE SMOOTH",
"1368 1457 LINE",
"1042 1457 LINE",
"936 591 LINE SMOOTH",
"924 488.333 OFFCURVE",
"889.667 404.5 OFFCURVE",
"839 346.5 CURVE SMOOTH",
"788.333 288.5 OFFCURVE",
"721.333 256 OFFCURVE",
"640 256 CURVE SMOOTH"
);
}
);
userData = {
assembly = "NPUSHB[ ]\011/* 14 values pushed */
1 0 22 21 14 12 7 6 0 28 1 28 5 7 
CALL[ ]\011/* CallFunction */
MPPEM[ ]\011/* MeasurePixelPerEm */
PUSHB[ ]\011/* 1 value pushed */
94 
LT[ ]\011/* LessThan */
IF[ ]\011/* If */
NPUSHB[ ]\011/* 21 values pushed */
3 1 1 1 11 31 4 1 0 0 2 1 2 36 0 2 2 18 2 32 3 
ELSE[ ]\011/* Else */
MPPEM[ ]\011/* MeasurePixelPerEm */
PUSHB[ ]\011/* 1 value pushed */
232 
LT[ ]\011/* LessThan */
IF[ ]\011/* If */
NPUSHB[ ]\011/* 31 values pushed */
3 1 1 0 1 52 4 1 0 2 2 0 1 0 35 4 1 0 0 2 1 2 36 0 2 0 2 1 2 33 4 
ELSE[ ]\011/* Else */
NPUSHB[ ]\011/* 35 values pushed */
0 1 3 1 52 0 3 0 3 52 4 1 0 2 2 0 1 0 35 4 1 0 0 2 1 2 36 0 2 0 2 1 2 33 5 
EIF[ ]\011/* EndIf */
EIF[ ]\011/* EndIf */
PUSHB[ ]\011/* 1 value pushed */
56 
CALL[ ]\011/* CallFunction */";
};
width = 1334;
}
);
note = U;
unicode = 0055;
},
{
glyphname = V;
layers = (
{
layerId = "10974C74-6ED2-4F66-BD25-910E45086E66";
paths = (
{
closed = 1;
nodes = (
"476 0 LINE",
"772 0 LINE",
"1488 1457 LINE",
"1224 1457 LINE SMOOTH",
"1171.997 1457 OFFCURVE",
"1125.422 1423.748 OFFCURVE",
"1108 1386 CURVE SMOOTH",
"768 583 LINE SMOOTH",
"754 549 OFFCURVE",
"738 511.833 OFFCURVE",
"720 471.5 CURVE SMOOTH",
"702 431.167 OFFCURVE",
"686 390 OFFCURVE",
"672 348 CURVE",
"666.667 390 OFFCURVE",
"659.833 431.5 OFFCURVE",
"651.5 472.5 CURVE SMOOTH",
"643.167 513.5 OFFCURVE",
"636 550.333 OFFCURVE",
"630 583 CURVE SMOOTH",
"478 1386 LINE SMOOTH",
"470 1427.333 OFFCURVE",
"436 1457 OFFCURVE",
"380 1457 CURVE SMOOTH",
"118 1457 LINE"
);
}
);
userData = {
assembly = "NPUSHB[ ]\011/* 8 values pushed */
20 19 18 16 2 0 3 7 
CALL[ ]\011/* CallFunction */
MPPEM[ ]\011/* MeasurePixelPerEm */
PUSHB[ ]\011/* 1 value pushed */
94 
LT[ ]\011/* LessThan */
IF[ ]\011/* If */
NPUSHB[ ]\011/* 19 values pushed */
8 1 2 0 1 30 1 1 0 0 11 31 0 2 2 12 2 32 3 
ELSE[ ]\011/* Else */
MPPEM[ ]\011/* MeasurePixelPerEm */
PUSHB[ ]\011/* 1 value pushed */
232 
LT[ ]\011/* LessThan */
IF[ ]\011/* If */
NPUSHB[ ]\011/* 17 values pushed */
8 1 2 0 1 30 1 1 0 2 0 52 0 2 2 43 3 
ELSE[ ]\011/* Else */
NPUSHB[ ]\011/* 21 values pushed */
8 1 2 1 1 30 0 0 1 0 52 0 1 2 1 52 0 2 2 43 4 
EIF[ ]\011/* EndIf */
EIF[ ]\011/* EndIf */
PUSHB[ ]\011/* 1 value pushed */
56 
CALL[ ]\011/* CallFunction */";
};
width = 1368;
}
);
note = V;
unicode = 0056;
},
{
glyphname = W;
layers = (
{
layerId = "10974C74-6ED2-4F66-BD25-910E45086E66";
paths = (
{
closed = 1;
nodes = (
"364 0 LINE",
"658 0 LINE",
"1014 920 LINE SMOOTH",
"1019.333 934.667 OFFCURVE",
"1025.5 950.833 OFFCURVE",
"1032.5 968.5 CURVE SMOOTH",
"1039.5 986.167 OFFCURVE",
"1046.667 1004.667 OFFCURVE",
"1054 1024 CURVE",
"1056 1004.667 OFFCURVE",
"1058.333 986.167 OFFCURVE",
"1061 968.5 CURVE SMOOTH",
"1063.667 950.833 OFFCURVE",
"1066 934.667 OFFCURVE",
"1068 920 CURVE SMOOTH",
"1202 0 LINE",
"1498 0 LINE",
"2092 1457 LINE",
"1834 1457 LINE SMOOTH",
"1779.333 1457 OFFCURVE",
"1731.333 1423.333 OFFCURVE",
"1718 1386 CURVE SMOOTH",
"1430 601 LINE SMOOTH",
"1412.667 553 OFFCURVE",
"1395.333 498 OFFCURVE",
"1378 438 CURVE",
"1372.667 498 OFFCURVE",
"1364.667 554.333 OFFCURVE",
"1358 601 CURVE SMOOTH",
"1246 1386 LINE SMOOTH",
"1239.333 1428.667 OFFCURVE",
"1202 1457 OFFCURVE",
"1146 1457 CURVE SMOOTH",
"1070 1457 LINE SMOOTH",
"1015.333 1457 OFFCURVE",
"970.667 1422 OFFCURVE",
"956 1386 CURVE SMOOTH",
"658 601 LINE SMOOTH",
"648.667 576.333 OFFCURVE",
"638.5 550.167 OFFCURVE",
"627.5 522.5 CURVE SMOOTH",
"616.5 494.833 OFFCURVE",
"606 465.333 OFFCURVE",
"596 434 CURVE",
"596 452 OFFCURVE",
"595.333 470.667 OFFCURVE",
"594 490 CURVE SMOOTH",
"592.667 506 OFFCURVE",
"591.333 523.833 OFFCURVE",
"590 543.5 CURVE SMOOTH",
"588.667 563.167 OFFCURVE",
"586.667 582.333 OFFCURVE",
"584 601 CURVE SMOOTH",
"482 1386 LINE SMOOTH",
"475.333 1428.667 OFFCURVE",
"440 1457 OFFCURVE",
"384 1457 CURVE SMOOTH",
"128 1457 LINE"
);
}
);
userData = {
assembly = "NPUSHB[ ]\011/* 12 values pushed */
44 43 35 34 33 31 19 16 2 0 5 7 
CALL[ ]\011/* CallFunction */
MPPEM[ ]\011/* MeasurePixelPerEm */
PUSHB[ ]\011/* 1 value pushed */
94 
LT[ ]\011/* LessThan */
IF[ ]\011/* If */
NPUSHB[ ]\011/* 24 values pushed */
39 25 10 8 4 3 0 1 30 2 1 2 0 0 11 31 4 1 3 3 12 3 32 3 
ELSE[ ]\011/* Else */
MPPEM[ ]\011/* MeasurePixelPerEm */
PUSHB[ ]\011/* 1 value pushed */
232 
LT[ ]\011/* LessThan */
IF[ ]\011/* If */
NPUSHB[ ]\011/* 37 values pushed */
39 25 10 8 4 3 0 1 30 2 1 2 0 3 3 0 1 0 35 2 1 2 0 0 3 0 0 36 4 1 3 0 3 0 0 33 4 
ELSE[ ]\011/* Else */
NPUSHB[ ]\011/* 52 values pushed */
39 25 10 8 4 4 2 1 30 0 1 0 2 0 1 2 50 0 2 4 0 2 4 48 0 3 4 3 53 0 0 1 4 0 1 0 35 0 0 0 4 0 0 36 0 4 0 4 0 0 33 7 
EIF[ ]\011/* EndIf */
EIF[ ]\011/* EndIf */
PUSHB[ ]\011/* 1 value pushed */
56 
CALL[ ]\011/* CallFunction */";
};
width = 1980;
}
);
note = W;
unicode = 0057;
},
{
glyphname = X;
layers = (
{
layerId = "10974C74-6ED2-4F66-BD25-910E45086E66";
paths = (
{
closed = 1;
nodes = (
"-76 0 LINE",
"250 0 LINE SMOOTH",
"288.667 0 OFFCURVE",
"322.667 13.333 OFFCURVE",
"348 52 CURVE SMOOTH",
"670 562 LINE SMOOTH",
"672.667 566 OFFCURVE",
"675.5 570 OFFCURVE",
"678.5 574 CURVE SMOOTH",
"681.5 578 OFFCURVE",
"684.333 582.333 OFFCURVE",
"687 587 CURVE",
"902 52 LINE SMOOTH",
"912.667 25.333 OFFCURVE",
"935.333 0 OFFCURVE",
"978 0 CURVE SMOOTH",
"1270 0 LINE",
"919 793 LINE",
"1404 1457 LINE",
"1062 1457 LINE SMOOTH",
"1031.333 1457 OFFCURVE",
"1010.667 1445.667 OFFCURVE",
"992 1415 CURVE SMOOTH",
"736 999 LINE SMOOTH",
"731.333 991.667 OFFCURVE",
"727 985 OFFCURVE",
"723 979 CURVE SMOOTH",
"719 973 OFFCURVE",
"715.333 966.667 OFFCURVE",
"712 960 CURVE",
"520 1420 LINE SMOOTH",
"508 1446.667 OFFCURVE",
"494.667 1457 OFFCURVE",
"452 1457 CURVE SMOOTH",
"156 1457 LINE",
"472 777 LINE"
);
}
);
userData = {
assembly = "NPUSHB[ ]\011/* 10 values pushed */
29 27 18 16 14 12 3 1 4 7 
CALL[ ]\011/* CallFunction */
MPPEM[ ]\011/* MeasurePixelPerEm */
PUSHB[ ]\011/* 1 value pushed */
94 
LT[ ]\011/* LessThan */
IF[ ]\011/* If */
NPUSHB[ ]\011/* 21 values pushed */
15 0 2 2 0 1 30 1 1 0 0 11 31 3 1 2 2 12 2 32 3 
ELSE[ ]\011/* Else */
MPPEM[ ]\011/* MeasurePixelPerEm */
PUSHB[ ]\011/* 1 value pushed */
232 
LT[ ]\011/* LessThan */
IF[ ]\011/* If */
NPUSHB[ ]\011/* 33 values pushed */
15 0 2 2 0 1 30 1 1 0 2 2 0 1 0 35 1 1 0 0 2 1 0 36 3 1 2 0 2 1 0 33 4 
ELSE[ ]\011/* Else */
NPUSHB[ ]\011/* 40 values pushed */
15 0 2 3 1 1 30 0 1 3 2 1 1 0 35 0 0 0 3 2 0 3 1 0 38 0 1 1 2 1 0 36 0 2 1 2 1 0 33 5 
EIF[ ]\011/* EndIf */
EIF[ ]\011/* EndIf */
PUSHB[ ]\011/* 1 value pushed */
56 
CALL[ ]\011/* CallFunction */";
};
width = 1324;
}
);
note = X;
unicode = 0058;
},
{
glyphname = Y;
layers = (
{
layerId = "10974C74-6ED2-4F66-BD25-910E45086E66";
paths = (
{
closed = 1;
nodes = (
"1396 1457 LINE",
"1126 1457 LINE SMOOTH",
"1071.333 1457 OFFCURVE",
"1032 1422 OFFCURVE",
"1012 1386 CURVE SMOOTH",
"764 945 LINE SMOOTH",
"729.333 885 OFFCURVE",
"698.333 831.667 OFFCURVE",
"673 781 CURVE",
"662.333 831.667 OFFCURVE",
"646.667 886.333 OFFCURVE",
"628 945 CURVE SMOOTH",
"488 1386 LINE SMOOTH",
"473.333 1428.667 OFFCURVE",
"444 1457 OFFCURVE",
"388 1457 CURVE SMOOTH",
"98 1457 LINE",
"473 555 LINE",
"404 0 LINE",
"730 0 LINE",
"799 558 LINE"
);
}
);
userData = {
assembly = "NPUSHB[ ]\011/* 8 values pushed */
20 18 6 4 2 1 3 7 
CALL[ ]\011/* CallFunction */
MPPEM[ ]\011/* MeasurePixelPerEm */
PUSHB[ ]\011/* 1 value pushed */
94 
LT[ ]\011/* LessThan */
IF[ ]\011/* If */
NPUSHB[ ]\011/* 20 values pushed */
12 3 2 0 1 1 30 2 1 1 1 11 31 0 0 0 12 0 32 3 
ELSE[ ]\011/* Else */
MPPEM[ ]\011/* MeasurePixelPerEm */
PUSHB[ ]\011/* 1 value pushed */
232 
LT[ ]\011/* LessThan */
IF[ ]\011/* If */
NPUSHB[ ]\011/* 32 values pushed */
12 3 2 0 1 1 30 2 1 1 0 0 1 1 0 35 2 1 1 1 0 0 0 36 0 0 1 0 0 0 33 4 
ELSE[ ]\011/* Else */
NPUSHB[ ]\011/* 38 values pushed */
12 3 2 0 2 1 30 0 2 1 0 1 2 0 50 0 1 2 0 1 1 0 35 0 1 1 0 0 0 36 0 0 1 0 0 0 33 5 
EIF[ ]\011/* EndIf */
EIF[ ]\011/* EndIf */
PUSHB[ ]\011/* 1 value pushed */
56 
CALL[ ]\011/* CallFunction */";
};
width = 1256;
}
);
note = Y;
unicode = 0059;
},
{
glyphname = Z;
layers = (
{
layerId = "10974C74-6ED2-4F66-BD25-910E45086E66";
paths = (
{
closed = 1;
nodes = (
"204 1457 LINE",
"172 1206 LINE",
"755 1206 LINE",
"18 169 LINE SMOOTH",
"2 146.333 OFFCURVE",
"-12 122.667 OFFCURVE",
"-16 96 CURVE SMOOTH",
"-28 0 LINE",
"1012 0 LINE",
"1044 251 LINE",
"428 251 LINE",
"1164 1286 LINE SMOOTH",
"1180 1308.667 OFFCURVE",
"1194 1332.333 OFFCURVE",
"1198 1359 CURVE SMOOTH",
"1212 1457 LINE"
);
}
);
userData = {
assembly = "NPUSHB[ ]\011/* 14 values pushed */
0 0 0 15 0 15 14 13 8 7 6 5 5 7 
CALL[ ]\011/* CallFunction */
MPPEM[ ]\011/* MeasurePixelPerEm */
PUSHB[ ]\011/* 1 value pushed */
94 
LT[ ]\011/* LessThan */
IF[ ]\011/* If */
NPUSHB[ ]\011/* 27 values pushed */
0 2 2 3 0 0 36 4 1 3 3 11 31 0 0 0 1 0 0 36 0 1 1 12 1 32 4 
ELSE[ ]\011/* Else */
NPUSHB[ ]\011/* 34 values pushed */
4 1 3 0 2 0 3 2 0 0 38 0 0 1 1 0 0 0 35 0 0 0 1 0 0 36 0 1 0 1 0 0 33 4 
EIF[ ]\011/* EndIf */
PUSHB[ ]\011/* 1 value pushed */
56 
CALL[ ]\011/* CallFunction */";
};
width = 1120;
}
);
note = Z;
unicode = 005A;
},
{
glyphname = a;
layers = (
{
layerId = "10974C74-6ED2-4F66-BD25-910E45086E66";
paths = (
{
closed = 1;
nodes = (
"1023 1007 LINE",
"924.333 1041.667 OFFCURVE",
"821.667 1053 OFFCURVE",
"723 1053 CURVE SMOOTH",
"520.333 1053 OFFCURVE",
"347.833 972.667 OFFCURVE",
"224.5 846 CURVE SMOOTH",
"101.167 719.333 OFFCURVE",
"29 545 OFFCURVE",
"29 357 CURVE SMOOTH",
"29 229 OFFCURVE",
"63.667 135.167 OFFCURVE",
"117 74.5 CURVE SMOOTH",
"170.333 13.833 OFFCURVE",
"242.333 -16 OFFCURVE",
"317 -16 CURVE SMOOTH",
"442.333 -16 OFFCURVE",
"545.667 54.667 OFFCURVE",
"631 172 CURVE",
"631 98 LINE SMOOTH",
"631 37.491 OFFCURVE",
"657.213 0 OFFCURVE",
"731 0 CURVE SMOOTH",
"897 0 LINE"
);
},
{
closed = 1;
nodes = (
"373.748 229 OFFCURVE",
"339 295.924 OFFCURVE",
"339 412 CURVE SMOOTH",
"339 529.333 OFFCURVE",
"373 635.5 OFFCURVE",
"433 713.5 CURVE SMOOTH",
"493 791.5 OFFCURVE",
"577.667 840 OFFCURVE",
"679 840 CURVE SMOOTH",
"697 840 LINE",
"661 553 LINE",
"638.333 463.667 OFFCURVE",
"605.5 382.667 OFFCURVE",
"567.5 324 CURVE SMOOTH",
"529.5 265.333 OFFCURVE",
"486.333 229 OFFCURVE",
"441 229 CURVE SMOOTH"
);
}
);
userData = {
assembly = "NPUSHB[ ]\011/* 16 values pushed */
25 24 32 30 24 40 25 40 21 19 11 9 2 0 6 7 
CALL[ ]\011/* CallFunction */
MPPEM[ ]\011/* MeasurePixelPerEm */
PUSHB[ ]\011/* 1 value pushed */
30 
LT[ ]\011/* LessThan */
IF[ ]\011/* If */
NPUSHB[ ]\011/* 39 values pushed */
23 1 4 2 7 1 0 3 2 30 5 1 3 4 0 4 3 0 50 0 4 4 2 1 0 36 0 2 2 20 31 1 1 0 0 12 0 32 5 
ELSE[ ]\011/* Else */
MPPEM[ ]\011/* MeasurePixelPerEm */
PUSHB[ ]\011/* 1 value pushed */
94 
LT[ ]\011/* LessThan */
IF[ ]\011/* If */
NPUSHB[ ]\011/* 43 values pushed */
23 1 4 2 7 1 0 3 2 30 5 1 3 4 0 4 3 0 50 0 4 4 2 1 0 36 0 2 2 20 31 0 0 0 12 31 0 1 1 18 1 32 6 
ELSE[ ]\011/* Else */
MPPEM[ ]\011/* MeasurePixelPerEm */
PUSHB[ ]\011/* 1 value pushed */
108 
LT[ ]\011/* LessThan */
IF[ ]\011/* If */
NPUSHB[ ]\011/* 44 values pushed */
23 1 4 2 7 1 0 3 2 30 5 1 3 4 0 4 3 0 50 0 0 1 4 0 1 48 0 1 1 51 0 4 4 2 1 0 36 0 2 2 20 4 32 6 
ELSE[ ]\011/* Else */
NPUSHB[ ]\011/* 53 values pushed */
23 1 4 2 7 1 0 3 2 30 5 1 3 4 0 4 3 0 50 0 0 1 4 0 1 48 0 1 1 51 0 2 4 4 2 1 0 35 0 2 2 4 1 0 36 0 4 2 4 1 0 33 7 
EIF[ ]\011/* EndIf */
EIF[ ]\011/* EndIf */
EIF[ ]\011/* EndIf */
PUSHB[ ]\011/* 1 value pushed */
56 
CALL[ ]\011/* CallFunction */";
};
width = 1058;
}
);
note = a;
unicode = 0061;
},
{
glyphname = aogonek;
layers = (
{
layerId = "10974C74-6ED2-4F66-BD25-910E45086E66";
paths = (
{
closed = 1;
nodes = (
"853 -171 OFFCURVE",
"847.333 -172.5 OFFCURVE",
"842 -175.5 CURVE SMOOTH",
"836.667 -178.5 OFFCURVE",
"825 -180 OFFCURVE",
"807 -180 CURVE SMOOTH",
"780.333 -180 OFFCURVE",
"767 -160.667 OFFCURVE",
"767 -134 CURVE SMOOTH",
"767 -76.667 OFFCURVE",
"811 -30.667 OFFCURVE",
"867 0 CURVE",
"897 0 LINE",
"1023 1007 LINE",
"924.333 1041.667 OFFCURVE",
"821.667 1053 OFFCURVE",
"723 1053 CURVE SMOOTH",
"520.333 1053 OFFCURVE",
"347.833 972.667 OFFCURVE",
"224.5 846 CURVE SMOOTH",
"101.167 719.333 OFFCURVE",
"29 545 OFFCURVE",
"29 357 CURVE SMOOTH",
"29 229 OFFCURVE",
"63.667 135.167 OFFCURVE",
"117 74.5 CURVE SMOOTH",
"170.333 13.833 OFFCURVE",
"242.333 -16 OFFCURVE",
"317 -16 CURVE SMOOTH",
"442.333 -16 OFFCURVE",
"545.667 54.667 OFFCURVE",
"631 172 CURVE",
"631 98 LINE SMOOTH",
"631 51.333 OFFCURVE",
"646 13.667 OFFCURVE",
"698 3 CURVE",
"583.333 -62.333 OFFCURVE",
"537 -138 OFFCURVE",
"537 -214 CURVE SMOOTH",
"537 -290 OFFCURVE",
"597.667 -347 OFFCURVE",
"723 -347 CURVE SMOOTH",
"795 -347 OFFCURVE",
"866.333 -325 OFFCURVE",
"913 -297 CURVE",
"883 -190 LINE",
"881 -177.333 OFFCURVE",
"873 -171 OFFCURVE",
"859 -171 CURVE SMOOTH"
);
},
{
closed = 1;
nodes = (
"373.748 229 OFFCURVE",
"339 295.924 OFFCURVE",
"339 412 CURVE SMOOTH",
"339 529.333 OFFCURVE",
"373 635.5 OFFCURVE",
"433 713.5 CURVE SMOOTH",
"493 791.5 OFFCURVE",
"577.667 840 OFFCURVE",
"679 840 CURVE SMOOTH",
"697 840 LINE",
"661 553 LINE",
"638.333 463.667 OFFCURVE",
"605.5 382.667 OFFCURVE",
"567.5 324 CURVE SMOOTH",
"529.5 265.333 OFFCURVE",
"486.333 229 OFFCURVE",
"441 229 CURVE SMOOTH"
);
}
);
userData = {
assembly = "NPUSHB[ ]\011/* 26 values pushed */
44 43 1 0 51 49 43 59 44 59 41 39 34 33 30 28 20 18 7 5 0 42 1 42 10 7 
CALL[ ]\011/* CallFunction */
MPPEM[ ]\011/* MeasurePixelPerEm */
PUSHB[ ]\011/* 1 value pushed */
30 
LT[ ]\011/* LessThan */
IF[ ]\011/* If */
NPUSHB[ ]\011/* 59 values pushed */
32 1 7 3 16 12 2 2 6 3 1 1 0 3 30 9 1 6 7 2 7 6 2 50 5 8 2 0 2 1 2 0 1 50 0 7 7 3 1 0 36 0 3 3 20 31 4 1 2 2 18 31 0 1 1 16 1 32 7 
ELSE[ ]\011/* Else */
MPPEM[ ]\011/* MeasurePixelPerEm */
PUSHB[ ]\011/* 1 value pushed */
53 
LT[ ]\011/* LessThan */
IF[ ]\011/* If */
NPUSHB[ ]\011/* 63 values pushed */
32 1 7 3 16 12 2 4 6 3 1 1 0 3 30 9 1 6 7 4 7 6 4 50 5 8 2 0 2 1 2 0 1 50 0 7 7 3 1 0 36 0 3 3 20 31 0 4 4 12 31 0 2 2 18 31 0 1 1 16 1 32 8 
ELSE[ ]\011/* Else */
MPPEM[ ]\011/* MeasurePixelPerEm */
PUSHB[ ]\011/* 1 value pushed */
54 
LT[ ]\011/* LessThan */
IF[ ]\011/* If */
NPUSHB[ ]\011/* 69 values pushed */
32 1 7 3 16 12 2 4 6 3 1 1 5 3 30 9 1 6 7 4 7 6 4 50 8 1 0 2 5 2 0 5 50 0 5 1 2 5 1 48 0 7 7 3 1 0 36 0 3 3 20 31 0 4 4 12 31 0 2 2 18 31 0 1 1 16 1 32 9 
ELSE[ ]\011/* Else */
MPPEM[ ]\011/* MeasurePixelPerEm */
PUSHB[ ]\011/* 1 value pushed */
94 
LT[ ]\011/* LessThan */
IF[ ]\011/* If */
NPUSHB[ ]\011/* 68 values pushed */
32 1 7 3 16 12 2 4 6 3 1 1 5 3 30 9 1 6 7 4 7 6 4 50 8 1 0 2 5 2 0 5 50 0 5 1 2 5 1 48 0 1 1 51 0 7 7 3 1 0 36 0 3 3 20 31 0 4 4 12 31 0 2 2 18 2 32 9 
ELSE[ ]\011/* Else */
MPPEM[ ]\011/* MeasurePixelPerEm */
PUSHB[ ]\011/* 1 value pushed */
108 
LT[ ]\011/* LessThan */
IF[ ]\011/* If */
NPUSHB[ ]\011/* 71 values pushed */
32 1 7 3 16 12 2 4 6 3 1 1 5 3 30 9 1 6 7 4 7 6 4 50 0 4 2 7 4 2 48 0 2 0 7 2 0 48 8 1 0 5 7 0 5 48 0 5 1 7 5 1 48 0 1 1 51 0 7 7 3 1 0 36 0 3 3 20 7 32 9 
ELSE[ ]\011/* Else */
NPUSHB[ ]\011/* 80 values pushed */
32 1 7 3 16 12 2 4 6 3 1 1 5 3 30 9 1 6 7 4 7 6 4 50 0 4 2 7 4 2 48 0 2 0 7 2 0 48 8 1 0 5 7 0 5 48 0 5 1 7 5 1 48 0 1 1 51 0 3 7 7 3 1 0 35 0 3 3 7 1 0 36 0 7 3 7 1 0 33 10 
EIF[ ]\011/* EndIf */
EIF[ ]\011/* EndIf */
EIF[ ]\011/* EndIf */
EIF[ ]\011/* EndIf */
EIF[ ]\011/* EndIf */
PUSHB[ ]\011/* 1 value pushed */
56 
CALL[ ]\011/* CallFunction */";
};
width = 1072;
}
);
note = aogonek;
unicode = 0105;
},
{
glyphname = ae;
layers = (
{
layerId = "10974C74-6ED2-4F66-BD25-910E45086E66";
paths = (
{
closed = 1;
nodes = (
"987.333 1051 OFFCURVE",
"879 1002 OFFCURVE",
"795 918 CURVE",
"752.333 1003.333 OFFCURVE",
"669.333 1055 OFFCURVE",
"532 1055 CURVE SMOOTH",
"381.333 1055 OFFCURVE",
"251.333 1001.333 OFFCURVE",
"122 892 CURVE",
"164 798 LINE SMOOTH",
"177.333 768.667 OFFCURVE",
"204 746 OFFCURVE",
"244 746 CURVE SMOOTH",
"334.653 746 OFFCURVE",
"380.703 825 OFFCURVE",
"498 825 CURVE SMOOTH",
"567.333 825 OFFCURVE",
"607 785 OFFCURVE",
"607 693 CURVE SMOOTH",
"607 685.667 OFFCURVE",
"606.667 677.333 OFFCURVE",
"606 668 CURVE SMOOTH",
"605.333 658.667 OFFCURVE",
"603.333 643.333 OFFCURVE",
"600 622 CURVE",
"520.667 620 OFFCURVE",
"450.833 613 OFFCURVE",
"390.5 601 CURVE SMOOTH",
"269.833 577 OFFCURVE",
"182 538.5 OFFCURVE",
"122 488.5 CURVE SMOOTH",
"92 463.5 OFFCURVE",
"68 437.167 OFFCURVE",
"50 409.5 CURVE SMOOTH",
"14 354.167 OFFCURVE",
"0 293 OFFCURVE",
"0 237 CURVE SMOOTH",
"0 78.333 OFFCURVE",
"100 -16 OFFCURVE",
"316 -16 CURVE SMOOTH",
"453.202 -16 OFFCURVE",
"590.823 42.905 OFFCURVE",
"681 164 CURVE",
"749 40 OFFCURVE",
"861.333 -16 OFFCURVE",
"984 -16 CURVE SMOOTH",
"1082.667 -16 OFFCURVE",
"1164.5 -0.5 OFFCURVE",
"1238.5 33.5 CURVE SMOOTH",
"1312.5 67.5 OFFCURVE",
"1380.667 120 OFFCURVE",
"1454 192 CURVE",
"1374 285 LINE SMOOTH",
"1359.333 301 OFFCURVE",
"1340 312 OFFCURVE",
"1320 312 CURVE SMOOTH",
"1276.431 312 OFFCURVE",
"1245.295 287.53 OFFCURVE",
"1210 264 CURVE SMOOTH",
"1169.104 236.736 OFFCURVE",
"1119.456 216 OFFCURVE",
"1046 216 CURVE SMOOTH",
"932.667 216 OFFCURVE",
"868 282.333 OFFCURVE",
"864 441 CURVE",
"944.667 443.667 OFFCURVE",
"1015 450.5 OFFCURVE",
"1075 461.5 CURVE SMOOTH",
"1195 483.5 OFFCURVE",
"1280.333 517.5 OFFCURVE",
"1335 559.5 CURVE SMOOTH",
"1362.333 580.5 OFFCURVE",
"1384 602.833 OFFCURVE",
"1400 626.5 CURVE SMOOTH",
"1432 673.833 OFFCURVE",
"1442 725 OFFCURVE",
"1442 773 CURVE SMOOTH",
"1442 849 OFFCURVE",
"1407.5 918.333 OFFCURVE",
"1349.5 969 CURVE SMOOTH",
"1291.5 1019.667 OFFCURVE",
"1211.333 1051 OFFCURVE",
"1122 1051 CURVE SMOOTH"
);
},
{
closed = 1;
nodes = (
"576 425 LINE SMOOTH",
"556.632 262.791 OFFCURVE",
"486.012 181 OFFCURVE",
"374 181 CURVE SMOOTH",
"316.667 181 OFFCURVE",
"288 211.667 OFFCURVE",
"288 273 CURVE SMOOTH",
"288 315.667 OFFCURVE",
"300.5 356.333 OFFCURVE",
"342.5 387 CURVE SMOOTH",
"384.5 417.667 OFFCURVE",
"456.667 439.333 OFFCURVE",
"578 446 CURVE"
);
},
{
closed = 1;
nodes = (
"1148.667 844 OFFCURVE",
"1172 804.667 OFFCURVE",
"1172 758 CURVE SMOOTH",
"1172 726 OFFCURVE",
"1161.5 695.333 OFFCURVE",
"1119.5 670 CURVE SMOOTH",
"1077.5 644.667 OFFCURVE",
"1003 623 OFFCURVE",
"875 611 CURVE",
"898.274 748.056 OFFCURVE",
"962.468 844 OFFCURVE",
"1082 844 CURVE SMOOTH"
);
}
);
userData = {
assembly = "NPUSHB[ ]\011/* 36 values pushed */
87 86 1 0 86 98 87 98 81 79 74 73 68 66 61 59 56 54 49 48 40 38 32 30 23 21 16 14 12 11 0 72 1 72 15 7 
CALL[ ]\011/* CallFunction */
MPPEM[ ]\011/* MeasurePixelPerEm */
PUSHB[ ]\011/* 1 value pushed */
15 
LT[ ]\011/* LessThan */
IF[ ]\011/* If */
NPUSHB[ ]\011/* 75 values pushed */
70 64 2 7 0 91 1 1 6 34 26 2 4 2 3 30 0 8 7 6 7 8 6 50 0 3 1 2 1 3 2 50 0 6 10 1 1 3 6 1 1 0 38 14 12 2 7 7 0 1 0 36 9 13 2 0 0 20 31 11 1 2 2 4 1 0 36 5 1 4 4 18 4 32 8 
ELSE[ ]\011/* Else */
MPPEM[ ]\011/* MeasurePixelPerEm */
PUSHB[ ]\011/* 1 value pushed */
26 
LT[ ]\011/* LessThan */
IF[ ]\011/* If */
NPUSHB[ ]\011/* 90 values pushed */
70 64 2 7 0 91 1 1 6 26 1 11 2 34 1 4 11 4 30 0 8 7 6 7 8 6 50 0 3 1 2 1 3 2 50 0 6 10 1 1 3 6 1 1 0 38 14 12 2 7 7 0 1 0 36 9 13 2 0 0 20 31 0 2 2 4 1 0 36 5 1 4 4 18 31 0 11 11 4 1 0 36 5 1 4 4 18 4 32 10 
ELSE[ ]\011/* Else */
MPPEM[ ]\011/* MeasurePixelPerEm */
PUSHB[ ]\011/* 1 value pushed */
94 
LT[ ]\011/* LessThan */
IF[ ]\011/* If */
NPUSHB[ ]\011/* 103 values pushed */
70 64 2 12 0 91 1 1 6 26 1 11 2 34 1 4 11 4 30 0 8 7 6 7 8 6 50 0 3 1 2 1 3 2 50 0 6 10 1 1 3 6 1 1 0 38 14 1 12 12 0 1 0 36 9 13 2 0 0 20 31 0 7 7 0 1 0 36 9 13 2 0 0 20 31 0 2 2 4 1 0 36 5 1 4 4 18 31 0 11 11 4 1 0 36 5 1 4 4 18 4 32 12 
ELSE[ ]\011/* Else */
MPPEM[ ]\011/* MeasurePixelPerEm */
PUSHB[ ]\011/* 1 value pushed */
108 
LT[ ]\011/* LessThan */
IF[ ]\011/* If */
NPUSHB[ ]\011/* 95 values pushed */
70 64 2 12 0 91 1 1 6 26 1 11 2 34 1 4 11 4 30 0 8 7 6 7 8 6 50 0 3 1 2 1 3 2 50 0 6 10 1 1 3 6 1 1 0 38 0 2 11 4 2 1 0 35 0 11 5 1 4 11 4 1 0 37 14 1 12 12 0 1 0 36 9 13 2 0 0 20 31 0 7 7 0 1 0 36 9 13 2 0 0 20 7 32 10 
ELSE[ ]\011/* Else */
MPPEM[ ]\011/* MeasurePixelPerEm */
PUSHB[ ]\011/* 1 value pushed */
112 
LT[ ]\011/* LessThan */
IF[ ]\011/* If */
NPUSHB[ ]\011/* 99 values pushed */
70 64 2 12 0 91 1 1 6 26 1 11 2 34 1 4 11 4 30 0 8 7 6 7 8 6 50 0 3 1 2 1 3 2 50 14 1 12 7 0 12 1 0 35 9 13 2 0 0 7 8 0 7 1 0 38 0 6 10 1 1 3 6 1 1 0 38 0 2 11 4 2 1 0 35 0 11 4 4 11 1 0 35 0 11 11 4 1 0 36 5 1 4 11 4 1 0 33 10 
ELSE[ ]\011/* Else */
MPPEM[ ]\011/* MeasurePixelPerEm */
PUSHB[ ]\011/* 1 value pushed */
232 
LT[ ]\011/* LessThan */
IF[ ]\011/* If */
NPUSHB[ ]\011/* 100 values pushed */
70 64 2 12 0 91 1 1 6 26 1 11 2 34 1 4 11 4 30 0 8 7 6 7 8 6 50 0 3 1 2 1 3 2 50 13 1 0 14 1 12 7 0 12 1 0 38 0 9 0 7 8 9 7 1 0 38 0 6 10 1 1 3 6 1 1 0 38 0 2 11 4 2 1 0 35 0 11 4 4 11 1 0 35 0 11 11 4 1 0 36 5 1 4 11 4 1 0 33 10 
ELSE[ ]\011/* Else */
NPUSHB[ ]\011/* 107 values pushed */
70 64 2 12 0 91 1 10 6 26 1 11 2 34 1 5 11 4 30 0 8 7 6 7 8 6 50 0 1 10 3 10 1 3 50 0 3 2 10 3 2 48 13 1 0 14 1 12 7 0 12 1 0 38 0 9 0 7 8 9 7 1 0 38 0 6 0 10 1 6 10 1 0 38 0 2 11 4 2 1 0 35 0 11 0 5 4 11 5 1 0 38 0 2 2 4 1 0 36 0 4 2 4 1 0 33 11 
EIF[ ]\011/* EndIf */
EIF[ ]\011/* EndIf */
EIF[ ]\011/* EndIf */
EIF[ ]\011/* EndIf */
EIF[ ]\011/* EndIf */
EIF[ ]\011/* EndIf */
PUSHB[ ]\011/* 1 value pushed */
56 
CALL[ ]\011/* CallFunction */";
};
width = 1473;
}
);
note = ae;
unicode = 00E6;
},
{
glyphname = b;
layers = (
{
layerId = "10974C74-6ED2-4F66-BD25-910E45086E66";
paths = (
{
closed = 1;
nodes = (
"213 0 LINE SMOOTH",
"279.667 0 OFFCURVE",
"302.333 25 OFFCURVE",
"321 81 CURVE SMOOTH",
"324 91 LINE",
"378.667 27 OFFCURVE",
"456.333 -16 OFFCURVE",
"559 -16 CURVE SMOOTH",
"692.333 -16 OFFCURVE",
"818.667 62 OFFCURVE",
"912 186 CURVE SMOOTH",
"1005.333 310 OFFCURVE",
"1065 478.667 OFFCURVE",
"1065 660 CURVE SMOOTH",
"1065 797.333 OFFCURVE",
"1034.833 896 OFFCURVE",
"983.5 960 CURVE SMOOTH",
"932.167 1024 OFFCURVE",
"860.333 1053 OFFCURVE",
"775 1053 CURVE SMOOTH",
"653.667 1053 OFFCURVE",
"544 986 OFFCURVE",
"452 874 CURVE",
"529 1497 LINE",
"225 1497 LINE",
"43 0 LINE"
);
},
{
closed = 1;
nodes = (
"715 818 OFFCURVE",
"757 761 OFFCURVE",
"757 629 CURVE SMOOTH",
"757 525 OFFCURVE",
"731 420.5 OFFCURVE",
"687 342.5 CURVE SMOOTH",
"643 264.5 OFFCURVE",
"581 212 OFFCURVE",
"509 212 CURVE SMOOTH",
"465 212 OFFCURVE",
"413.667 224 OFFCURVE",
"375 256 CURVE",
"405 498 LINE",
"430.333 586 OFFCURVE",
"470 666.5 OFFCURVE",
"514 724.5 CURVE SMOOTH",
"558 782.5 OFFCURVE",
"607 818 OFFCURVE",
"651 818 CURVE SMOOTH"
);
}
);
userData = {
assembly = "NPUSHB[ ]\011/* 22 values pushed */
25 24 0 0 34 32 24 40 25 40 0 23 0 22 17 15 7 5 2 1 8 7 
CALL[ ]\011/* CallFunction */
MPPEM[ ]\011/* MeasurePixelPerEm */
PUSHB[ ]\011/* 1 value pushed */
30 
LT[ ]\011/* LessThan */
IF[ ]\011/* If */
NPUSHB[ ]\011/* 48 values pushed */
3 1 4 1 30 1 5 4 19 1 2 5 3 30 0 0 0 13 31 7 1 4 4 1 1 0 36 0 1 1 20 31 0 5 5 2 1 2 36 6 3 2 2 2 18 2 32 6 
ELSE[ ]\011/* Else */
MPPEM[ ]\011/* MeasurePixelPerEm */
PUSHB[ ]\011/* 1 value pushed */
94 
LT[ ]\011/* LessThan */
IF[ ]\011/* If */
NPUSHB[ ]\011/* 52 values pushed */
3 1 4 1 30 1 5 4 19 1 3 5 3 30 0 0 0 13 31 7 1 4 4 1 1 0 36 0 1 1 20 31 6 1 3 3 12 31 0 5 5 2 1 2 36 0 2 2 18 2 32 7 
ELSE[ ]\011/* Else */
MPPEM[ ]\011/* MeasurePixelPerEm */
PUSHB[ ]\011/* 1 value pushed */
108 
LT[ ]\011/* LessThan */
IF[ ]\011/* If */
NPUSHB[ ]\011/* 52 values pushed */
3 1 4 1 30 1 5 4 19 1 3 5 3 30 6 1 3 5 2 5 3 2 50 0 5 0 2 5 2 1 2 37 0 0 0 13 31 7 1 4 4 1 1 0 36 0 1 1 20 4 32 6 
ELSE[ ]\011/* Else */
MPPEM[ ]\011/* MeasurePixelPerEm */
PUSHB[ ]\011/* 1 value pushed */
252 
LT[ ]\011/* LessThan */
IF[ ]\011/* If */
NPUSHB[ ]\011/* 50 values pushed */
3 1 4 1 30 1 5 4 19 1 3 5 3 30 6 1 3 5 2 5 3 2 50 0 1 7 1 4 5 1 4 1 0 38 0 5 0 2 5 2 1 2 37 0 0 0 13 0 32 5 
ELSE[ ]\011/* Else */
NPUSHB[ ]\011/* 62 values pushed */
3 1 4 1 30 1 5 4 19 1 3 5 3 30 0 0 1 0 52 6 1 3 5 2 5 3 2 50 0 1 7 1 4 5 1 4 1 0 38 0 5 3 2 5 1 0 35 0 5 5 2 1 2 36 0 2 5 2 1 2 33 7 
EIF[ ]\011/* EndIf */
EIF[ ]\011/* EndIf */
EIF[ ]\011/* EndIf */
EIF[ ]\011/* EndIf */
PUSHB[ ]\011/* 1 value pushed */
56 
CALL[ ]\011/* CallFunction */";
};
width = 1100;
}
);
note = b;
unicode = 0062;
},
{
glyphname = c;
layers = (
{
layerId = "10974C74-6ED2-4F66-BD25-910E45086E66";
paths = (
{
closed = 1;
nodes = (
"855 182 LINE",
"775 276 LINE SMOOTH",
"761.667 292 OFFCURVE",
"741 302 OFFCURVE",
"721 302 CURVE SMOOTH",
"651.769 302 OFFCURVE",
"611.908 216 OFFCURVE",
"505 216 CURVE SMOOTH",
"411.41 216 OFFCURVE",
"351 295.413 OFFCURVE",
"351 422 CURVE SMOOTH",
"351 546 OFFCURVE",
"380.667 644.333 OFFCURVE",
"426 711 CURVE SMOOTH",
"471.333 777.667 OFFCURVE",
"531.667 814 OFFCURVE",
"593 814 CURVE SMOOTH",
"667.362 814 OFFCURVE",
"709.383 761 OFFCURVE",
"755 761 CURVE SMOOTH",
"777.667 761 OFFCURVE",
"796.333 774.333 OFFCURVE",
"811 789 CURVE",
"911 904 LINE",
"832.333 1005.333 OFFCURVE",
"737.667 1051 OFFCURVE",
"599 1051 CURVE SMOOTH",
"436.333 1051 OFFCURVE",
"297.833 978.667 OFFCURVE",
"198.5 864 CURVE SMOOTH",
"99.167 749.333 OFFCURVE",
"41 592.333 OFFCURVE",
"41 423 CURVE SMOOTH",
"41 288.333 OFFCURVE",
"79.833 179 OFFCURVE",
"148.5 103 CURVE SMOOTH",
"217.167 27 OFFCURVE",
"315.667 -16 OFFCURVE",
"437 -16 CURVE SMOOTH",
"526.333 -16 OFFCURVE",
"598.667 -2.667 OFFCURVE",
"664 28 CURVE SMOOTH",
"729.333 58.667 OFFCURVE",
"788.333 108.667 OFFCURVE",
"855 182 CURVE"
);
}
);
userData = {
assembly = "NPUSHB[ ]\011/* 14 values pushed */
43 41 38 36 28 26 23 21 16 14 6 4 6 7 
CALL[ ]\011/* CallFunction */
MPPEM[ ]\011/* MeasurePixelPerEm */
PUSHB[ ]\011/* 1 value pushed */
94 
LT[ ]\011/* LessThan */
IF[ ]\011/* If */
NPUSHB[ ]\011/* 47 values pushed */
18 1 3 1 1 30 0 2 3 5 3 2 5 50 0 5 4 3 5 4 48 0 3 3 1 1 0 36 0 1 1 20 31 0 4 4 0 1 0 36 0 0 0 18 0 32 7 
ELSE[ ]\011/* Else */
MPPEM[ ]\011/* MeasurePixelPerEm */
PUSHB[ ]\011/* 1 value pushed */
108 
LT[ ]\011/* LessThan */
IF[ ]\011/* If */
NPUSHB[ ]\011/* 44 values pushed */
18 1 3 1 1 30 0 2 3 5 3 2 5 50 0 5 4 3 5 4 48 0 4 0 0 4 0 1 0 37 0 3 3 1 1 0 36 0 1 1 20 3 32 6 
ELSE[ ]\011/* Else */
NPUSHB[ ]\011/* 54 values pushed */
18 1 3 1 1 30 0 2 3 5 3 2 5 50 0 5 4 3 5 4 48 0 1 0 3 2 1 3 1 0 38 0 4 0 0 4 1 0 35 0 4 4 0 1 0 36 0 0 4 0 1 0 33 7 
EIF[ ]\011/* EndIf */
EIF[ ]\011/* EndIf */
PUSHB[ ]\011/* 1 value pushed */
56 
CALL[ ]\011/* CallFunction */";
};
width = 876;
}
);
note = c;
unicode = 0063;
},
{
glyphname = ccedilla;
layers = (
{
layerId = "10974C74-6ED2-4F66-BD25-910E45086E66";
paths = (
{
closed = 1;
nodes = (
"274.333 -214 OFFCURVE",
"265.667 -224.333 OFFCURVE",
"259 -239 CURVE SMOOTH",
"219 -329 LINE",
"265.667 -342.333 OFFCURVE",
"304.333 -347 OFFCURVE",
"355 -347 CURVE SMOOTH",
"502.219 -347 OFFCURVE",
"627 -288.846 OFFCURVE",
"627 -178 CURVE SMOOTH",
"627 -123.333 OFFCURVE",
"595.667 -75 OFFCURVE",
"501 -47 CURVE",
"514 -12 LINE",
"653.75 1.701 OFFCURVE",
"747.986 62.246 OFFCURVE",
"855 182 CURVE",
"775 276 LINE SMOOTH",
"761.667 292 OFFCURVE",
"741 302 OFFCURVE",
"721 302 CURVE SMOOTH",
"651.769 302 OFFCURVE",
"611.908 216 OFFCURVE",
"505 216 CURVE SMOOTH",
"411.41 216 OFFCURVE",
"351 295.413 OFFCURVE",
"351 422 CURVE SMOOTH",
"351 546 OFFCURVE",
"380.667 644.333 OFFCURVE",
"426 711 CURVE SMOOTH",
"471.333 777.667 OFFCURVE",
"531.667 814 OFFCURVE",
"593 814 CURVE SMOOTH",
"667.362 814 OFFCURVE",
"709.383 761 OFFCURVE",
"755 761 CURVE SMOOTH",
"777.667 761 OFFCURVE",
"796.333 774.333 OFFCURVE",
"811 789 CURVE",
"911 904 LINE",
"832.333 1005.333 OFFCURVE",
"737.667 1051 OFFCURVE",
"599 1051 CURVE SMOOTH",
"436.333 1051 OFFCURVE",
"297.833 978.667 OFFCURVE",
"198.5 864 CURVE SMOOTH",
"99.167 749.333 OFFCURVE",
"41 592.333 OFFCURVE",
"41 423 CURVE SMOOTH",
"41 309.667 OFFCURVE",
"68.5 213.167 OFFCURVE",
"118.5 140.5 CURVE SMOOTH",
"168.5 67.833 OFFCURVE",
"240.667 17.333 OFFCURVE",
"330 -4 CURVE",
"279 -136 LINE",
"321 -142 OFFCURVE",
"350.5 -148.5 OFFCURVE",
"367.5 -155.5 CURVE SMOOTH",
"384.5 -162.5 OFFCURVE",
"393 -172.667 OFFCURVE",
"393 -186 CURVE SMOOTH",
"393 -204.667 OFFCURVE",
"379.667 -224 OFFCURVE",
"349 -224 CURVE SMOOTH",
"337 -224 OFFCURVE",
"327.167 -222.333 OFFCURVE",
"319.5 -219 CURVE SMOOTH",
"311.833 -215.667 OFFCURVE",
"303 -214 OFFCURVE",
"293 -214 CURVE SMOOTH"
);
}
);
userData = {
assembly = "NPUSHB[ ]\011/* 22 values pushed */
1 0 66 64 48 46 43 41 33 31 28 26 21 19 4 2 0 71 1 71 9 7 
CALL[ ]\011/* CallFunction */
MPPEM[ ]\011/* MeasurePixelPerEm */
PUSHB[ ]\011/* 1 value pushed */
49 
LT[ ]\011/* LessThan */
IF[ ]\011/* If */
NPUSHB[ ]\011/* 67 values pushed */
23 1 4 2 57 51 10 9 4 0 5 68 1 7 0 3 30 0 3 4 6 4 3 6 50 0 6 5 4 6 5 48 0 5 0 4 5 0 48 0 4 4 2 1 0 36 0 2 2 20 31 1 8 2 0 0 7 1 0 36 0 7 7 16 7 32 8 
ELSE[ ]\011/* Else */
MPPEM[ ]\011/* MeasurePixelPerEm */
PUSHB[ ]\011/* 1 value pushed */
54 
LT[ ]\011/* LessThan */
IF[ ]\011/* If */
NPUSHB[ ]\011/* 73 values pushed */
23 1 4 2 57 51 10 9 4 0 5 68 1 7 1 3 30 0 3 4 6 4 3 6 50 0 6 5 4 6 5 48 0 5 0 4 5 0 48 8 1 0 1 4 0 1 48 0 4 4 2 1 0 36 0 2 2 20 31 0 1 1 7 1 0 36 0 7 7 16 7 32 9 
ELSE[ ]\011/* Else */
MPPEM[ ]\011/* MeasurePixelPerEm */
PUSHB[ ]\011/* 1 value pushed */
108 
LT[ ]\011/* LessThan */
IF[ ]\011/* If */
NPUSHB[ ]\011/* 70 values pushed */
23 1 4 2 57 51 10 9 4 0 5 68 1 7 1 3 30 0 3 4 6 4 3 6 50 0 6 5 4 6 5 48 0 5 0 4 5 0 48 8 1 0 1 4 0 1 48 0 1 0 7 1 7 1 0 37 0 4 4 2 1 0 36 0 2 2 20 4 32 8 
ELSE[ ]\011/* Else */
NPUSHB[ ]\011/* 80 values pushed */
23 1 4 2 57 51 10 9 4 0 5 68 1 7 1 3 30 0 3 4 6 4 3 6 50 0 6 5 4 6 5 48 0 5 0 4 5 0 48 8 1 0 1 4 0 1 48 0 2 0 4 3 2 4 1 0 38 0 1 7 7 1 1 0 35 0 1 1 7 1 0 36 0 7 1 7 1 0 33 9 
EIF[ ]\011/* EndIf */
EIF[ ]\011/* EndIf */
EIF[ ]\011/* EndIf */
PUSHB[ ]\011/* 1 value pushed */
56 
CALL[ ]\011/* CallFunction */";
};
width = 876;
}
);
note = ccedilla;
unicode = 00E7;
},
{
glyphname = d;
layers = (
{
layerId = "10974C74-6ED2-4F66-BD25-910E45086E66";
paths = (
{
closed = 1;
nodes = (
"931 0 LINE",
"1117 1497 LINE",
"813 1497 LINE",
"747 975 LINE",
"695 1021.667 OFFCURVE",
"626.333 1053 OFFCURVE",
"541 1053 CURVE SMOOTH",
"496.333 1053 OFFCURVE",
"453 1044.667 OFFCURVE",
"411 1028 CURVE SMOOTH",
"327 994.667 OFFCURVE",
"250.667 934.833 OFFCURVE",
"188 851.5 CURVE SMOOTH",
"156.667 809.833 OFFCURVE",
"129.667 764 OFFCURVE",
"107 714 CURVE SMOOTH",
"61.667 614 OFFCURVE",
"35 498 OFFCURVE",
"35 378 CURVE SMOOTH",
"35 239.333 OFFCURVE",
"65.167 141 OFFCURVE",
"116.5 77 CURVE SMOOTH",
"167.833 13 OFFCURVE",
"239.667 -16 OFFCURVE",
"325 -16 CURVE SMOOTH",
"454.333 -16 OFFCURVE",
"570.333 59.667 OFFCURVE",
"665 185 CURVE",
"665 98 LINE SMOOTH",
"665 37.491 OFFCURVE",
"691.213 0 OFFCURVE",
"765 0 CURVE SMOOTH"
);
},
{
closed = 1;
nodes = (
"385 220 OFFCURVE",
"343 276 OFFCURVE",
"343 408 CURVE SMOOTH",
"343 512 OFFCURVE",
"369 616.5 OFFCURVE",
"413 694.5 CURVE SMOOTH",
"457 772.5 OFFCURVE",
"519 825 OFFCURVE",
"591 825 CURVE SMOOTH",
"633.667 825 OFFCURVE",
"684.333 812.667 OFFCURVE",
"723 782 CURVE",
"691 530 LINE",
"664.333 443.333 OFFCURVE",
"625.833 366 OFFCURVE",
"582.5 310 CURVE SMOOTH",
"539.167 254 OFFCURVE",
"491.667 220 OFFCURVE",
"449 220 CURVE SMOOTH"
);
}
);
userData = {
assembly = "NPUSHB[ ]\011/* 22 values pushed */
29 28 1 0 38 36 28 44 29 44 26 25 22 20 10 8 0 27 1 27 8 7 
CALL[ ]\011/* CallFunction */
MPPEM[ ]\011/* MeasurePixelPerEm */
PUSHB[ ]\011/* 1 value pushed */
30 
LT[ ]\011/* LessThan */
IF[ ]\011/* If */
NPUSHB[ ]\011/* 48 values pushed */
24 1 5 2 34 1 4 5 6 1 0 4 3 30 0 3 3 13 31 0 5 5 2 1 0 36 0 2 2 20 31 7 1 4 4 0 1 0 36 1 6 2 0 0 12 0 32 6 
ELSE[ ]\011/* Else */
MPPEM[ ]\011/* MeasurePixelPerEm */
PUSHB[ ]\011/* 1 value pushed */
94 
LT[ ]\011/* LessThan */
IF[ ]\011/* If */
NPUSHB[ ]\011/* 52 values pushed */
24 1 5 2 34 1 4 5 6 1 0 4 3 30 0 3 3 13 31 0 5 5 2 1 0 36 0 2 2 20 31 6 1 0 0 12 31 7 1 4 4 1 1 0 36 0 1 1 18 1 32 7 
ELSE[ ]\011/* Else */
MPPEM[ ]\011/* MeasurePixelPerEm */
PUSHB[ ]\011/* 1 value pushed */
108 
LT[ ]\011/* LessThan */
IF[ ]\011/* If */
NPUSHB[ ]\011/* 51 values pushed */
24 1 5 2 34 1 4 5 6 1 0 4 3 30 7 1 4 0 1 4 1 1 0 37 0 5 5 2 1 0 36 0 2 2 20 31 6 1 0 0 3 0 0 36 0 3 3 13 0 32 6 
ELSE[ ]\011/* Else */
MPPEM[ ]\011/* MeasurePixelPerEm */
PUSHB[ ]\011/* 1 value pushed */
252 
LT[ ]\011/* LessThan */
IF[ ]\011/* If */
NPUSHB[ ]\011/* 49 values pushed */
24 1 5 2 34 1 4 5 6 1 0 4 3 30 0 2 0 5 4 2 5 1 0 38 7 1 4 0 1 4 1 1 0 37 6 1 0 0 3 0 0 36 0 3 3 13 0 32 5 
ELSE[ ]\011/* Else */
NPUSHB[ ]\011/* 60 values pushed */
24 1 5 2 34 1 4 5 6 1 0 4 3 30 0 2 0 5 4 2 5 1 0 38 7 1 4 0 1 4 1 0 35 0 3 6 1 0 1 3 0 1 0 38 7 1 4 4 1 1 0 36 0 1 4 1 1 0 33 6 
EIF[ ]\011/* EndIf */
EIF[ ]\011/* EndIf */
EIF[ ]\011/* EndIf */
EIF[ ]\011/* EndIf */
PUSHB[ ]\011/* 1 value pushed */
56 
CALL[ ]\011/* CallFunction */";
};
width = 1102;
}
);
note = d;
unicode = 0064;
},
{
glyphname = eth;
layers = (
{
layerId = "10974C74-6ED2-4F66-BD25-910E45086E66";
paths = (
{
closed = 1;
nodes = (
"461 960 LINE",
"683 1089 LINE",
"760.333 1015.667 OFFCURVE",
"794.333 925.333 OFFCURVE",
"801 808 CURVE",
"739.667 890.667 OFFCURVE",
"652.333 935 OFFCURVE",
"531 935 CURVE SMOOTH",
"392.333 935 OFFCURVE",
"270 874.833 OFFCURVE",
"182 779.5 CURVE SMOOTH",
"94 684.167 OFFCURVE",
"41 552.333 OFFCURVE",
"41 411 CURVE SMOOTH",
"41 279 OFFCURVE",
"83.667 171.333 OFFCURVE",
"157 98 CURVE SMOOTH",
"230.333 24.667 OFFCURVE",
"334.333 -16 OFFCURVE",
"457 -16 CURVE SMOOTH",
"638.333 -16 OFFCURVE",
"784 54 OFFCURVE",
"884 182 CURVE SMOOTH",
"984 310 OFFCURVE",
"1039 496 OFFCURVE",
"1039 728 CURVE SMOOTH",
"1039 918.667 OFFCURVE",
"986 1068.333 OFFCURVE",
"894 1183 CURVE",
"985 1236 LINE SMOOTH",
"1007.667 1249.333 OFFCURVE",
"1016 1265.333 OFFCURVE",
"1016 1284 CURVE SMOOTH",
"1016 1294 OFFCURVE",
"1013.333 1304.333 OFFCURVE",
"1008 1315 CURVE SMOOTH",
"958 1410 LINE",
"767 1303 LINE",
"667 1375 OFFCURVE",
"548.333 1420.333 OFFCURVE",
"415 1443 CURVE",
"369 1351 LINE SMOOTH",
"358.333 1331 OFFCURVE",
"353 1314 OFFCURVE",
"353 1298 CURVE SMOOTH",
"353 1268 OFFCURVE",
"373.333 1246.333 OFFCURVE",
"414 1233 CURVE SMOOTH",
"455.333 1218.333 OFFCURVE",
"492.333 1205 OFFCURVE",
"527 1189 CURVE",
"423 1129 LINE",
"408.333 1119.667 OFFCURVE",
"397 1103.667 OFFCURVE",
"397 1085 CURVE SMOOTH",
"397 1074.333 OFFCURVE",
"399.667 1065 OFFCURVE",
"405 1057 CURVE"
);
},
{
closed = 1;
nodes = (
"401 205 OFFCURVE",
"337 282.667 OFFCURVE",
"337 424 CURVE SMOOTH",
"337 584.227 OFFCURVE",
"422.609 715 OFFCURVE",
"565 715 CURVE SMOOTH",
"664.752 715 OFFCURVE",
"716.393 652.344 OFFCURVE",
"744 564 CURVE",
"724 424 OFFCURVE",
"687.167 334.667 OFFCURVE",
"642.5 280 CURVE SMOOTH",
"597.833 225.333 OFFCURVE",
"545 205 OFFCURVE",
"493 205 CURVE SMOOTH"
);
}
);
userData = {
assembly = "NPUSHB[ ]\011/* 14 values pushed */
53 52 63 61 52 69 53 69 45 43 35 33 5 7 
CALL[ ]\011/* CallFunction */
MPPEM[ ]\011/* MeasurePixelPerEm */
PUSHB[ ]\011/* 1 value pushed */
94 
LT[ ]\011/* LessThan */
IF[ ]\011/* If */
NPUSHB[ ]\011/* 45 values pushed */
47 1 3 1 57 1 2 3 2 30 51 50 26 19 18 15 6 7 1 28 0 1 0 3 2 1 3 1 0 38 4 1 2 2 0 1 0 36 0 0 0 18 0 32 5 
ELSE[ ]\011/* Else */
NPUSHB[ ]\011/* 55 values pushed */
47 1 3 1 57 1 2 3 2 30 51 50 26 19 18 15 6 7 1 28 0 1 0 3 2 1 3 1 0 38 4 1 2 0 0 2 1 0 35 4 1 2 2 0 1 0 36 0 0 2 0 1 0 33 6 
EIF[ ]\011/* EndIf */
PUSHB[ ]\011/* 1 value pushed */
56 
CALL[ ]\011/* CallFunction */";
};
width = 1068;
}
);
note = eth;
unicode = 00F0;
},
{
glyphname = e;
layers = (
{
layerId = "10974C74-6ED2-4F66-BD25-910E45086E66";
paths = (
{
closed = 1;
nodes = (
"951 846 OFFCURVE",
"919.667 913.167 OFFCURVE",
"861 964.5 CURVE SMOOTH",
"802.333 1015.833 OFFCURVE",
"715.667 1051 OFFCURVE",
"605 1051 CURVE SMOOTH",
"549 1051 OFFCURVE",
"496.167 1043.167 OFFCURVE",
"446.5 1027.5 CURVE SMOOTH",
"347.167 996.167 OFFCURVE",
"263.667 939.5 OFFCURVE",
"197 861.5 CURVE SMOOTH",
"163.667 822.5 OFFCURVE",
"135.5 779.833 OFFCURVE",
"112.5 733.5 CURVE SMOOTH",
"66.5 640.833 OFFCURVE",
"41 533.667 OFFCURVE",
"41 423 CURVE SMOOTH",
"41 291 OFFCURVE",
"83.5 181.167 OFFCURVE",
"157.5 104.5 CURVE SMOOTH",
"231.5 27.833 OFFCURVE",
"336.333 -16 OFFCURVE",
"459 -16 CURVE SMOOTH",
"557.667 -16 OFFCURVE",
"639.5 -0.5 OFFCURVE",
"713.5 33.5 CURVE SMOOTH",
"787.5 67.5 OFFCURVE",
"855.667 120 OFFCURVE",
"929 192 CURVE",
"849 285 LINE SMOOTH",
"834.333 301 OFFCURVE",
"815 312 OFFCURVE",
"795 312 CURVE SMOOTH",
"751.431 312 OFFCURVE",
"720.295 287.53 OFFCURVE",
"685 264 CURVE SMOOTH",
"644.104 236.736 OFFCURVE",
"594.456 216 OFFCURVE",
"521 216 CURVE SMOOTH",
"405 216 OFFCURVE",
"345.667 278.667 OFFCURVE",
"343 420 CURVE",
"580.333 444 OFFCURVE",
"732.833 486.833 OFFCURVE",
"825.5 547.5 CURVE SMOOTH",
"918.167 608.167 OFFCURVE",
"951 687.333 OFFCURVE",
"951 782 CURVE SMOOTH"
);
},
{
closed = 1;
nodes = (
"645.667 842 OFFCURVE",
"671 804.667 OFFCURVE",
"671 770 CURVE SMOOTH",
"671 735.333 OFFCURVE",
"659 705.5 OFFCURVE",
"615 679.5 CURVE SMOOTH",
"571 653.5 OFFCURVE",
"494.333 632 OFFCURVE",
"365 612 CURVE",
"403.667 754.667 OFFCURVE",
"484.333 842 OFFCURVE",
"587 842 CURVE SMOOTH"
);
}
);
userData = {
assembly = "NPUSHB[ ]\011/* 16 values pushed */
42 41 41 51 42 51 37 35 25 23 16 14 9 7 6 7 
CALL[ ]\011/* CallFunction */
MPPEM[ ]\011/* MeasurePixelPerEm */
PUSHB[ ]\011/* 1 value pushed */
94 
LT[ ]\011/* LessThan */
IF[ ]\011/* If */
NPUSHB[ ]\011/* 46 values pushed */
44 5 2 1 4 19 1 2 0 2 30 0 1 4 0 4 1 0 50 5 1 4 4 3 1 0 36 0 3 3 20 31 0 0 0 2 1 0 36 0 2 2 18 2 32 6 
ELSE[ ]\011/* Else */
MPPEM[ ]\011/* MeasurePixelPerEm */
PUSHB[ ]\011/* 1 value pushed */
108 
LT[ ]\011/* LessThan */
IF[ ]\011/* If */
NPUSHB[ ]\011/* 43 values pushed */
44 5 2 1 4 19 1 2 0 2 30 0 1 4 0 4 1 0 50 0 0 0 2 0 2 1 0 37 5 1 4 4 3 1 0 36 0 3 3 20 4 32 5 
ELSE[ ]\011/* Else */
NPUSHB[ ]\011/* 53 values pushed */
44 5 2 1 4 19 1 2 0 2 30 0 1 4 0 4 1 0 50 0 3 5 1 4 1 3 4 1 0 38 0 0 2 2 0 1 0 35 0 0 0 2 1 0 36 0 2 0 2 1 0 33 6 
EIF[ ]\011/* EndIf */
EIF[ ]\011/* EndIf */
PUSHB[ ]\011/* 1 value pushed */
56 
CALL[ ]\011/* CallFunction */";
};
width = 968;
}
);
note = e;
unicode = 0065;
},
{
glyphname = eogonek;
layers = (
{
layerId = "10974C74-6ED2-4F66-BD25-910E45086E66";
paths = (
{
closed = 1;
nodes = (
"589 -171 OFFCURVE",
"583.333 -172.5 OFFCURVE",
"578 -175.5 CURVE SMOOTH",
"572.667 -178.5 OFFCURVE",
"561 -180 OFFCURVE",
"543 -180 CURVE SMOOTH",
"516.333 -180 OFFCURVE",
"503 -160.667 OFFCURVE",
"503 -134 CURVE SMOOTH",
"503 -78 OFFCURVE",
"543.667 -33.667 OFFCURVE",
"597 -3 CURVE",
"722.333 22.333 OFFCURVE",
"819.667 84 OFFCURVE",
"929 192 CURVE",
"849 285 LINE SMOOTH",
"834.333 301 OFFCURVE",
"815 312 OFFCURVE",
"795 312 CURVE SMOOTH",
"751.431 312 OFFCURVE",
"720.295 287.53 OFFCURVE",
"685 264 CURVE SMOOTH",
"644.104 236.736 OFFCURVE",
"594.456 216 OFFCURVE",
"521 216 CURVE SMOOTH",
"405 216 OFFCURVE",
"345.667 278.667 OFFCURVE",
"343 420 CURVE",
"580.333 444 OFFCURVE",
"732.833 486.833 OFFCURVE",
"825.5 547.5 CURVE SMOOTH",
"918.167 608.167 OFFCURVE",
"951 687.333 OFFCURVE",
"951 782 CURVE SMOOTH",
"951 846 OFFCURVE",
"919.667 913.167 OFFCURVE",
"861 964.5 CURVE SMOOTH",
"802.333 1015.833 OFFCURVE",
"715.667 1051 OFFCURVE",
"605 1051 CURVE SMOOTH",
"549 1051 OFFCURVE",
"496.167 1043.167 OFFCURVE",
"446.5 1027.5 CURVE SMOOTH",
"347.167 996.167 OFFCURVE",
"263.667 939.5 OFFCURVE",
"197 861.5 CURVE SMOOTH",
"163.667 822.5 OFFCURVE",
"135.5 779.833 OFFCURVE",
"112.5 733.5 CURVE SMOOTH",
"66.5 640.833 OFFCURVE",
"41 533.667 OFFCURVE",
"41 423 CURVE SMOOTH",
"41 300.333 OFFCURVE",
"78 196.833 OFFCURVE",
"142 121.5 CURVE SMOOTH",
"206 46.167 OFFCURVE",
"297.667 -1 OFFCURVE",
"407 -13 CURVE",
"311 -74.333 OFFCURVE",
"273 -143.333 OFFCURVE",
"273 -214 CURVE SMOOTH",
"273 -290 OFFCURVE",
"333.667 -347 OFFCURVE",
"459 -347 CURVE SMOOTH",
"531 -347 OFFCURVE",
"602.333 -325 OFFCURVE",
"649 -297 CURVE",
"619 -190 LINE",
"617 -177.333 OFFCURVE",
"609 -171 OFFCURVE",
"595 -171 CURVE SMOOTH"
);
},
{
closed = 1;
nodes = (
"645.667 842 OFFCURVE",
"671 804.667 OFFCURVE",
"671 770 CURVE SMOOTH",
"671 735.333 OFFCURVE",
"659 705.5 OFFCURVE",
"615 679.5 CURVE SMOOTH",
"571 653.5 OFFCURVE",
"494.333 632 OFFCURVE",
"365 612 CURVE",
"403.667 754.667 OFFCURVE",
"484.333 842 OFFCURVE",
"587 842 CURVE SMOOTH"
);
}
);
userData = {
assembly = "NPUSHB[ ]\011/* 24 values pushed */
61 60 1 0 60 70 61 70 58 56 45 43 38 36 25 23 7 5 0 59 1 59 9 7 
CALL[ ]\011/* CallFunction */
MPPEM[ ]\011/* MeasurePixelPerEm */
PUSHB[ ]\011/* 1 value pushed */
53 
LT[ ]\011/* LessThan */
IF[ ]\011/* If */
NPUSHB[ ]\011/* 61 values pushed */
63 34 2 4 6 48 12 2 0 3 3 1 1 0 3 30 0 4 6 3 6 4 3 50 5 7 2 0 3 1 3 0 1 50 8 1 6 6 2 1 0 36 0 2 2 20 31 0 3 3 1 1 0 36 0 1 1 16 1 32 7 
ELSE[ ]\011/* Else */
MPPEM[ ]\011/* MeasurePixelPerEm */
PUSHB[ ]\011/* 1 value pushed */
54 
LT[ ]\011/* LessThan */
IF[ ]\011/* If */
NPUSHB[ ]\011/* 67 values pushed */
63 34 2 4 6 48 12 2 0 3 3 1 1 5 3 30 0 4 6 3 6 4 3 50 7 1 0 3 5 3 0 5 50 0 5 1 3 5 1 48 8 1 6 6 2 1 0 36 0 2 2 20 31 0 3 3 1 1 0 36 0 1 1 16 1 32 8 
ELSE[ ]\011/* Else */
MPPEM[ ]\011/* MeasurePixelPerEm */
PUSHB[ ]\011/* 1 value pushed */
108 
LT[ ]\011/* LessThan */
IF[ ]\011/* If */
NPUSHB[ ]\011/* 64 values pushed */
63 34 2 4 6 48 12 2 0 3 3 1 1 5 3 30 0 4 6 3 6 4 3 50 7 1 0 3 5 3 0 5 50 0 5 1 3 5 1 48 0 3 0 1 3 1 1 0 37 8 1 6 6 2 1 0 36 0 2 2 20 6 32 7 
ELSE[ ]\011/* Else */
NPUSHB[ ]\011/* 74 values pushed */
63 34 2 4 6 48 12 2 0 3 3 1 1 5 3 30 0 4 6 3 6 4 3 50 7 1 0 3 5 3 0 5 50 0 5 1 3 5 1 48 0 2 8 1 6 4 2 6 1 0 38 0 3 0 1 3 1 0 35 0 3 3 1 1 0 36 0 1 3 1 1 0 33 8 
EIF[ ]\011/* EndIf */
EIF[ ]\011/* EndIf */
EIF[ ]\011/* EndIf */
PUSHB[ ]\011/* 1 value pushed */
56 
CALL[ ]\011/* CallFunction */";
};
width = 968;
}
);
note = eogonek;
unicode = 0119;
},
{
glyphname = f;
layers = (
{
layerId = "10974C74-6ED2-4F66-BD25-910E45086E66";
paths = (
{
closed = 1;
nodes = (
"681 823 LINE",
"709 1035 LINE",
"499 1035 LINE",
"505 1084 LINE SMOOTH",
"521 1220 OFFCURVE",
"582.333 1268 OFFCURVE",
"685 1268 CURVE SMOOTH",
"715.667 1268 OFFCURVE",
"752.333 1275.333 OFFCURVE",
"759 1310 CURVE SMOOTH",
"787 1466 LINE",
"747 1479.333 OFFCURVE",
"709.667 1485 OFFCURVE",
"663 1485 CURVE SMOOTH",
"543 1485 OFFCURVE",
"437.667 1446 OFFCURVE",
"359 1378 CURVE SMOOTH",
"280.333 1310 OFFCURVE",
"227.667 1212.667 OFFCURVE",
"213 1094 CURVE SMOOTH",
"206 1035 LINE",
"75 1035 LINE",
"59 913 LINE",
"58.333 910.333 OFFCURVE",
"58 906.667 OFFCURVE",
"58 902 CURVE SMOOTH",
"58 866 OFFCURVE",
"84.333 846 OFFCURVE",
"119 838 CURVE SMOOTH",
"180 824 LINE",
"51 -246 LINE",
"177 -246 LINE SMOOTH",
"267.667 -246 OFFCURVE",
"313 -201.333 OFFCURVE",
"337 -124 CURVE SMOOTH",
"391 50 LINE",
"484 823 LINE"
);
}
);
userData = {
assembly = "NPUSHB[ ]\011/* 18 values pushed */
0 0 0 34 0 34 33 32 29 27 22 20 15 14 6 4 7 7 
CALL[ ]\011/* CallFunction */
MPPEM[ ]\011/* MeasurePixelPerEm */
PUSHB[ ]\011/* 1 value pushed */
83 
LT[ ]\011/* LessThan */
IF[ ]\011/* If */
NPUSHB[ ]\011/* 51 values pushed */
24 1 3 2 7 1 5 1 2 30 0 3 3 2 1 0 36 0 2 2 17 31 6 1 5 5 1 0 0 36 4 1 1 1 14 31 0 0 0 1 0 0 36 4 1 1 1 14 0 32 7 
ELSE[ ]\011/* Else */
MPPEM[ ]\011/* MeasurePixelPerEm */
PUSHB[ ]\011/* 1 value pushed */
108 
LT[ ]\011/* LessThan */
IF[ ]\011/* If */
NPUSHB[ ]\011/* 49 values pushed */
24 1 3 2 7 1 5 1 2 30 0 2 0 3 1 2 3 1 0 38 6 1 5 5 1 0 0 36 4 1 1 1 14 31 0 0 0 1 0 0 36 4 1 1 1 14 0 32 6 
ELSE[ ]\011/* Else */
MPPEM[ ]\011/* MeasurePixelPerEm */
PUSHB[ ]\011/* 1 value pushed */
232 
LT[ ]\011/* LessThan */
IF[ ]\011/* If */
NPUSHB[ ]\011/* 48 values pushed */
24 1 3 2 7 1 5 1 2 30 0 2 0 3 1 2 3 1 0 38 4 1 1 6 1 5 0 1 5 0 0 38 4 1 1 1 0 1 0 36 0 0 1 0 1 0 33 5 
ELSE[ ]\011/* Else */
NPUSHB[ ]\011/* 54 values pushed */
24 1 3 2 7 1 5 4 2 30 0 2 0 3 1 2 3 1 0 38 0 1 4 0 1 0 0 35 0 4 6 1 5 0 4 5 0 0 38 0 1 1 0 1 0 36 0 0 1 0 1 0 33 6 
EIF[ ]\011/* EndIf */
EIF[ ]\011/* EndIf */
EIF[ ]\011/* EndIf */
PUSHB[ ]\011/* 1 value pushed */
56 
CALL[ ]\011/* CallFunction */";
};
width = 664;
}
);
note = f;
unicode = 0066;
},
{
glyphname = g;
layers = (
{
layerId = "10974C74-6ED2-4F66-BD25-910E45086E66";
paths = (
{
closed = 1;
nodes = (
"901 750.333 OFFCURVE",
"899 773 OFFCURVE",
"895 795 CURVE",
"983 825 LINE SMOOTH",
"1015.667 835.667 OFFCURVE",
"1035 861.333 OFFCURVE",
"1041 902 CURVE SMOOTH",
"1055 999 LINE",
"757 999 LINE",
"695.667 1035 OFFCURVE",
"621.667 1053 OFFCURVE",
"543 1053 CURVE SMOOTH",
"389.667 1053 OFFCURVE",
"274.5 1002.167 OFFCURVE",
"196.5 925.5 CURVE SMOOTH",
"118.5 848.833 OFFCURVE",
"79 746.667 OFFCURVE",
"79 644 CURVE SMOOTH",
"79 533.333 OFFCURVE",
"115.167 453.333 OFFCURVE",
"170.5 400 CURVE SMOOTH",
"225.833 346.667 OFFCURVE",
"300.333 321 OFFCURVE",
"379 321 CURVE SMOOTH",
"479 321 OFFCURVE",
"542 342.333 OFFCURVE",
"594 377 CURVE",
"576 331.667 OFFCURVE",
"567 291.333 OFFCURVE",
"567 256 CURVE SMOOTH",
"567 246.667 OFFCURVE",
"567 237.833 OFFCURVE",
"567 229.5 CURVE SMOOTH",
"567 221.167 OFFCURVE",
"567.667 213 OFFCURVE",
"569 205 CURVE",
"522.333 214.333 OFFCURVE",
"466.333 220 OFFCURVE",
"405 220 CURVE SMOOTH",
"297 220 OFFCURVE",
"177.333 202.833 OFFCURVE",
"84 155.5 CURVE SMOOTH",
"-9.333 108.167 OFFCURVE",
"-75 32.333 OFFCURVE",
"-75 -85 CURVE SMOOTH",
"-75 -161 OFFCURVE",
"-33.5 -229 OFFCURVE",
"40.5 -277 CURVE SMOOTH",
"114.5 -325 OFFCURVE",
"222.333 -355 OFFCURVE",
"357 -355 CURVE SMOOTH",
"521 -355 OFFCURVE",
"651 -309.833 OFFCURVE",
"739 -238.5 CURVE SMOOTH",
"827 -167.167 OFFCURVE",
"875 -68.667 OFFCURVE",
"875 38 CURVE SMOOTH",
"875 168.124 OFFCURVE",
"789 242.176 OFFCURVE",
"789 352 CURVE SMOOTH",
"789 506.369 OFFCURVE",
"901 560.681 OFFCURVE",
"901 727 CURVE SMOOTH"
);
},
{
closed = 1;
nodes = (
"397 501 OFFCURVE",
"361 554 OFFCURVE",
"361 642 CURVE SMOOTH",
"361 750.765 OFFCURVE",
"408.635 852 OFFCURVE",
"507 852 CURVE SMOOTH",
"581.667 852 OFFCURVE",
"617 801.667 OFFCURVE",
"617 715 CURVE SMOOTH",
"617 611.207 OFFCURVE",
"565.485 501 OFFCURVE",
"469 501 CURVE SMOOTH"
);
},
{
closed = 1;
nodes = (
"593 -87.135 OFFCURVE",
"501.635 -150 OFFCURVE",
"383 -150 CURVE SMOOTH",
"264.333 -150 OFFCURVE",
"219 -115 OFFCURVE",
"219 -47 CURVE SMOOTH",
"219 17.691 OFFCURVE",
"295.689 53 OFFCURVE",
"421 53 CURVE SMOOTH",
"467.667 53 OFFCURVE",
"524 47.667 OFFCURVE",
"592 37 CURVE",
"592.667 33.667 OFFCURVE",
"593 30 OFFCURVE",
"593 26 CURVE SMOOTH",
"593 22 OFFCURVE",
"593 18 OFFCURVE",
"593 14 CURVE SMOOTH"
);
}
);
userData = {
assembly = "NPUSHB[ ]\011/* 24 values pushed */
57 56 87 85 79 77 65 63 56 71 57 71 50 49 47 45 37 35 26 24 16 14 10 7 
CALL[ ]\011/* CallFunction */
MPPEM[ ]\011/* MeasurePixelPerEm */
PUSHB[ ]\011/* 1 value pushed */
26 
LT[ ]\011/* LessThan */
IF[ ]\011/* If */
NPUSHB[ ]\011/* 66 values pushed */
54 1 5 6 33 1 2 5 28 1 7 1 3 30 9 1 5 0 2 1 5 2 1 0 38 0 1 0 7 8 1 7 1 0 38 0 4 4 14 31 0 6 6 3 1 0 36 0 3 3 20 31 0 8 8 0 1 0 36 0 0 0 16 0 32 8 
ELSE[ ]\011/* Else */
MPPEM[ ]\011/* MeasurePixelPerEm */
PUSHB[ ]\011/* 1 value pushed */
37 
LT[ ]\011/* LessThan */
IF[ ]\011/* If */
NPUSHB[ ]\011/* 69 values pushed */
54 1 5 6 33 1 2 5 28 1 7 1 3 30 0 4 3 6 3 4 6 50 9 1 5 0 2 1 5 2 1 0 38 0 1 0 7 8 1 7 1 0 38 0 6 6 3 1 0 36 0 3 3 20 31 0 8 8 0 1 0 36 0 0 0 16 0 32 8 
ELSE[ ]\011/* Else */
MPPEM[ ]\011/* MeasurePixelPerEm */
PUSHB[ ]\011/* 1 value pushed */
108 
LT[ ]\011/* LessThan */
IF[ ]\011/* If */
NPUSHB[ ]\011/* 66 values pushed */
54 1 5 6 33 1 2 5 28 1 7 1 3 30 0 4 3 6 3 4 6 50 9 1 5 0 2 1 5 2 1 0 38 0 1 0 7 8 1 7 1 0 38 0 8 0 0 8 0 1 0 37 0 6 6 3 1 0 36 0 3 3 20 6 32 7 
ELSE[ ]\011/* Else */
NPUSHB[ ]\011/* 76 values pushed */
54 1 5 6 33 1 2 5 28 1 7 1 3 30 0 4 3 6 3 4 6 50 0 3 0 6 5 3 6 1 0 38 9 1 5 0 2 1 5 2 1 0 38 0 1 0 7 8 1 7 1 0 38 0 8 0 0 8 1 0 35 0 8 8 0 1 0 36 0 0 8 0 1 0 33 8 
EIF[ ]\011/* EndIf */
EIF[ ]\011/* EndIf */
EIF[ ]\011/* EndIf */
PUSHB[ ]\011/* 1 value pushed */
56 
CALL[ ]\011/* CallFunction */";
};
width = 1008;
}
);
note = g;
unicode = 0067;
},
{
glyphname = h;
layers = (
{
layerId = "10974C74-6ED2-4F66-BD25-910E45086E66";
paths = (
{
closed = 1;
nodes = (
"353 0 LINE",
"420 550 LINE",
"463.023 691.019 OFFCURVE",
"563.073 810 OFFCURVE",
"655 810 CURVE SMOOTH",
"705.667 810 OFFCURVE",
"731 786 OFFCURVE",
"731 714 CURVE SMOOTH",
"731 698 OFFCURVE",
"729.667 680.333 OFFCURVE",
"727 659 CURVE SMOOTH",
"649 0 LINE",
"959 0 LINE",
"1037 659 LINE SMOOTH",
"1039.667 685.667 OFFCURVE",
"1042 711 OFFCURVE",
"1042 735 CURVE SMOOTH",
"1042 837.667 OFFCURVE",
"1013.667 916.5 OFFCURVE",
"967 970.5 CURVE SMOOTH",
"920.333 1024.5 OFFCURVE",
"852.333 1053 OFFCURVE",
"775 1053 CURVE SMOOTH",
"663 1053 OFFCURVE",
"556.667 1005 OFFCURVE",
"462 901 CURVE",
"535 1497 LINE",
"225 1497 LINE",
"43 0 LINE"
);
}
);
userData = {
assembly = "NPUSHB[ ]\011/* 16 values pushed */
0 0 0 29 0 29 24 22 16 15 7 5 2 1 6 7 
CALL[ ]\011/* CallFunction */
MPPEM[ ]\011/* MeasurePixelPerEm */
PUSHB[ ]\011/* 1 value pushed */
94 
LT[ ]\011/* LessThan */
IF[ ]\011/* If */
NPUSHB[ ]\011/* 33 values pushed */
3 1 3 1 1 30 0 3 1 2 1 3 2 50 0 0 0 13 31 0 1 1 20 31 5 4 2 2 2 12 2 32 5 
ELSE[ ]\011/* Else */
MPPEM[ ]\011/* MeasurePixelPerEm */
PUSHB[ ]\011/* 1 value pushed */
108 
LT[ ]\011/* LessThan */
IF[ ]\011/* If */
NPUSHB[ ]\011/* 44 values pushed */
3 1 3 1 1 30 0 3 1 2 1 3 2 50 5 4 2 2 2 0 0 0 36 0 0 0 13 31 5 4 2 2 2 1 1 0 36 0 1 1 20 2 32 6 
ELSE[ ]\011/* Else */
MPPEM[ ]\011/* MeasurePixelPerEm */
PUSHB[ ]\011/* 1 value pushed */
252 
LT[ ]\011/* LessThan */
IF[ ]\011/* If */
NPUSHB[ ]\011/* 38 values pushed */
3 1 3 1 1 30 0 3 1 2 1 3 2 50 0 1 3 2 1 1 0 35 5 4 2 2 2 0 0 0 36 0 0 0 13 0 32 5 
ELSE[ ]\011/* Else */
MPPEM[ ]\011/* MeasurePixelPerEm */
PUSHB[ ]\011/* 1 value pushed */
232 
LT[ ]\011/* LessThan */
IF[ ]\011/* If */
NPUSHB[ ]\011/* 47 values pushed */
3 1 3 1 1 30 0 3 1 2 1 3 2 50 0 0 1 2 0 0 0 35 0 1 3 2 1 1 0 35 0 1 1 2 0 0 36 5 4 2 2 1 2 0 0 33 6 
ELSE[ ]\011/* Else */
NPUSHB[ ]\011/* 48 values pushed */
3 1 3 1 1 30 0 3 1 4 1 3 4 50 0 1 3 2 1 1 0 35 0 0 5 1 4 2 0 4 0 0 38 0 1 1 2 0 0 36 0 2 1 2 0 0 33 6 
EIF[ ]\011/* EndIf */
EIF[ ]\011/* EndIf */
EIF[ ]\011/* EndIf */
EIF[ ]\011/* EndIf */
PUSHB[ ]\011/* 1 value pushed */
56 
CALL[ ]\011/* CallFunction */";
};
width = 1108;
}
);
note = h;
unicode = 0068;
},
{
glyphname = i;
layers = (
{
layerId = "10974C74-6ED2-4F66-BD25-910E45086E66";
paths = (
{
closed = 1;
nodes = (
"179 1037 LINE",
"55 0 LINE",
"361 0 LINE",
"485 1037 LINE"
);
},
{
closed = 1;
nodes = (
"543 1421.497 OFFCURVE",
"454.872 1503 OFFCURVE",
"359 1503 CURVE SMOOTH",
"265.144 1503 OFFCURVE",
"179 1418.121 OFFCURVE",
"179 1321 CURVE SMOOTH",
"179 1224.759 OFFCURVE",
"264.299 1141 OFFCURVE",
"357 1141 CURVE SMOOTH",
"451.006 1141 OFFCURVE",
"543 1224.691 OFFCURVE",
"543 1321 CURVE SMOOTH"
);
}
);
userData = {
assembly = "NPUSHB[ ]\011/* 14 values pushed */
0 0 20 18 10 8 0 3 0 3 2 1 5 7 
CALL[ ]\011/* CallFunction */
MPPEM[ ]\011/* MeasurePixelPerEm */
PUSHB[ ]\011/* 1 value pushed */
94 
LT[ ]\011/* LessThan */
IF[ ]\011/* If */
NPUSHB[ ]\011/* 25 values pushed */
0 2 2 3 1 0 36 0 3 3 19 31 4 1 1 1 14 31 0 0 0 12 0 32 4 
ELSE[ ]\011/* Else */
MPPEM[ ]\011/* MeasurePixelPerEm */
PUSHB[ ]\011/* 1 value pushed */
108 
LT[ ]\011/* LessThan */
IF[ ]\011/* If */
NPUSHB[ ]\011/* 27 values pushed */
0 2 2 3 1 0 36 0 3 3 19 31 0 0 0 1 0 0 36 4 1 1 1 14 0 32 4 
ELSE[ ]\011/* Else */
MPPEM[ ]\011/* MeasurePixelPerEm */
PUSHB[ ]\011/* 1 value pushed */
252 
LT[ ]\011/* LessThan */
IF[ ]\011/* If */
NPUSHB[ ]\011/* 24 values pushed */
4 1 1 0 0 1 0 0 0 37 0 2 2 3 1 0 36 0 3 3 19 2 32 3 
ELSE[ ]\011/* Else */
NPUSHB[ ]\011/* 35 values pushed */
0 3 0 2 1 3 2 1 0 38 4 1 1 0 0 1 0 0 35 4 1 1 1 0 0 0 36 0 0 1 0 0 0 33 4 
EIF[ ]\011/* EndIf */
EIF[ ]\011/* EndIf */
EIF[ ]\011/* EndIf */
PUSHB[ ]\011/* 1 value pushed */
56 
CALL[ ]\011/* CallFunction */";
};
width = 540;
}
);
note = i;
unicode = 0069;
},
{
glyphname = idotless;
layers = (
{
layerId = "10974C74-6ED2-4F66-BD25-910E45086E66";
paths = (
{
closed = 1;
nodes = (
"179 1037 LINE",
"55 0 LINE",
"361 0 LINE",
"485 1037 LINE"
);
}
);
userData = {
assembly = "NPUSHB[ ]\011/* 10 values pushed */
0 0 0 3 0 3 2 1 3 7 
CALL[ ]\011/* CallFunction */
MPPEM[ ]\011/* MeasurePixelPerEm */
PUSHB[ ]\011/* 1 value pushed */
94 
LT[ ]\011/* LessThan */
IF[ ]\011/* If */
NPUSHB[ ]\011/* 13 values pushed */
2 1 1 1 14 31 0 0 0 12 0 32 2 
ELSE[ ]\011/* Else */
MPPEM[ ]\011/* MeasurePixelPerEm */
PUSHB[ ]\011/* 1 value pushed */
108 
LT[ ]\011/* LessThan */
IF[ ]\011/* If */
NPUSHB[ ]\011/* 15 values pushed */
0 0 0 1 0 0 36 2 1 1 1 14 0 32 2 
ELSE[ ]\011/* Else */
NPUSHB[ ]\011/* 25 values pushed */
2 1 1 0 0 1 0 0 35 2 1 1 1 0 0 0 36 0 0 1 0 0 0 33 3 
EIF[ ]\011/* EndIf */
EIF[ ]\011/* EndIf */
PUSHB[ ]\011/* 1 value pushed */
56 
CALL[ ]\011/* CallFunction */";
};
width = 540;
}
);
note = dotlessi;
unicode = 0131;
},
{
glyphname = j;
layers = (
{
layerId = "10974C74-6ED2-4F66-BD25-910E45086E66";
paths = (
{
closed = 1;
nodes = (
"183 1037 LINE",
"57 -2 LINE SMOOTH",
"44.373 -103.015 OFFCURVE",
"20.848 -135 OFFCURVE",
"-67 -135 CURVE SMOOTH",
"-111 -135 OFFCURVE",
"-125.667 -148 OFFCURVE",
"-131 -176 CURVE SMOOTH",
"-161 -339 LINE",
"-118.333 -351 OFFCURVE",
"-81.667 -357 OFFCURVE",
"-23 -357 CURVE SMOOTH",
"95.667 -357 OFFCURVE",
"186.167 -317.167 OFFCURVE",
"249.5 -252.5 CURVE SMOOTH",
"312.833 -187.833 OFFCURVE",
"349 -99.333 OFFCURVE",
"361 -2 CURVE SMOOTH",
"487 1037 LINE"
);
},
{
closed = 1;
nodes = (
"533 1421.497 OFFCURVE",
"444.872 1503 OFFCURVE",
"349 1503 CURVE SMOOTH",
"255.144 1503 OFFCURVE",
"169 1418.121 OFFCURVE",
"169 1321 CURVE SMOOTH",
"169 1224.759 OFFCURVE",
"254.299 1141 OFFCURVE",
"347 1141 CURVE SMOOTH",
"441.006 1141 OFFCURVE",
"533 1224.691 OFFCURVE",
"533 1321 CURVE SMOOTH"
);
}
);
userData = {
assembly = "NPUSHB[ ]\011/* 16 values pushed */
0 0 36 34 26 24 0 19 0 19 14 12 7 5 6 7 
CALL[ ]\011/* CallFunction */
MPPEM[ ]\011/* MeasurePixelPerEm */
PUSHB[ ]\011/* 1 value pushed */
35 
LT[ ]\011/* LessThan */
IF[ ]\011/* If */
NPUSHB[ ]\011/* 38 values pushed */
9 1 0 1 1 30 0 3 3 4 1 0 36 0 4 4 19 31 5 1 2 2 14 31 0 1 1 0 1 0 36 0 0 0 16 0 32 6 
ELSE[ ]\011/* Else */
MPPEM[ ]\011/* MeasurePixelPerEm */
PUSHB[ ]\011/* 1 value pushed */
108 
LT[ ]\011/* LessThan */
IF[ ]\011/* If */
NPUSHB[ ]\011/* 35 values pushed */
9 1 0 1 1 30 0 1 0 0 1 0 1 0 37 0 3 3 4 1 0 36 0 4 4 19 31 5 1 2 2 14 2 32 5 
ELSE[ ]\011/* Else */
MPPEM[ ]\011/* MeasurePixelPerEm */
PUSHB[ ]\011/* 1 value pushed */
252 
LT[ ]\011/* LessThan */
IF[ ]\011/* If */
NPUSHB[ ]\011/* 38 values pushed */
9 1 0 1 1 30 5 1 2 3 1 3 2 1 50 0 1 0 0 1 0 1 0 37 0 3 3 4 1 0 36 0 4 4 19 3 32 5 
ELSE[ ]\011/* Else */
NPUSHB[ ]\011/* 48 values pushed */
9 1 0 1 1 30 5 1 2 3 1 3 2 1 50 0 4 0 3 2 4 3 1 0 38 0 1 0 0 1 1 0 35 0 1 1 0 1 0 36 0 0 1 0 1 0 33 6 
EIF[ ]\011/* EndIf */
EIF[ ]\011/* EndIf */
EIF[ ]\011/* EndIf */
PUSHB[ ]\011/* 1 value pushed */
56 
CALL[ ]\011/* CallFunction */";
};
width = 534;
}
);
note = j;
unicode = 006A;
},
{
glyphname = k;
layers = (
{
layerId = "10974C74-6ED2-4F66-BD25-910E45086E66";
paths = (
{
closed = 1;
nodes = (
"231 1497 LINE",
"47 0 LINE",
"353 0 LINE",
"409 459 LINE",
"441 459 LINE SMOOTH",
"478.333 459 OFFCURVE",
"490.333 452.333 OFFCURVE",
"505 419 CURVE",
"649 52 LINE SMOOTH",
"665 13.333 OFFCURVE",
"693 0 OFFCURVE",
"737 0 CURVE SMOOTH",
"1007 0 LINE",
"799 496 LINE SMOOTH",
"783 534.667 OFFCURVE",
"763 564.333 OFFCURVE",
"735 587 CURVE",
"769.667 607 OFFCURVE",
"802.333 633.333 OFFCURVE",
"829 668 CURVE SMOOTH",
"1119 1037 LINE",
"841 1037 LINE SMOOTH",
"797 1037 OFFCURVE",
"768.333 1021.667 OFFCURVE",
"743 987 CURVE SMOOTH",
"529 695 LINE SMOOTH",
"507.667 667 OFFCURVE",
"489.667 658 OFFCURVE",
"455 658 CURVE SMOOTH",
"434 658 LINE",
"537 1497 LINE"
);
}
);
userData = {
assembly = "NPUSHB[ ]\011/* 18 values pushed */
0 0 0 30 0 30 29 28 27 25 20 18 10 8 3 1 7 7 
CALL[ ]\011/* CallFunction */
MPPEM[ ]\011/* MeasurePixelPerEm */
PUSHB[ ]\011/* 1 value pushed */
94 
LT[ ]\011/* LessThan */
IF[ ]\011/* If */
NPUSHB[ ]\011/* 35 values pushed */
14 1 3 0 1 30 0 0 0 3 2 0 3 1 2 38 6 1 5 5 13 31 0 1 1 14 31 4 1 2 2 12 2 32 5 
ELSE[ ]\011/* Else */
MPPEM[ ]\011/* MeasurePixelPerEm */
PUSHB[ ]\011/* 1 value pushed */
108 
LT[ ]\011/* LessThan */
IF[ ]\011/* If */
NPUSHB[ ]\011/* 37 values pushed */
14 1 3 0 1 30 0 0 0 3 2 0 3 1 2 38 6 1 5 5 13 31 4 1 2 2 1 1 0 36 0 1 1 14 2 32 5 
ELSE[ ]\011/* Else */
MPPEM[ ]\011/* MeasurePixelPerEm */
PUSHB[ ]\011/* 1 value pushed */
252 
LT[ ]\011/* LessThan */
IF[ ]\011/* If */
NPUSHB[ ]\011/* 34 values pushed */
14 1 3 0 1 30 0 0 0 3 2 0 3 1 2 38 0 1 4 1 2 1 2 1 0 37 6 1 5 5 13 5 32 4 
ELSE[ ]\011/* Else */
MPPEM[ ]\011/* MeasurePixelPerEm */
PUSHB[ ]\011/* 1 value pushed */
232 
LT[ ]\011/* LessThan */
IF[ ]\011/* If */
NPUSHB[ ]\011/* 46 values pushed */
14 1 3 0 1 30 6 1 5 1 5 52 0 1 0 2 1 1 0 35 0 0 0 3 2 0 3 1 2 38 0 1 1 2 1 0 36 4 1 2 1 2 1 0 33 6 
ELSE[ ]\011/* Else */
NPUSHB[ ]\011/* 53 values pushed */
14 1 3 0 1 30 6 1 5 1 5 52 0 4 3 2 3 4 2 50 0 1 0 2 1 1 0 35 0 0 0 3 4 0 3 1 2 38 0 1 1 2 1 0 36 0 2 1 2 1 0 33 7 
EIF[ ]\011/* EndIf */
EIF[ ]\011/* EndIf */
EIF[ ]\011/* EndIf */
EIF[ ]\011/* EndIf */
PUSHB[ ]\011/* 1 value pushed */
56 
CALL[ ]\011/* CallFunction */";
};
width = 1074;
}
);
note = k;
unicode = 006B;
},
{
glyphname = l;
layers = (
{
layerId = "10974C74-6ED2-4F66-BD25-910E45086E66";
paths = (
{
closed = 1;
nodes = (
"349 0 LINE",
"531 1497 LINE",
"225 1497 LINE",
"43 0 LINE"
);
}
);
userData = {
assembly = "NPUSHB[ ]\011/* 10 values pushed */
0 0 0 3 0 3 2 1 3 7 
CALL[ ]\011/* CallFunction */
MPPEM[ ]\011/* MeasurePixelPerEm */
PUSHB[ ]\011/* 1 value pushed */
94 
LT[ ]\011/* LessThan */
IF[ ]\011/* If */
NPUSHB[ ]\011/* 13 values pushed */
0 0 0 13 31 2 1 1 1 12 1 32 2 
ELSE[ ]\011/* Else */
MPPEM[ ]\011/* MeasurePixelPerEm */
PUSHB[ ]\011/* 1 value pushed */
252 
LT[ ]\011/* LessThan */
IF[ ]\011/* If */
NPUSHB[ ]\011/* 15 values pushed */
2 1 1 1 0 0 0 36 0 0 0 13 1 32 2 
ELSE[ ]\011/* Else */
NPUSHB[ ]\011/* 24 values pushed */
0 0 1 1 0 0 0 35 0 0 0 1 0 0 36 2 1 1 0 1 0 0 33 3 
EIF[ ]\011/* EndIf */
EIF[ ]\011/* EndIf */
PUSHB[ ]\011/* 1 value pushed */
56 
CALL[ ]\011/* CallFunction */";
};
width = 520;
}
);
note = l;
unicode = 006C;
},
{
glyphname = lslash;
layers = (
{
layerId = "10974C74-6ED2-4F66-BD25-910E45086E66";
paths = (
{
closed = 1;
nodes = (
"67 566 LINE",
"187 613 LINE",
"113 0 LINE",
"419 0 LINE",
"506 720 LINE",
"637 774 LINE SMOOTH",
"663.667 784 OFFCURVE",
"677 804.667 OFFCURVE",
"677 836 CURVE SMOOTH",
"677 1010 LINE",
"535 954 LINE",
"601 1497 LINE",
"295 1497 LINE",
"216 846 LINE",
"103 800 LINE SMOOTH",
"79 790 OFFCURVE",
"67 772 OFFCURVE",
"67 746 CURVE SMOOTH"
);
}
);
userData = {
assembly = "NPUSHB[ ]\011/* 6 values pushed */
13 12 5 4 2 7 
CALL[ ]\011/* CallFunction */
MPPEM[ ]\011/* MeasurePixelPerEm */
PUSHB[ ]\011/* 1 value pushed */
94 
LT[ ]\011/* LessThan */
IF[ ]\011/* If */
NPUSHB[ ]\011/* 21 values pushed */
15 14 7 6 4 1 0 1 30 0 0 0 13 31 0 1 1 12 1 32 3 
ELSE[ ]\011/* Else */
MPPEM[ ]\011/* MeasurePixelPerEm */
PUSHB[ ]\011/* 1 value pushed */
252 
LT[ ]\011/* LessThan */
IF[ ]\011/* If */
NPUSHB[ ]\011/* 23 values pushed */
15 14 7 6 4 1 0 1 30 0 1 1 0 0 0 36 0 0 0 13 1 32 3 
ELSE[ ]\011/* Else */
NPUSHB[ ]\011/* 32 values pushed */
15 14 7 6 4 1 0 1 30 0 0 1 1 0 0 0 35 0 0 0 1 0 0 36 0 1 0 1 0 0 33 4 
EIF[ ]\011/* EndIf */
EIF[ ]\011/* EndIf */
PUSHB[ ]\011/* 1 value pushed */
56 
CALL[ ]\011/* CallFunction */";
};
width = 664;
}
);
note = lslash;
unicode = 0142;
},
{
glyphname = m;
layers = (
{
layerId = "10974C74-6ED2-4F66-BD25-910E45086E66";
paths = (
{
closed = 1;
nodes = (
"339 0 LINE",
"407 563 LINE",
"445.682 698.387 OFFCURVE",
"513.992 808 OFFCURVE",
"605 808 CURVE SMOOTH",
"647.667 808 OFFCURVE",
"669 785 OFFCURVE",
"669 717 CURVE SMOOTH",
"669 699.667 OFFCURVE",
"667.667 681.667 OFFCURVE",
"665 659 CURVE SMOOTH",
"587 0 LINE",
"893 0 LINE",
"960 568 LINE",
"998.782 701.312 OFFCURVE",
"1067.135 808 OFFCURVE",
"1157 808 CURVE SMOOTH",
"1199.667 808 OFFCURVE",
"1221 785 OFFCURVE",
"1221 717 CURVE SMOOTH",
"1221 699.667 OFFCURVE",
"1219.667 681.667 OFFCURVE",
"1217 659 CURVE SMOOTH",
"1139 0 LINE",
"1445 0 LINE",
"1523 659 LINE SMOOTH",
"1525.667 687 OFFCURVE",
"1528 714.667 OFFCURVE",
"1528 740 CURVE SMOOTH",
"1528 841.333 OFFCURVE",
"1502.167 918.667 OFFCURVE",
"1457.5 972 CURVE SMOOTH",
"1412.833 1025.333 OFFCURVE",
"1348.333 1053 OFFCURVE",
"1271 1053 CURVE SMOOTH",
"1133.667 1053 OFFCURVE",
"1027 983.333 OFFCURVE",
"935 830 CURVE",
"913.667 975.333 OFFCURVE",
"832.333 1053 OFFCURVE",
"715 1053 CURVE SMOOTH",
"608.333 1053 OFFCURVE",
"511 997.333 OFFCURVE",
"423 880 CURVE",
"423 941 LINE SMOOTH",
"423 1009 OFFCURVE",
"385 1037 OFFCURVE",
"321 1037 CURVE SMOOTH",
"161 1037 LINE",
"35 0 LINE"
);
}
);
userData = {
assembly = "NPUSHB[ ]\011/* 22 values pushed */
0 0 0 52 0 52 47 45 39 38 33 31 25 24 16 14 10 8 3 1 9 7 
CALL[ ]\011/* CallFunction */
MPPEM[ ]\011/* MeasurePixelPerEm */
PUSHB[ ]\011/* 1 value pushed */
30 
LT[ ]\011/* LessThan */
IF[ ]\011/* If */
NPUSHB[ ]\011/* 32 values pushed */
12 6 2 4 0 1 30 6 1 4 4 0 1 0 36 2 1 2 0 0 14 31 8 7 5 3 3 3 12 3 32 4 
ELSE[ ]\011/* Else */
MPPEM[ ]\011/* MeasurePixelPerEm */
PUSHB[ ]\011/* 1 value pushed */
94 
LT[ ]\011/* LessThan */
IF[ ]\011/* If */
NPUSHB[ ]\011/* 36 values pushed */
12 6 2 4 0 1 30 0 0 0 14 31 6 1 4 4 1 1 0 36 2 1 1 1 20 31 8 7 5 3 3 3 12 3 32 5 
ELSE[ ]\011/* Else */
MPPEM[ ]\011/* MeasurePixelPerEm */
PUSHB[ ]\011/* 1 value pushed */
108 
LT[ ]\011/* LessThan */
IF[ ]\011/* If */
NPUSHB[ ]\011/* 38 values pushed */
12 6 2 4 0 1 30 6 1 4 4 1 1 0 36 2 1 1 1 20 31 8 7 5 3 3 3 0 1 0 36 0 0 0 14 3 32 5 
ELSE[ ]\011/* Else */
MPPEM[ ]\011/* MeasurePixelPerEm */
PUSHB[ ]\011/* 1 value pushed */
232 
LT[ ]\011/* LessThan */
IF[ ]\011/* If */
NPUSHB[ ]\011/* 45 values pushed */
12 6 2 4 0 1 30 0 0 4 3 0 1 0 35 2 1 1 6 1 4 3 1 4 1 0 38 0 0 0 3 0 0 36 8 7 5 3 3 0 3 0 0 33 5 
ELSE[ ]\011/* Else */
NPUSHB[ ]\011/* 64 values pushed */
12 6 2 6 0 1 30 0 6 0 4 0 6 4 50 0 3 5 3 53 0 1 2 5 1 1 0 35 0 2 0 4 7 2 4 1 0 38 0 0 8 1 7 5 0 7 0 0 38 0 1 1 5 0 0 36 0 5 1 5 0 0 33 8 
EIF[ ]\011/* EndIf */
EIF[ ]\011/* EndIf */
EIF[ ]\011/* EndIf */
EIF[ ]\011/* EndIf */
PUSHB[ ]\011/* 1 value pushed */
56 
CALL[ ]\011/* CallFunction */";
};
width = 1594;
}
);
note = m;
unicode = 006D;
},
{
glyphname = n;
layers = (
{
layerId = "10974C74-6ED2-4F66-BD25-910E45086E66";
paths = (
{
closed = 1;
nodes = (
"951 0 LINE",
"1029 659 LINE SMOOTH",
"1031.667 685.667 OFFCURVE",
"1034 711 OFFCURVE",
"1034 735 CURVE SMOOTH",
"1034 837.667 OFFCURVE",
"1005.667 916.5 OFFCURVE",
"959 970.5 CURVE SMOOTH",
"912.333 1024.5 OFFCURVE",
"846.333 1053 OFFCURVE",
"769 1053 CURVE SMOOTH",
"642.333 1053 OFFCURVE",
"521 991.333 OFFCURVE",
"421 858 CURVE",
"421 941 LINE SMOOTH",
"421 1009 OFFCURVE",
"383 1037 OFFCURVE",
"319 1037 CURVE SMOOTH",
"159 1037 LINE",
"35 0 LINE",
"345 0 LINE",
"402 515 LINE",
"423.333 603 OFFCURVE",
"462.833 677.333 OFFCURVE",
"507.5 728 CURVE SMOOTH",
"552.167 778.667 OFFCURVE",
"603.667 808 OFFCURVE",
"649 808 CURVE SMOOTH",
"698.333 808 OFFCURVE",
"723 784.667 OFFCURVE",
"723 714 CURVE SMOOTH",
"723 698 OFFCURVE",
"721.667 680.333 OFFCURVE",
"719 659 CURVE SMOOTH",
"641 0 LINE"
);
}
);
userData = {
assembly = "NPUSHB[ ]\011/* 16 values pushed */
0 0 0 32 0 32 24 22 17 15 14 13 8 6 6 7 
CALL[ ]\011/* CallFunction */
MPPEM[ ]\011/* MeasurePixelPerEm */
PUSHB[ ]\011/* 1 value pushed */
30 
LT[ ]\011/* LessThan */
IF[ ]\011/* If */
NPUSHB[ ]\011/* 28 values pushed */
20 1 0 2 1 30 0 0 0 2 1 0 36 3 1 2 2 14 31 5 4 2 1 1 12 1 32 4 
ELSE[ ]\011/* Else */
MPPEM[ ]\011/* MeasurePixelPerEm */
PUSHB[ ]\011/* 1 value pushed */
94 
LT[ ]\011/* LessThan */
IF[ ]\011/* If */
NPUSHB[ ]\011/* 32 values pushed */
20 1 0 2 1 30 0 2 2 14 31 0 0 0 3 1 0 36 0 3 3 20 31 5 4 2 1 1 12 1 32 5 
ELSE[ ]\011/* Else */
MPPEM[ ]\011/* MeasurePixelPerEm */
PUSHB[ ]\011/* 1 value pushed */
108 
LT[ ]\011/* LessThan */
IF[ ]\011/* If */
NPUSHB[ ]\011/* 34 values pushed */
20 1 0 2 1 30 0 0 0 3 1 0 36 0 3 3 20 31 5 4 2 1 1 2 1 0 36 0 2 2 14 1 32 5 
ELSE[ ]\011/* Else */
MPPEM[ ]\011/* MeasurePixelPerEm */
PUSHB[ ]\011/* 1 value pushed */
232 
LT[ ]\011/* LessThan */
IF[ ]\011/* If */
NPUSHB[ ]\011/* 41 values pushed */
20 1 0 2 1 30 0 2 0 1 2 1 0 35 0 3 0 0 1 3 0 1 0 38 0 2 2 1 0 0 36 5 4 2 1 2 1 0 0 33 5 
ELSE[ ]\011/* Else */
NPUSHB[ ]\011/* 48 values pushed */
20 1 0 2 1 30 5 1 4 0 1 0 4 1 50 0 2 0 1 2 1 0 35 0 3 0 0 4 3 0 1 0 38 0 2 2 1 0 0 36 0 1 2 1 0 0 33 6 
EIF[ ]\011/* EndIf */
EIF[ ]\011/* EndIf */
EIF[ ]\011/* EndIf */
EIF[ ]\011/* EndIf */
PUSHB[ ]\011/* 1 value pushed */
56 
CALL[ ]\011/* CallFunction */";
};
width = 1100;
}
);
note = n;
unicode = 006E;
},
{
glyphname = o;
layers = (
{
layerId = "10974C74-6ED2-4F66-BD25-910E45086E66";
paths = (
{
closed = 1;
nodes = (
"379 214 OFFCURVE",
"341 276 OFFCURVE",
"341 424 CURVE SMOOTH",
"341 533.333 OFFCURVE",
"362.5 634 OFFCURVE",
"400.5 706 CURVE SMOOTH",
"438.5 778 OFFCURVE",
"493.667 823 OFFCURVE",
"563 823 CURVE SMOOTH",
"655 823 OFFCURVE",
"693 763.667 OFFCURVE",
"693 613 CURVE SMOOTH",
"693 503.667 OFFCURVE",
"671.5 404.167 OFFCURVE",
"633.5 331.5 CURVE SMOOTH",
"595.5 258.833 OFFCURVE",
"540.333 214 OFFCURVE",
"471 214 CURVE SMOOTH"
);
},
{
closed = 1;
nodes = (
"592.333 -16 OFFCURVE",
"732.333 50.833 OFFCURVE",
"835 163.5 CURVE SMOOTH",
"937.667 276.167 OFFCURVE",
"1003 433.667 OFFCURVE",
"1003 615 CURVE SMOOTH",
"1003 756.333 OFFCURVE",
"957.5 865.5 OFFCURVE",
"883.5 939.5 CURVE SMOOTH",
"809.5 1013.5 OFFCURVE",
"707 1053 OFFCURVE",
"591 1053 CURVE SMOOTH",
"441.667 1053 OFFCURVE",
"301.667 987 OFFCURVE",
"199 875 CURVE SMOOTH",
"96.333 763 OFFCURVE",
"31 606 OFFCURVE",
"31 422 CURVE SMOOTH",
"31 280.667 OFFCURVE",
"75.5 171.5 OFFCURVE",
"149.5 97.5 CURVE SMOOTH",
"223.5 23.5 OFFCURVE",
"327 -16 OFFCURVE",
"443 -16 CURVE SMOOTH"
);
}
);
userData = {
assembly = "NPUSHB[ ]\011/* 18 values pushed */
17 16 1 0 27 25 16 35 17 35 9 7 0 15 1 15 6 7 
CALL[ ]\011/* CallFunction */
MPPEM[ ]\011/* MeasurePixelPerEm */
PUSHB[ ]\011/* 1 value pushed */
94 
LT[ ]\011/* LessThan */
IF[ ]\011/* If */
NPUSHB[ ]\011/* 28 values pushed */
0 1 1 3 1 0 36 0 3 3 20 31 4 1 0 0 2 1 0 36 5 1 2 2 18 2 32 4 
ELSE[ ]\011/* Else */
MPPEM[ ]\011/* MeasurePixelPerEm */
PUSHB[ ]\011/* 1 value pushed */
108 
LT[ ]\011/* LessThan */
IF[ ]\011/* If */
NPUSHB[ ]\011/* 25 values pushed */
4 1 0 5 1 2 0 2 1 0 37 0 1 1 3 1 0 36 0 3 3 20 1 32 3 
ELSE[ ]\011/* Else */
NPUSHB[ ]\011/* 36 values pushed */
0 3 0 1 0 3 1 1 0 38 4 1 0 2 2 0 1 0 35 4 1 0 0 2 1 0 36 5 1 2 0 2 1 0 33 4 
EIF[ ]\011/* EndIf */
EIF[ ]\011/* EndIf */
PUSHB[ ]\011/* 1 value pushed */
56 
CALL[ ]\011/* CallFunction */";
};
width = 1034;
}
);
note = o;
unicode = 006F;
},
{
glyphname = oslash;
layers = (
{
layerId = "10974C74-6ED2-4F66-BD25-910E45086E66";
paths = (
{
closed = 1;
nodes = (
"592.333 -16 OFFCURVE",
"732.333 50.833 OFFCURVE",
"835 163.5 CURVE SMOOTH",
"937.667 276.167 OFFCURVE",
"1003 433.667 OFFCURVE",
"1003 615 CURVE SMOOTH",
"1003 727 OFFCURVE",
"975 817.333 OFFCURVE",
"927 888 CURVE",
"1071 1084 LINE",
"919 1084 LINE SMOOTH",
"851.007 1084 OFFCURVE",
"825.128 1063.504 OFFCURVE",
"785 1010 CURVE",
"725.667 1038.667 OFFCURVE",
"661 1053 OFFCURVE",
"591 1053 CURVE SMOOTH",
"441.667 1053 OFFCURVE",
"301.667 987 OFFCURVE",
"199 875 CURVE SMOOTH",
"96.333 763 OFFCURVE",
"31 606 OFFCURVE",
"31 422 CURVE SMOOTH",
"31 310 OFFCURVE",
"58 219.667 OFFCURVE",
"106 149 CURVE",
"-35 -43 LINE",
"77 -43 LINE SMOOTH",
"135.667 -43 OFFCURVE",
"200 -23.667 OFFCURVE",
"248 27 CURVE",
"306.667 -1.667 OFFCURVE",
"371.667 -16 OFFCURVE",
"443 -16 CURVE SMOOTH"
);
},
{
closed = 1;
nodes = (
"448.333 195 OFFCURVE",
"427.667 199.667 OFFCURVE",
"409 209 CURVE",
"712 631 LINE",
"712 627.667 OFFCURVE",
"712.167 624.667 OFFCURVE",
"712.5 622 CURVE SMOOTH",
"712.833 619.333 OFFCURVE",
"713 616.333 OFFCURVE",
"713 613 CURVE SMOOTH",
"713 485 OFFCURVE",
"686.833 380 OFFCURVE",
"643.5 308 CURVE SMOOTH",
"600.167 236 OFFCURVE",
"540.333 195 OFFCURVE",
"471 195 CURVE SMOOTH"
);
},
{
closed = 1;
nodes = (
"321 424 LINE SMOOTH",
"321 553.333 OFFCURVE",
"347.167 658 OFFCURVE",
"390.5 730 CURVE SMOOTH",
"433.833 802 OFFCURVE",
"493.667 842 OFFCURVE",
"563 842 CURVE SMOOTH",
"583.667 842 OFFCURVE",
"603.333 837.667 OFFCURVE",
"622 829 CURVE",
"321 407 LINE"
);
}
);
userData = {
assembly = "NPUSHB[ ]\011/* 22 values pushed */
33 32 1 0 47 45 32 42 33 42 23 21 16 14 6 4 0 31 1 31 8 7 
CALL[ ]\011/* CallFunction */
MPPEM[ ]\011/* MeasurePixelPerEm */
PUSHB[ ]\011/* 1 value pushed */
16 
LT[ ]\011/* LessThan */
IF[ ]\011/* If */
NPUSHB[ ]\011/* 49 values pushed */
24 17 2 5 2 44 43 41 40 4 4 5 7 2 2 0 4 3 30 0 5 5 2 1 0 36 3 1 2 2 20 31 7 1 4 4 0 1 0 36 1 6 2 0 0 18 0 32 5 
ELSE[ ]\011/* Else */
MPPEM[ ]\011/* MeasurePixelPerEm */
PUSHB[ ]\011/* 1 value pushed */
18 
LT[ ]\011/* LessThan */
IF[ ]\011/* If */
NPUSHB[ ]\011/* 53 values pushed */
24 17 2 5 2 44 43 41 40 4 4 5 7 2 2 0 4 3 30 0 3 3 20 31 0 5 5 2 1 0 36 0 2 2 20 31 7 1 4 4 0 1 0 36 1 6 2 0 0 18 0 32 6 
ELSE[ ]\011/* Else */
MPPEM[ ]\011/* MeasurePixelPerEm */
PUSHB[ ]\011/* 1 value pushed */
30 
LT[ ]\011/* LessThan */
IF[ ]\011/* If */
NPUSHB[ ]\011/* 57 values pushed */
24 17 2 5 2 44 43 41 40 4 4 5 7 2 2 0 4 3 30 0 3 3 20 31 0 5 5 2 1 0 36 0 2 2 20 31 7 1 4 4 0 1 0 36 6 1 0 0 18 31 0 1 1 18 1 32 7 
ELSE[ ]\011/* Else */
MPPEM[ ]\011/* MeasurePixelPerEm */
PUSHB[ ]\011/* 1 value pushed */
37 
LT[ ]\011/* LessThan */
IF[ ]\011/* If */
NPUSHB[ ]\011/* 57 values pushed */
24 17 2 5 2 44 43 41 40 4 4 5 7 2 2 0 4 3 30 0 3 2 3 52 0 5 5 2 1 0 36 0 2 2 20 31 7 1 4 4 0 1 0 36 6 1 0 0 18 31 0 1 1 18 1 32 7 
ELSE[ ]\011/* Else */
MPPEM[ ]\011/* MeasurePixelPerEm */
PUSHB[ ]\011/* 1 value pushed */
94 
LT[ ]\011/* LessThan */
IF[ ]\011/* If */
NPUSHB[ ]\011/* 57 values pushed */
24 17 2 5 2 44 43 41 40 4 4 5 7 2 2 0 4 3 30 0 3 2 3 52 0 1 0 1 53 0 5 5 2 1 0 36 0 2 2 20 31 7 1 4 4 0 1 0 36 6 1 0 0 18 0 32 7 
ELSE[ ]\011/* Else */
MPPEM[ ]\011/* MeasurePixelPerEm */
PUSHB[ ]\011/* 1 value pushed */
108 
LT[ ]\011/* LessThan */
IF[ ]\011/* If */
NPUSHB[ ]\011/* 55 values pushed */
24 17 2 5 2 44 43 41 40 4 4 5 7 2 2 0 4 3 30 0 3 2 3 52 0 1 0 1 53 7 1 4 6 1 0 1 4 0 1 0 38 0 5 5 2 1 0 36 0 2 2 20 5 32 6 
ELSE[ ]\011/* Else */
NPUSHB[ ]\011/* 65 values pushed */
24 17 2 5 2 44 43 41 40 4 4 5 7 2 2 0 4 3 30 0 3 2 3 52 0 1 0 1 53 0 2 0 5 4 2 5 1 0 38 7 1 4 0 0 4 1 0 35 7 1 4 4 0 1 0 36 6 1 0 4 0 1 0 33 7 
EIF[ ]\011/* EndIf */
EIF[ ]\011/* EndIf */
EIF[ ]\011/* EndIf */
EIF[ ]\011/* EndIf */
EIF[ ]\011/* EndIf */
EIF[ ]\011/* EndIf */
PUSHB[ ]\011/* 1 value pushed */
56 
CALL[ ]\011/* CallFunction */";
};
width = 1034;
}
);
note = oslash;
unicode = 00F8;
},
{
glyphname = oe;
layers = (
{
layerId = "10974C74-6ED2-4F66-BD25-910E45086E66";
paths = (
{
closed = 1;
nodes = (
"1086.667 1051 OFFCURVE",
"971.667 1000 OFFCURVE",
"885 916 CURVE",
"825 1002.667 OFFCURVE",
"731.667 1051 OFFCURVE",
"609 1051 CURVE SMOOTH",
"560.333 1051 OFFCURVE",
"512.333 1044.5 OFFCURVE",
"465 1031.5 CURVE SMOOTH",
"370.333 1005.5 OFFCURVE",
"284 954 OFFCURVE",
"212 878 CURVE SMOOTH",
"176 840 OFFCURVE",
"144.833 795.5 OFFCURVE",
"118.5 744.5 CURVE SMOOTH",
"65.833 642.5 OFFCURVE",
"34 516.667 OFFCURVE",
"34 366 CURVE SMOOTH",
"34 263.333 OFFCURVE",
"65.833 168.5 OFFCURVE",
"126.5 98.5 CURVE SMOOTH",
"187.167 28.5 OFFCURVE",
"275.667 -16 OFFCURVE",
"389 -16 CURVE SMOOTH",
"542.333 -16 OFFCURVE",
"675 45 OFFCURVE",
"775 153 CURVE",
"843 37 OFFCURVE",
"951.333 -16 OFFCURVE",
"1070 -16 CURVE SMOOTH",
"1168.667 -16 OFFCURVE",
"1250.5 -0.5 OFFCURVE",
"1324.5 33.5 CURVE SMOOTH",
"1398.5 67.5 OFFCURVE",
"1466.667 120 OFFCURVE",
"1540 192 CURVE",
"1460 285 LINE SMOOTH",
"1445.333 301 OFFCURVE",
"1426 312 OFFCURVE",
"1406 312 CURVE SMOOTH",
"1362.431 312 OFFCURVE",
"1331.295 287.53 OFFCURVE",
"1296 264 CURVE SMOOTH",
"1255.104 236.736 OFFCURVE",
"1205.456 216 OFFCURVE",
"1132 216 CURVE SMOOTH",
"1024 216 OFFCURVE",
"960.333 276 OFFCURVE",
"951 420 CURVE",
"1184.333 444 OFFCURVE",
"1334.333 487.833 OFFCURVE",
"1425 548.5 CURVE SMOOTH",
"1515.667 609.167 OFFCURVE",
"1549 686.667 OFFCURVE",
"1549 780 CURVE SMOOTH",
"1549 861.333 OFFCURVE",
"1516.833 929.167 OFFCURVE",
"1461.5 976.5 CURVE SMOOTH",
"1406.167 1023.833 OFFCURVE",
"1326.667 1051 OFFCURVE",
"1232 1051 CURVE SMOOTH"
);
},
{
closed = 1;
nodes = (
"368.928 206 OFFCURVE",
"336 285.83 OFFCURVE",
"336 382 CURVE SMOOTH",
"336 515.333 OFFCURVE",
"358.667 626.333 OFFCURVE",
"400 705 CURVE SMOOTH",
"441.333 783.667 OFFCURVE",
"502.333 829 OFFCURVE",
"581 829 CURVE SMOOTH",
"665 829 OFFCURVE",
"705 765.667 OFFCURVE",
"705 651 CURVE SMOOTH",
"705 636.333 OFFCURVE",
"704.333 623 OFFCURVE",
"703 607 CURVE SMOOTH",
"695 485.667 OFFCURVE",
"673.667 385.5 OFFCURVE",
"635 315.5 CURVE SMOOTH",
"596.333 245.5 OFFCURVE",
"540.333 206 OFFCURVE",
"463 206 CURVE SMOOTH"
);
},
{
closed = 1;
nodes = (
"1255 844 OFFCURVE",
"1289 810.333 OFFCURVE",
"1289 769 CURVE SMOOTH",
"1289 737 OFFCURVE",
"1273.333 705.333 OFFCURVE",
"1224 676 CURVE SMOOTH",
"1174.667 646.667 OFFCURVE",
"1094 620 OFFCURVE",
"962 600 CURVE",
"992.667 761.333 OFFCURVE",
"1076.333 844 OFFCURVE",
"1183 844 CURVE SMOOTH"
);
}
);
userData = {
assembly = "NPUSHB[ ]\011/* 32 values pushed */
75 74 54 53 1 0 74 84 75 84 65 63 53 73 54 73 48 46 36 34 30 28 21 19 14 12 0 52 1 52 12 7 
CALL[ ]\011/* CallFunction */
MPPEM[ ]\011/* MeasurePixelPerEm */
PUSHB[ ]\011/* 1 value pushed */
32 
LT[ ]\011/* LessThan */
IF[ ]\011/* If */
NPUSHB[ ]\011/* 58 values pushed */
50 1 7 0 77 58 10 3 2 7 32 24 2 3 1 3 30 0 2 7 1 7 2 1 50 11 8 2 7 7 0 1 0 36 5 9 2 0 0 20 31 10 6 2 1 1 3 1 0 36 4 1 3 3 18 3 32 6 
ELSE[ ]\011/* Else */
MPPEM[ ]\011/* MeasurePixelPerEm */
PUSHB[ ]\011/* 1 value pushed */
49 
LT[ ]\011/* LessThan */
IF[ ]\011/* If */
NPUSHB[ ]\011/* 71 values pushed */
50 1 8 0 77 58 10 3 2 7 32 24 2 3 1 3 30 0 2 7 1 7 2 1 50 11 1 8 8 0 1 0 36 5 9 2 0 0 20 31 0 7 7 0 1 0 36 5 9 2 0 0 20 31 10 6 2 1 1 3 1 0 36 4 1 3 3 18 3 32 8 
ELSE[ ]\011/* Else */
MPPEM[ ]\011/* MeasurePixelPerEm */
PUSHB[ ]\011/* 1 value pushed */
94 
LT[ ]\011/* LessThan */
IF[ ]\011/* If */
NPUSHB[ ]\011/* 83 values pushed */
50 1 8 0 77 58 10 3 2 7 32 24 2 3 6 3 30 0 2 7 1 7 2 1 50 11 1 8 8 0 1 0 36 5 9 2 0 0 20 31 0 7 7 0 1 0 36 5 9 2 0 0 20 31 0 1 1 3 1 0 36 4 1 3 3 18 31 10 1 6 6 3 1 0 36 4 1 3 3 18 3 32 10 
ELSE[ ]\011/* Else */
MPPEM[ ]\011/* MeasurePixelPerEm */
PUSHB[ ]\011/* 1 value pushed */
108 
LT[ ]\011/* LessThan */
IF[ ]\011/* If */
NPUSHB[ ]\011/* 75 values pushed */
50 1 8 0 77 58 10 3 2 7 32 24 2 3 6 3 30 0 2 7 1 7 2 1 50 0 1 6 3 1 1 0 35 10 1 6 4 1 3 6 3 1 0 37 11 1 8 8 0 1 0 36 5 9 2 0 0 20 31 0 7 7 0 1 0 36 5 9 2 0 0 20 7 32 8 
ELSE[ ]\011/* Else */
MPPEM[ ]\011/* MeasurePixelPerEm */
PUSHB[ ]\011/* 1 value pushed */
232 
LT[ ]\011/* LessThan */
IF[ ]\011/* If */
NPUSHB[ ]\011/* 80 values pushed */
50 1 8 0 77 58 10 3 2 7 32 24 2 3 6 3 30 0 2 7 1 7 2 1 50 11 1 8 7 0 8 1 0 35 5 9 2 0 0 7 2 0 7 1 0 38 0 1 6 3 1 1 0 35 10 1 6 3 3 6 1 0 35 10 1 6 6 3 1 0 36 4 1 3 6 3 1 0 33 8 
ELSE[ ]\011/* Else */
NPUSHB[ ]\011/* 81 values pushed */
50 1 8 5 77 58 10 3 2 7 32 24 2 4 6 3 30 0 2 7 1 7 2 1 50 9 1 0 11 1 8 7 0 8 1 0 38 0 5 0 7 2 5 7 1 0 38 0 1 6 3 1 1 0 35 10 1 6 0 4 3 6 4 1 0 38 0 1 1 3 1 0 36 0 3 1 3 1 0 33 8 
EIF[ ]\011/* EndIf */
EIF[ ]\011/* EndIf */
EIF[ ]\011/* EndIf */
EIF[ ]\011/* EndIf */
EIF[ ]\011/* EndIf */
PUSHB[ ]\011/* 1 value pushed */
56 
CALL[ ]\011/* CallFunction */";
};
width = 1568;
}
);
note = oe;
unicode = 0153;
},
{
glyphname = p;
layers = (
{
layerId = "10974C74-6ED2-4F66-BD25-910E45086E66";
paths = (
{
closed = 1;
nodes = (
"297 -329 LINE",
"345 61 LINE",
"397 14.333 OFFCURVE",
"464.333 -16 OFFCURVE",
"551 -16 CURVE SMOOTH",
"684.333 -16 OFFCURVE",
"810.667 62 OFFCURVE",
"904 186 CURVE SMOOTH",
"997.333 310 OFFCURVE",
"1057 478.667 OFFCURVE",
"1057 660 CURVE SMOOTH",
"1057 797.333 OFFCURVE",
"1026.833 896 OFFCURVE",
"975.5 960 CURVE SMOOTH",
"924.167 1024 OFFCURVE",
"852.333 1053 OFFCURVE",
"767 1053 CURVE SMOOTH",
"635 1053 OFFCURVE",
"517.667 975 OFFCURVE",
"423 847 CURVE",
"423 941 LINE SMOOTH",
"423 1009 OFFCURVE",
"385 1037 OFFCURVE",
"321 1037 CURVE SMOOTH",
"161 1037 LINE",
"-5 -329 LINE"
);
},
{
closed = 1;
nodes = (
"707 818 OFFCURVE",
"749 761 OFFCURVE",
"749 629 CURVE SMOOTH",
"749 525 OFFCURVE",
"723 420.5 OFFCURVE",
"679 342.5 CURVE SMOOTH",
"635 264.5 OFFCURVE",
"573 212 OFFCURVE",
"501 212 CURVE SMOOTH",
"458.333 212 OFFCURVE",
"407.667 224.333 OFFCURVE",
"369 255 CURVE",
"400 505 LINE",
"425.333 591.667 OFFCURVE",
"465.167 669.833 OFFCURVE",
"508.5 726.5 CURVE SMOOTH",
"551.833 783.167 OFFCURVE",
"600.333 818 OFFCURVE",
"643 818 CURVE SMOOTH"
);
}
);
userData = {
assembly = "NPUSHB[ ]\011/* 22 values pushed */
25 24 0 0 34 32 24 40 25 40 0 23 0 23 20 18 10 8 3 1 8 7 
CALL[ ]\011/* CallFunction */
MPPEM[ ]\011/* MeasurePixelPerEm */
PUSHB[ ]\011/* 1 value pushed */
30 
LT[ ]\011/* LessThan */
IF[ ]\011/* If */
NPUSHB[ ]\011/* 48 values pushed */
6 1 4 0 30 1 5 4 22 1 2 5 3 30 7 1 4 4 0 1 0 36 1 1 0 0 14 31 0 5 5 2 1 0 36 0 2 2 18 31 6 1 3 3 16 3 32 6 
ELSE[ ]\011/* Else */
MPPEM[ ]\011/* MeasurePixelPerEm */
PUSHB[ ]\011/* 1 value pushed */
94 
LT[ ]\011/* LessThan */
IF[ ]\011/* If */
NPUSHB[ ]\011/* 52 values pushed */
6 1 4 0 30 1 5 4 22 1 2 5 3 30 0 0 0 14 31 7 1 4 4 1 1 0 36 0 1 1 20 31 0 5 5 2 1 0 36 0 2 2 18 31 6 1 3 3 16 3 32 7 
ELSE[ ]\011/* Else */
MPPEM[ ]\011/* MeasurePixelPerEm */
PUSHB[ ]\011/* 1 value pushed */
108 
LT[ ]\011/* LessThan */
IF[ ]\011/* If */
NPUSHB[ ]\011/* 50 values pushed */
6 1 4 0 30 1 5 4 22 1 2 5 3 30 0 5 0 2 3 5 2 1 0 38 0 0 0 14 31 7 1 4 4 1 1 0 36 0 1 1 20 31 6 1 3 3 16 3 32 6 
ELSE[ ]\011/* Else */
NPUSHB[ ]\011/* 50 values pushed */
6 1 4 0 30 1 5 4 22 1 2 5 3 30 0 1 7 1 4 5 1 4 1 0 38 0 5 0 2 3 5 2 1 0 38 0 0 0 3 0 0 36 6 1 3 3 16 3 32 5 
EIF[ ]\011/* EndIf */
EIF[ ]\011/* EndIf */
EIF[ ]\011/* EndIf */
PUSHB[ ]\011/* 1 value pushed */
56 
CALL[ ]\011/* CallFunction */";
};
width = 1082;
}
);
note = p;
unicode = 0070;
},
{
glyphname = thorn;
layers = (
{
layerId = "10974C74-6ED2-4F66-BD25-910E45086E66";
paths = (
{
closed = 1;
nodes = (
"197 -329 LINE SMOOTH",
"261.031 -329 OFFCURVE",
"311.47 -283.535 OFFCURVE",
"317 -231 CURVE SMOOTH",
"353 61 LINE",
"405 14.333 OFFCURVE",
"472.333 -16 OFFCURVE",
"559 -16 CURVE SMOOTH",
"692.333 -16 OFFCURVE",
"818.667 62 OFFCURVE",
"912 186 CURVE SMOOTH",
"1005.333 310 OFFCURVE",
"1065 478.667 OFFCURVE",
"1065 660 CURVE SMOOTH",
"1065 797.333 OFFCURVE",
"1034.833 896 OFFCURVE",
"983.5 960 CURVE SMOOTH",
"932.167 1024 OFFCURVE",
"860.333 1053 OFFCURVE",
"775 1053 CURVE SMOOTH",
"653.667 1053 OFFCURVE",
"544.667 985.333 OFFCURVE",
"454 876 CURVE",
"531 1497 LINE",
"225 1497 LINE",
"3 -329 LINE"
);
},
{
closed = 1;
nodes = (
"715 818 OFFCURVE",
"757 761 OFFCURVE",
"757 629 CURVE SMOOTH",
"757 525 OFFCURVE",
"731 420.5 OFFCURVE",
"687 342.5 CURVE SMOOTH",
"643 264.5 OFFCURVE",
"581 212 OFFCURVE",
"509 212 CURVE SMOOTH",
"466.333 212 OFFCURVE",
"415.667 224.333 OFFCURVE",
"377 255 CURVE",
"408 505 LINE",
"433.333 591.667 OFFCURVE",
"473.167 669.833 OFFCURVE",
"516.5 726.5 CURVE SMOOTH",
"559.833 783.167 OFFCURVE",
"608.333 818 OFFCURVE",
"651 818 CURVE SMOOTH"
);
}
);
userData = {
assembly = "NPUSHB[ ]\011/* 22 values pushed */
27 26 0 0 36 34 26 42 27 42 0 25 0 24 17 15 7 5 2 1 8 7 
CALL[ ]\011/* CallFunction */
MPPEM[ ]\011/* MeasurePixelPerEm */
PUSHB[ ]\011/* 1 value pushed */
94 
LT[ ]\011/* LessThan */
IF[ ]\011/* If */
NPUSHB[ ]\011/* 52 values pushed */
3 1 4 1 32 1 5 4 19 1 2 5 3 30 0 0 0 13 31 7 1 4 4 1 1 0 36 0 1 1 20 31 0 5 5 2 1 2 36 0 2 2 18 31 6 1 3 3 16 3 32 7 
ELSE[ ]\011/* Else */
MPPEM[ ]\011/* MeasurePixelPerEm */
PUSHB[ ]\011/* 1 value pushed */
108 
LT[ ]\011/* LessThan */
IF[ ]\011/* If */
NPUSHB[ ]\011/* 50 values pushed */
3 1 4 1 32 1 5 4 19 1 2 5 3 30 0 5 0 2 3 5 2 1 2 38 0 0 0 13 31 7 1 4 4 1 1 0 36 0 1 1 20 31 6 1 3 3 16 3 32 6 
ELSE[ ]\011/* Else */
MPPEM[ ]\011/* MeasurePixelPerEm */
PUSHB[ ]\011/* 1 value pushed */
252 
LT[ ]\011/* LessThan */
IF[ ]\011/* If */
NPUSHB[ ]\011/* 48 values pushed */
3 1 4 1 32 1 5 4 19 1 2 5 3 30 0 1 7 1 4 5 1 4 1 0 38 0 5 0 2 3 5 2 1 2 38 0 0 0 13 31 6 1 3 3 16 3 32 5 
ELSE[ ]\011/* Else */
NPUSHB[ ]\011/* 48 values pushed */
3 1 4 1 32 1 5 4 19 1 2 5 3 30 0 0 1 0 52 0 1 7 1 4 5 1 4 1 0 38 0 5 0 2 3 5 2 1 2 38 6 1 3 3 16 3 32 5 
EIF[ ]\011/* EndIf */
EIF[ ]\011/* EndIf */
EIF[ ]\011/* EndIf */
PUSHB[ ]\011/* 1 value pushed */
56 
CALL[ ]\011/* CallFunction */";
};
width = 1090;
}
);
note = thorn;
unicode = 00FE;
},
{
glyphname = q;
layers = (
{
layerId = "10974C74-6ED2-4F66-BD25-910E45086E66";
paths = (
{
closed = 1;
nodes = (
"1023 1007 LINE",
"924.333 1041.667 OFFCURVE",
"821.667 1053 OFFCURVE",
"723 1053 CURVE SMOOTH",
"520.333 1053 OFFCURVE",
"347.833 972.667 OFFCURVE",
"224.5 846 CURVE SMOOTH",
"101.167 719.333 OFFCURVE",
"29 545 OFFCURVE",
"29 357 CURVE SMOOTH",
"29 229 OFFCURVE",
"63.667 135.167 OFFCURVE",
"117 74.5 CURVE SMOOTH",
"170.333 13.833 OFFCURVE",
"242.333 -16 OFFCURVE",
"317 -16 CURVE SMOOTH",
"430.333 -16 OFFCURVE",
"526.667 42 OFFCURVE",
"608 142 CURVE",
"561 -223 LINE",
"560.333 -226.333 OFFCURVE",
"560 -231.333 OFFCURVE",
"560 -238 CURVE SMOOTH",
"560 -284.602 OFFCURVE",
"587.631 -329 OFFCURVE",
"651 -329 CURVE SMOOTH",
"855 -329 LINE"
);
},
{
closed = 1;
nodes = (
"373.748 229 OFFCURVE",
"339 295.924 OFFCURVE",
"339 412 CURVE SMOOTH",
"339 529.333 OFFCURVE",
"373 635.5 OFFCURVE",
"433 713.5 CURVE SMOOTH",
"493 791.5 OFFCURVE",
"577.667 840 OFFCURVE",
"679 840 CURVE SMOOTH",
"697 840 LINE",
"660 550 LINE",
"637.333 462 OFFCURVE",
"604.5 381.5 OFFCURVE",
"566.5 323.5 CURVE SMOOTH",
"528.5 265.5 OFFCURVE",
"485 229 OFFCURVE",
"441 229 CURVE SMOOTH"
);
}
);
userData = {
assembly = "NPUSHB[ ]\011/* 16 values pushed */
27 26 34 32 26 42 27 42 23 21 13 11 2 0 6 7 
CALL[ ]\011/* CallFunction */
MPPEM[ ]\011/* MeasurePixelPerEm */
PUSHB[ ]\011/* 1 value pushed */
94 
LT[ ]\011/* LessThan */
IF[ ]\011/* If */
NPUSHB[ ]\011/* 43 values pushed */
25 1 4 2 9 1 1 3 2 30 5 1 3 4 1 4 3 1 50 0 4 4 2 1 0 36 0 2 2 20 31 0 1 1 18 31 0 0 0 16 0 32 6 
ELSE[ ]\011/* Else */
MPPEM[ ]\011/* MeasurePixelPerEm */
PUSHB[ ]\011/* 1 value pushed */
108 
LT[ ]\011/* LessThan */
IF[ ]\011/* If */
NPUSHB[ ]\011/* 45 values pushed */
25 1 4 2 9 1 1 3 2 30 5 1 3 4 1 4 3 1 50 0 1 0 4 1 0 48 0 4 4 2 1 0 36 0 2 2 20 31 0 0 0 16 0 32 6 
ELSE[ ]\011/* Else */
NPUSHB[ ]\011/* 43 values pushed */
25 1 4 2 9 1 1 3 2 30 5 1 3 4 1 4 3 1 50 0 1 0 4 1 0 48 0 2 0 4 3 2 4 1 0 38 0 0 0 16 0 32 5 
EIF[ ]\011/* EndIf */
EIF[ ]\011/* EndIf */
PUSHB[ ]\011/* 1 value pushed */
56 
CALL[ ]\011/* CallFunction */";
};
width = 1058;
}
);
note = q;
unicode = 0071;
},
{
glyphname = r;
layers = (
{
layerId = "10974C74-6ED2-4F66-BD25-910E45086E66";
paths = (
{
closed = 1;
nodes = (
"339 0 LINE",
"395 466 LINE",
"444.333 671.333 OFFCURVE",
"525.333 759 OFFCURVE",
"628 759 CURVE SMOOTH",
"658.667 759 OFFCURVE",
"691 751.667 OFFCURVE",
"725 737 CURVE",
"781 1024 LINE",
"753.667 1036.667 OFFCURVE",
"726 1043 OFFCURVE",
"698 1043 CURVE SMOOTH",
"598 1043 OFFCURVE",
"503 964.333 OFFCURVE",
"423 823 CURVE",
"423 941 LINE SMOOTH",
"423 1009 OFFCURVE",
"385 1037 OFFCURVE",
"321 1037 CURVE SMOOTH",
"161 1037 LINE",
"35 0 LINE"
);
}
);
userData = {
assembly = "NPUSHB[ ]\011/* 14 values pushed */
0 0 0 18 0 18 15 13 10 8 3 1 5 7 
CALL[ ]\011/* CallFunction */
MPPEM[ ]\011/* MeasurePixelPerEm */
PUSHB[ ]\011/* 1 value pushed */
77 
LT[ ]\011/* LessThan */
IF[ ]\011/* If */
NPUSHB[ ]\011/* 32 values pushed */
11 6 2 2 0 12 1 3 2 2 30 0 2 2 0 1 0 36 1 1 0 0 14 31 4 1 3 3 12 3 32 4 
ELSE[ ]\011/* Else */
MPPEM[ ]\011/* MeasurePixelPerEm */
PUSHB[ ]\011/* 1 value pushed */
94 
LT[ ]\011/* LessThan */
IF[ ]\011/* If */
NPUSHB[ ]\011/* 36 values pushed */
11 6 2 2 0 12 1 3 2 2 30 0 0 0 14 31 0 2 2 1 1 0 36 0 1 1 14 31 4 1 3 3 12 3 32 5 
ELSE[ ]\011/* Else */
MPPEM[ ]\011/* MeasurePixelPerEm */
PUSHB[ ]\011/* 1 value pushed */
108 
LT[ ]\011/* LessThan */
IF[ ]\011/* If */
NPUSHB[ ]\011/* 38 values pushed */
11 6 2 2 0 12 1 3 2 2 30 0 2 2 1 1 0 36 0 1 1 14 31 4 1 3 3 0 1 0 36 0 0 0 14 3 32 5 
ELSE[ ]\011/* Else */
NPUSHB[ ]\011/* 45 values pushed */
11 6 2 2 0 12 1 3 2 2 30 0 0 2 3 0 1 0 35 0 1 0 2 3 1 2 1 0 38 0 0 0 3 0 0 36 4 1 3 0 3 0 0 33 5 
EIF[ ]\011/* EndIf */
EIF[ ]\011/* EndIf */
EIF[ ]\011/* EndIf */
PUSHB[ ]\011/* 1 value pushed */
56 
CALL[ ]\011/* CallFunction */";
};
width = 750;
}
);
note = r;
unicode = 0072;
},
{
glyphname = s;
layers = (
{
layerId = "10974C74-6ED2-4F66-BD25-910E45086E66";
paths = (
{
closed = 1;
nodes = (
"823 929 LINE",
"752.333 998.333 OFFCURVE",
"641.667 1053 OFFCURVE",
"503 1053 CURVE SMOOTH",
"364.333 1053 OFFCURVE",
"260.5 1006.5 OFFCURVE",
"190.5 936.5 CURVE SMOOTH",
"120.5 866.5 OFFCURVE",
"85 772 OFFCURVE",
"85 676 CURVE SMOOTH",
"85 530.212 OFFCURVE",
"168.055 470.978 OFFCURVE",
"276 429 CURVE SMOOTH",
"367.432 393.443 OFFCURVE",
"467 374.549 OFFCURVE",
"467 292 CURVE SMOOTH",
"467 238.667 OFFCURVE",
"425 193 OFFCURVE",
"337 193 CURVE SMOOTH",
"234.765 193 OFFCURVE",
"191.647 269 OFFCURVE",
"129 269 CURVE SMOOTH",
"93 269 OFFCURVE",
"69.667 252.667 OFFCURVE",
"51 226 CURVE SMOOTH",
"-25 112 LINE",
"36.28 36.792 OFFCURVE",
"175.545 -16 OFFCURVE",
"297 -16 CURVE SMOOTH",
"434.333 -16 OFFCURVE",
"545.667 27.833 OFFCURVE",
"623 96.5 CURVE SMOOTH",
"700.333 165.167 OFFCURVE",
"743 261 OFFCURVE",
"743 365 CURVE SMOOTH",
"743 504.587 OFFCURVE",
"657.005 567.859 OFFCURVE",
"551 613.5 CURVE SMOOTH",
"462.815 651.468 OFFCURVE",
"359 674.638 OFFCURVE",
"359 749 CURVE SMOOTH",
"359 805 OFFCURVE",
"395 844 OFFCURVE",
"487 844 CURVE SMOOTH",
"572.427 844 OFFCURVE",
"631.25 785 OFFCURVE",
"685 785 CURVE SMOOTH",
"711.667 785 OFFCURVE",
"724.333 795 OFFCURVE",
"743 819 CURVE SMOOTH"
);
}
);
userData = {
assembly = "NPUSHB[ ]\011/* 14 values pushed */
57 55 40 38 35 33 26 24 9 7 4 2 6 7 
CALL[ ]\011/* CallFunction */
MPPEM[ ]\011/* MeasurePixelPerEm */
PUSHB[ ]\011/* 1 value pushed */
94 
LT[ ]\011/* LessThan */
IF[ ]\011/* If */
NPUSHB[ ]\011/* 51 values pushed */
59 1 1 5 30 1 2 4 2 30 0 0 1 3 1 0 3 50 0 3 4 1 3 4 48 0 1 1 5 1 0 36 0 5 5 20 31 0 4 4 2 1 0 36 0 2 2 18 2 32 7 
ELSE[ ]\011/* Else */
MPPEM[ ]\011/* MeasurePixelPerEm */
PUSHB[ ]\011/* 1 value pushed */
108 
LT[ ]\011/* LessThan */
IF[ ]\011/* If */
NPUSHB[ ]\011/* 48 values pushed */
59 1 1 5 30 1 2 4 2 30 0 0 1 3 1 0 3 50 0 3 4 1 3 4 48 0 4 0 2 4 2 1 0 37 0 1 1 5 1 0 36 0 5 5 20 1 32 6 
ELSE[ ]\011/* Else */
NPUSHB[ ]\011/* 58 values pushed */
59 1 1 5 30 1 2 4 2 30 0 0 1 3 1 0 3 50 0 3 4 1 3 4 48 0 5 0 1 0 5 1 1 0 38 0 4 2 2 4 1 0 35 0 4 4 2 1 0 36 0 2 4 2 1 0 33 7 
EIF[ ]\011/* EndIf */
EIF[ ]\011/* EndIf */
PUSHB[ ]\011/* 1 value pushed */
56 
CALL[ ]\011/* CallFunction */";
};
width = 790;
}
);
note = s;
unicode = 0073;
},
{
glyphname = germandbls;
layers = (
{
layerId = "10974C74-6ED2-4F66-BD25-910E45086E66";
paths = (
{
closed = 1;
nodes = (
"646.333 1483 OFFCURVE",
"526 1428.833 OFFCURVE",
"430 1345.5 CURVE SMOOTH",
"334 1262.167 OFFCURVE",
"262 1149.667 OFFCURVE",
"222 1031 CURVE",
"53 1031 LINE",
"49.146 996.317 OFFCURVE",
"38 903.037 OFFCURVE",
"38 903 CURVE SMOOTH",
"38 868.333 OFFCURVE",
"65 851.333 OFFCURVE",
"105 842 CURVE SMOOTH",
"181 824 LINE",
"51 -246 LINE",
"177 -246 LINE SMOOTH",
"267.667 -246 OFFCURVE",
"313 -201.333 OFFCURVE",
"337 -124 CURVE SMOOTH",
"391 50 LINE",
"491 881 LINE SMOOTH",
"503 977 OFFCURVE",
"527.667 1075.5 OFFCURVE",
"569 1149.5 CURVE SMOOTH",
"610.333 1223.5 OFFCURVE",
"667.667 1274 OFFCURVE",
"745 1274 CURVE SMOOTH",
"845 1274 OFFCURVE",
"891 1223 OFFCURVE",
"891 1147 CURVE SMOOTH",
"891 1115.667 OFFCURVE",
"883.667 1089.333 OFFCURVE",
"869 1068 CURVE SMOOTH",
"839.667 1025.333 OFFCURVE",
"794.667 989.833 OFFCURVE",
"744 954.5 CURVE SMOOTH",
"718.667 936.833 OFFCURVE",
"695.167 916.167 OFFCURVE",
"673.5 892.5 CURVE SMOOTH",
"630.167 845.167 OFFCURVE",
"597 783.667 OFFCURVE",
"597 689 CURVE SMOOTH",
"597 649.667 OFFCURVE",
"604.167 616.333 OFFCURVE",
"618.5 589 CURVE SMOOTH",
"647.167 534.333 OFFCURVE",
"691.333 494.667 OFFCURVE",
"742 464 CURVE SMOOTH",
"795.519 431.607 OFFCURVE",
"887 366.792 OFFCURVE",
"887 308 CURVE SMOOTH",
"887 240.877 OFFCURVE",
"843.175 185 OFFCURVE",
"793 185 CURVE SMOOTH",
"711.091 185 OFFCURVE",
"683.964 263 OFFCURVE",
"615 263 CURVE SMOOTH",
"579 263 OFFCURVE",
"553.667 246 OFFCURVE",
"535 222 CURVE SMOOTH",
"451 112 LINE",
"518.196 39.428 OFFCURVE",
"634.503 -16 OFFCURVE",
"741 -16 CURVE SMOOTH",
"849 -16 OFFCURVE",
"956.667 17.333 OFFCURVE",
"1038 84 CURVE SMOOTH",
"1119.333 150.667 OFFCURVE",
"1173 251.333 OFFCURVE",
"1173 386 CURVE SMOOTH",
"1173 428.667 OFFCURVE",
"1166.667 465.5 OFFCURVE",
"1154 496.5 CURVE SMOOTH",
"1128.667 558.5 OFFCURVE",
"1090 604.667 OFFCURVE",
"1046 638 CURVE SMOOTH",
"998.877 673.699 OFFCURVE",
"919 730.074 OFFCURVE",
"919 775 CURVE SMOOTH",
"919 824.867 OFFCURVE",
"1001.858 880.433 OFFCURVE",
"1050 913 CURVE SMOOTH",
"1072.667 928.333 OFFCURVE",
"1093.667 946.667 OFFCURVE",
"1113 968 CURVE SMOOTH",
"1151.667 1010.667 OFFCURVE",
"1181 1068.333 OFFCURVE",
"1181 1155 CURVE SMOOTH",
"1181 1220.333 OFFCURVE",
"1157.333 1301.5 OFFCURVE",
"1096 1367.5 CURVE SMOOTH",
"1034.667 1433.5 OFFCURVE",
"935.667 1483 OFFCURVE",
"785 1483 CURVE SMOOTH"
);
}
);
userData = {
assembly = "NPUSHB[ ]\011/* 20 values pushed */
1 0 82 81 71 69 61 59 39 37 34 32 25 23 0 86 1 86 8 7 
CALL[ ]\011/* CallFunction */
MPPEM[ ]\011/* MeasurePixelPerEm */
PUSHB[ ]\011/* 1 value pushed */
94 
LT[ ]\011/* LessThan */
IF[ ]\011/* If */
NPUSHB[ ]\011/* 57 values pushed */
72 1 2 6 29 1 1 3 2 30 0 2 6 3 6 2 3 50 0 4 4 0 1 0 36 7 1 0 0 17 31 0 3 3 1 1 0 36 0 1 1 18 31 0 5 5 6 0 0 36 0 6 6 14 5 32 8 
ELSE[ ]\011/* Else */
MPPEM[ ]\011/* MeasurePixelPerEm */
PUSHB[ ]\011/* 1 value pushed */
108 
LT[ ]\011/* LessThan */
IF[ ]\011/* If */
NPUSHB[ ]\011/* 53 values pushed */
72 1 2 6 29 1 1 3 2 30 0 2 6 3 6 2 3 50 7 1 0 0 4 6 0 4 1 0 38 0 3 0 1 5 3 1 1 0 38 0 5 5 6 0 0 36 0 6 6 14 5 32 6 
ELSE[ ]\011/* Else */
NPUSHB[ ]\011/* 62 values pushed */
72 1 2 6 29 1 1 3 2 30 0 2 6 3 6 2 3 50 7 1 0 0 4 6 0 4 1 0 38 0 6 2 5 6 0 0 35 0 3 0 1 5 3 1 1 0 38 0 6 6 5 1 0 36 0 5 6 5 1 0 33 7 
EIF[ ]\011/* EndIf */
EIF[ ]\011/* EndIf */
PUSHB[ ]\011/* 1 value pushed */
56 
CALL[ ]\011/* CallFunction */";
};
width = 1214;
}
);
note = germandbls;
unicode = 00DF;
},
{
glyphname = t;
layers = (
{
layerId = "10974C74-6ED2-4F66-BD25-910E45086E66";
paths = (
{
closed = 1;
nodes = (
"140.363 73.847 OFFCURVE",
"244.436 -16 OFFCURVE",
"401 -16 CURVE SMOOTH",
"497 -16 OFFCURVE",
"594.333 14 OFFCURVE",
"677 74 CURVE",
"609 221 LINE SMOOTH",
"601 239.667 OFFCURVE",
"593.667 248 OFFCURVE",
"575 248 CURVE SMOOTH",
"551.348 248 OFFCURVE",
"535.997 225 OFFCURVE",
"499 225 CURVE SMOOTH",
"460.333 225 OFFCURVE",
"443 254.333 OFFCURVE",
"443 293 CURVE SMOOTH",
"443 294.389 OFFCURVE",
"452.881 382.224 OFFCURVE",
"457 416 CURVE SMOOTH",
"507 823 LINE",
"739 823 LINE",
"765 1035 LINE",
"533 1035 LINE",
"571 1338 LINE",
"403 1338 LINE SMOOTH",
"367.667 1338 OFFCURVE",
"345 1322 OFFCURVE",
"335 1290 CURVE SMOOTH",
"248 1037 LINE",
"91 1005 LINE",
"88 978 LINE",
"88 962.243 OFFCURVE",
"76 888.145 OFFCURVE",
"76 873 CURVE SMOOTH",
"76 839.667 OFFCURVE",
"95.667 823 OFFCURVE",
"121 823 CURVE SMOOTH",
"204 823 LINE",
"151 399 LINE SMOOTH",
"143 332.333 OFFCURVE",
"138.5 294.167 OFFCURVE",
"136.5 269.5 CURVE SMOOTH",
"135.08 251.984 OFFCURVE",
"135 231.266 OFFCURVE",
"135 224 CURVE"
);
}
);
userData = {
assembly = "NPUSHB[ ]\011/* 16 values pushed */
47 45 40 38 35 33 25 24 23 22 21 19 8 6 7 7 
CALL[ ]\011/* CallFunction */
MPPEM[ ]\011/* MeasurePixelPerEm */
PUSHB[ ]\011/* 1 value pushed */
9 
LT[ ]\011/* LessThan */
IF[ ]\011/* If */
NPUSHB[ ]\011/* 45 values pushed */
15 1 0 2 43 1 6 4 2 30 0 1 2 2 1 40 5 1 4 0 6 0 4 6 50 3 1 0 0 2 0 0 36 0 2 2 14 31 0 6 6 18 6 32 6 
ELSE[ ]\011/* Else */
MPPEM[ ]\011/* MeasurePixelPerEm */
PUSHB[ ]\011/* 1 value pushed */
22 
LT[ ]\011/* LessThan */
IF[ ]\011/* If */
NPUSHB[ ]\011/* 44 values pushed */
15 1 0 2 43 1 6 4 2 30 0 1 2 1 52 5 1 4 0 6 0 4 6 50 3 1 0 0 2 0 0 36 0 2 2 14 31 0 6 6 18 6 32 6 
ELSE[ ]\011/* Else */
MPPEM[ ]\011/* MeasurePixelPerEm */
PUSHB[ ]\011/* 1 value pushed */
94 
LT[ ]\011/* LessThan */
IF[ ]\011/* If */
NPUSHB[ ]\011/* 50 values pushed */
15 1 0 2 43 1 6 4 2 30 0 1 2 1 52 0 5 0 4 0 5 4 50 0 4 6 0 4 6 48 3 1 0 0 2 0 0 36 0 2 2 14 31 0 6 6 18 6 32 7 
ELSE[ ]\011/* Else */
MPPEM[ ]\011/* MeasurePixelPerEm */
PUSHB[ ]\011/* 1 value pushed */
108 
LT[ ]\011/* LessThan */
IF[ ]\011/* If */
NPUSHB[ ]\011/* 49 values pushed */
15 1 0 2 43 1 6 4 2 30 0 1 2 1 52 0 5 0 4 0 5 4 50 0 4 6 0 4 6 48 0 6 6 51 3 1 0 0 2 0 0 36 0 2 2 14 0 32 7 
ELSE[ ]\011/* Else */
MPPEM[ ]\011/* MeasurePixelPerEm */
PUSHB[ ]\011/* 1 value pushed */
232 
LT[ ]\011/* LessThan */
IF[ ]\011/* If */
NPUSHB[ ]\011/* 58 values pushed */
15 1 0 2 43 1 6 4 2 30 0 1 2 1 52 0 5 0 4 0 5 4 50 0 4 6 0 4 6 48 0 6 6 51 0 2 0 0 2 0 0 35 0 2 2 0 1 2 36 3 1 0 2 0 1 2 33 8 
ELSE[ ]\011/* Else */
NPUSHB[ ]\011/* 64 values pushed */
15 1 3 2 43 1 6 4 2 30 0 1 2 1 52 0 0 3 5 3 0 5 50 0 5 4 3 5 4 48 0 4 6 3 4 6 48 0 6 6 51 0 2 3 3 2 0 0 35 0 2 2 3 0 2 36 0 3 2 3 0 2 33 9 
EIF[ ]\011/* EndIf */
EIF[ ]\011/* EndIf */
EIF[ ]\011/* EndIf */
EIF[ ]\011/* EndIf */
EIF[ ]\011/* EndIf */
PUSHB[ ]\011/* 1 value pushed */
56 
CALL[ ]\011/* CallFunction */";
};
width = 730;
}
);
note = t;
unicode = 0074;
},
{
glyphname = u;
layers = (
{
layerId = "10974C74-6ED2-4F66-BD25-910E45086E66";
paths = (
{
closed = 1;
nodes = (
"149 1037 LINE",
"71 379 LINE SMOOTH",
"68.333 352.333 OFFCURVE",
"66 327 OFFCURVE",
"66 303 CURVE SMOOTH",
"66 200.333 OFFCURVE",
"93.167 120.5 OFFCURVE",
"140.5 66.5 CURVE SMOOTH",
"187.833 12.5 OFFCURVE",
"253.667 -16 OFFCURVE",
"331 -16 CURVE SMOOTH",
"455 -16 OFFCURVE",
"571 42.667 OFFCURVE",
"671 168 CURVE",
"671 102 LINE SMOOTH",
"671 34 OFFCURVE",
"707.667 0 OFFCURVE",
"781 0 CURVE SMOOTH",
"939 0 LINE",
"1065 1037 LINE",
"755 1037 LINE",
"688 488 LINE",
"644.85 346.565 OFFCURVE",
"544.017 229 OFFCURVE",
"451 229 CURVE SMOOTH",
"401.667 229 OFFCURVE",
"377 253.333 OFFCURVE",
"377 324 CURVE SMOOTH",
"377 340 OFFCURVE",
"378.333 357.667 OFFCURVE",
"381 379 CURVE SMOOTH",
"459 1037 LINE"
);
}
);
userData = {
assembly = "NPUSHB[ ]\011/* 16 values pushed */
0 0 0 31 0 31 23 21 17 15 14 13 8 6 6 7 
CALL[ ]\011/* CallFunction */
MPPEM[ ]\011/* MeasurePixelPerEm */
PUSHB[ ]\011/* 1 value pushed */
30 
LT[ ]\011/* LessThan */
IF[ ]\011/* If */
NPUSHB[ ]\011/* 28 values pushed */
19 1 2 0 1 30 5 4 2 1 1 14 31 0 0 0 2 1 2 36 3 1 2 2 12 2 32 4 
ELSE[ ]\011/* Else */
MPPEM[ ]\011/* MeasurePixelPerEm */
PUSHB[ ]\011/* 1 value pushed */
94 
LT[ ]\011/* LessThan */
IF[ ]\011/* If */
NPUSHB[ ]\011/* 32 values pushed */
19 1 2 0 1 30 5 4 2 1 1 14 31 0 2 2 12 31 0 0 0 3 1 2 36 0 3 3 18 3 32 5 
ELSE[ ]\011/* Else */
MPPEM[ ]\011/* MeasurePixelPerEm */
PUSHB[ ]\011/* 1 value pushed */
108 
LT[ ]\011/* LessThan */
IF[ ]\011/* If */
NPUSHB[ ]\011/* 31 values pushed */
19 1 2 0 1 30 0 0 0 3 0 3 1 2 37 0 2 2 1 0 0 36 5 4 2 1 1 14 2 32 4 
ELSE[ ]\011/* Else */
MPPEM[ ]\011/* MeasurePixelPerEm */
PUSHB[ ]\011/* 1 value pushed */
232 
LT[ ]\011/* LessThan */
IF[ ]\011/* If */
NPUSHB[ ]\011/* 41 values pushed */
19 1 2 0 1 30 0 0 2 3 0 1 0 35 5 4 2 1 0 2 3 1 2 1 0 38 0 0 0 3 1 2 36 0 3 0 3 1 2 33 5 
ELSE[ ]\011/* Else */
NPUSHB[ ]\011/* 48 values pushed */
19 1 2 0 1 30 5 1 4 1 0 1 4 0 50 0 0 2 3 0 1 0 35 0 1 0 2 3 1 2 1 0 38 0 0 0 3 1 2 36 0 3 0 3 1 2 33 6 
EIF[ ]\011/* EndIf */
EIF[ ]\011/* EndIf */
EIF[ ]\011/* EndIf */
EIF[ ]\011/* EndIf */
PUSHB[ ]\011/* 1 value pushed */
56 
CALL[ ]\011/* CallFunction */";
};
width = 1098;
}
);
note = u;
unicode = 0075;
},
{
glyphname = v;
layers = (
{
layerId = "10974C74-6ED2-4F66-BD25-910E45086E66";
paths = (
{
closed = 1;
nodes = (
"315 0 LINE",
"577 0 LINE",
"1081 1037 LINE",
"835 1037 LINE SMOOTH",
"799 1037 OFFCURVE",
"765 1015 OFFCURVE",
"753 983 CURVE SMOOTH",
"571 518 LINE SMOOTH",
"539 436.667 OFFCURVE",
"510 363.667 OFFCURVE",
"486 289 CURVE",
"480.667 365 OFFCURVE",
"473 439.333 OFFCURVE",
"461 518 CURVE SMOOTH",
"393 983 LINE SMOOTH",
"387.667 1013.667 OFFCURVE",
"361.667 1037 OFFCURVE",
"319 1037 CURVE SMOOTH",
"63 1037 LINE"
);
}
);
userData = {
assembly = "NPUSHB[ ]\011/* 8 values pushed */
18 17 16 14 2 0 3 7 
CALL[ ]\011/* CallFunction */
MPPEM[ ]\011/* MeasurePixelPerEm */
PUSHB[ ]\011/* 1 value pushed */
94 
LT[ ]\011/* LessThan */
IF[ ]\011/* If */
NPUSHB[ ]\011/* 19 values pushed */
8 1 2 0 1 30 1 1 0 0 14 31 0 2 2 12 2 32 3 
ELSE[ ]\011/* Else */
MPPEM[ ]\011/* MeasurePixelPerEm */
PUSHB[ ]\011/* 1 value pushed */
108 
LT[ ]\011/* LessThan */
IF[ ]\011/* If */
NPUSHB[ ]\011/* 21 values pushed */
8 1 2 0 1 30 0 2 2 0 1 0 36 1 1 0 0 14 2 32 3 
ELSE[ ]\011/* Else */
MPPEM[ ]\011/* MeasurePixelPerEm */
PUSHB[ ]\011/* 1 value pushed */
232 
LT[ ]\011/* LessThan */
IF[ ]\011/* If */
NPUSHB[ ]\011/* 31 values pushed */
8 1 2 0 1 30 1 1 0 2 2 0 1 0 35 1 1 0 0 2 0 0 36 0 2 0 2 0 0 33 4 
ELSE[ ]\011/* Else */
NPUSHB[ ]\011/* 37 values pushed */
8 1 2 1 1 30 0 1 0 2 0 1 2 50 0 0 1 2 0 1 0 35 0 0 0 2 0 0 36 0 2 0 2 0 0 33 5 
EIF[ ]\011/* EndIf */
EIF[ ]\011/* EndIf */
EIF[ ]\011/* EndIf */
PUSHB[ ]\011/* 1 value pushed */
56 
CALL[ ]\011/* CallFunction */";
};
width = 1032;
}
);
note = v;
unicode = 0076;
},
{
glyphname = w;
layers = (
{
layerId = "10974C74-6ED2-4F66-BD25-910E45086E66";
paths = (
{
closed = 1;
nodes = (
"243 0 LINE",
"475 0 LINE SMOOTH",
"505 0 OFFCURVE",
"527 17.333 OFFCURVE",
"541 52 CURVE SMOOTH",
"739 567 LINE SMOOTH",
"744.333 581.667 OFFCURVE",
"750 596.333 OFFCURVE",
"756 611 CURVE SMOOTH",
"762 625.667 OFFCURVE",
"767.667 640.667 OFFCURVE",
"773 656 CURVE",
"775.667 626.667 OFFCURVE",
"779 598.333 OFFCURVE",
"783 569 CURVE SMOOTH",
"859 52 LINE SMOOTH",
"865.667 14.667 OFFCURVE",
"881 0 OFFCURVE",
"905 0 CURVE SMOOTH",
"1147 0 LINE",
"1569 1037 LINE",
"1341 1037 LINE SMOOTH",
"1305 1037 OFFCURVE",
"1271.667 1013.667 OFFCURVE",
"1261 983 CURVE SMOOTH",
"1115 518 LINE SMOOTH",
"1103.667 482.667 OFFCURVE",
"1092.667 449 OFFCURVE",
"1082 417 CURVE SMOOTH",
"1071.333 385 OFFCURVE",
"1061.333 353 OFFCURVE",
"1052 321 CURVE",
"1045.333 385 OFFCURVE",
"1036.333 450 OFFCURVE",
"1027 518 CURVE SMOOTH",
"967 984 LINE SMOOTH",
"963 1014.667 OFFCURVE",
"935.667 1038 OFFCURVE",
"893 1038 CURVE SMOOTH",
"759 1038 LINE SMOOTH",
"723 1038 OFFCURVE",
"687.667 1014.667 OFFCURVE",
"677 984 CURVE SMOOTH",
"503 518 LINE SMOOTH",
"489.667 483.333 OFFCURVE",
"476.167 449.667 OFFCURVE",
"462.5 417 CURVE SMOOTH",
"448.833 384.333 OFFCURVE",
"436 352 OFFCURVE",
"424 320 CURVE",
"422.667 380 OFFCURVE",
"420 439 OFFCURVE",
"416 503 CURVE",
"416 505.667 OFFCURVE",
"415.833 508.167 OFFCURVE",
"415.5 510.5 CURVE SMOOTH",
"415.167 512.833 OFFCURVE",
"415 515.333 OFFCURVE",
"415 518 CURVE",
"385 983 LINE SMOOTH",
"382.333 1015 OFFCURVE",
"351 1037 OFFCURVE",
"311 1037 CURVE SMOOTH",
"73 1037 LINE"
);
}
);
userData = {
assembly = "NPUSHB[ ]\011/* 12 values pushed */
50 48 37 35 34 32 20 17 2 0 5 7 
CALL[ ]\011/* CallFunction */
MPPEM[ ]\011/* MeasurePixelPerEm */
PUSHB[ ]\011/* 1 value pushed */
94 
LT[ ]\011/* LessThan */
IF[ ]\011/* If */
NPUSHB[ ]\011/* 24 values pushed */
43 26 11 4 4 3 0 1 30 2 1 2 0 0 14 31 4 1 3 3 12 3 32 3 
ELSE[ ]\011/* Else */
MPPEM[ ]\011/* MeasurePixelPerEm */
PUSHB[ ]\011/* 1 value pushed */
108 
LT[ ]\011/* LessThan */
IF[ ]\011/* If */
NPUSHB[ ]\011/* 26 values pushed */
43 26 11 4 4 3 0 1 30 4 1 3 3 0 1 0 36 2 1 2 0 0 14 3 32 3 
ELSE[ ]\011/* Else */
MPPEM[ ]\011/* MeasurePixelPerEm */
PUSHB[ ]\011/* 1 value pushed */
78 
LT[ ]\011/* LessThan */
IF[ ]\011/* If */
NPUSHB[ ]\011/* 37 values pushed */
43 26 11 4 4 3 0 1 30 2 1 2 0 3 3 0 1 0 35 2 1 2 0 0 3 1 0 36 4 1 3 0 3 1 0 33 4 
ELSE[ ]\011/* Else */
MPPEM[ ]\011/* MeasurePixelPerEm */
PUSHW[ ]\011/* 1 value pushed */
1000 
LT[ ]\011/* LessThan */
IF[ ]\011/* If */
NPUSHB[ ]\011/* 43 values pushed */
43 26 11 4 4 3 0 1 30 0 1 0 3 1 1 0 35 2 1 0 3 3 0 1 0 35 2 1 0 0 3 1 0 36 4 1 3 0 3 1 0 33 5 
ELSE[ ]\011/* Else */
NPUSHB[ ]\011/* 50 values pushed */
43 26 11 4 4 4 2 1 30 0 2 0 4 0 2 4 50 0 1 0 3 1 1 0 35 0 0 0 4 3 0 4 1 0 38 0 1 1 3 1 0 36 0 3 1 3 1 0 33 6 
EIF[ ]\011/* EndIf */
EIF[ ]\011/* EndIf */
EIF[ ]\011/* EndIf */
EIF[ ]\011/* EndIf */
PUSHB[ ]\011/* 1 value pushed */
56 
CALL[ ]\011/* CallFunction */";
};
width = 1510;
}
);
note = w;
unicode = 0077;
},
{
glyphname = x;
layers = (
{
layerId = "10974C74-6ED2-4F66-BD25-910E45086E66";
paths = (
{
closed = 1;
nodes = (
"-59 0 LINE",
"215 0 LINE SMOOTH",
"253.667 0 OFFCURVE",
"278.333 26 OFFCURVE",
"297 54 CURVE SMOOTH",
"481 332 LINE",
"489 342.667 OFFCURVE",
"497.333 356.333 OFFCURVE",
"504 371 CURVE",
"633 54 LINE SMOOTH",
"645 24.667 OFFCURVE",
"667 0 OFFCURVE",
"707 0 CURVE SMOOTH",
"991 0 LINE",
"733 563 LINE",
"1093 1037 LINE",
"811 1037 LINE SMOOTH",
"784.333 1037 OFFCURVE",
"762.333 1023 OFFCURVE",
"745 995 CURVE SMOOTH",
"609 784 LINE SMOOTH",
"603.667 775.333 OFFCURVE",
"598.333 767 OFFCURVE",
"593 759 CURVE SMOOTH",
"587.667 751 OFFCURVE",
"582.667 742.667 OFFCURVE",
"578 734 CURVE",
"463 1001 LINE SMOOTH",
"451 1027.667 OFFCURVE",
"437 1037 OFFCURVE",
"397 1037 CURVE SMOOTH",
"113 1037 LINE",
"346 562 LINE"
);
}
);
userData = {
assembly = "NPUSHB[ ]\011/* 10 values pushed */
28 26 17 15 13 11 3 1 4 7 
CALL[ ]\011/* CallFunction */
MPPEM[ ]\011/* MeasurePixelPerEm */
PUSHB[ ]\011/* 1 value pushed */
94 
LT[ ]\011/* LessThan */
IF[ ]\011/* If */
NPUSHB[ ]\011/* 22 values pushed */
14 6 0 3 2 0 1 30 1 1 0 0 14 31 3 1 2 2 12 2 32 3 
ELSE[ ]\011/* Else */
MPPEM[ ]\011/* MeasurePixelPerEm */
PUSHB[ ]\011/* 1 value pushed */
108 
LT[ ]\011/* LessThan */
IF[ ]\011/* If */
NPUSHB[ ]\011/* 24 values pushed */
14 6 0 3 2 0 1 30 3 1 2 2 0 1 0 36 1 1 0 0 14 2 32 3 
ELSE[ ]\011/* Else */
MPPEM[ ]\011/* MeasurePixelPerEm */
PUSHB[ ]\011/* 1 value pushed */
232 
LT[ ]\011/* LessThan */
IF[ ]\011/* If */
NPUSHB[ ]\011/* 34 values pushed */
14 6 0 3 2 0 1 30 1 1 0 2 2 0 1 0 35 1 1 0 0 2 1 0 36 3 1 2 0 2 1 0 33 4 
ELSE[ ]\011/* Else */
NPUSHB[ ]\011/* 41 values pushed */
14 6 0 3 3 1 1 30 0 1 3 2 1 1 0 35 0 0 0 3 2 0 3 1 0 38 0 1 1 2 1 0 36 0 2 1 2 1 0 33 5 
EIF[ ]\011/* EndIf */
EIF[ ]\011/* EndIf */
EIF[ ]\011/* EndIf */
PUSHB[ ]\011/* 1 value pushed */
56 
CALL[ ]\011/* CallFunction */";
};
width = 1070;
}
);
note = x;
unicode = 0078;
},
{
glyphname = y;
layers = (
{
layerId = "10974C74-6ED2-4F66-BD25-910E45086E66";
paths = (
{
closed = 1;
nodes = (
"1093 1037 LINE",
"843 1037 LINE SMOOTH",
"811 1037 OFFCURVE",
"777 1013.667 OFFCURVE",
"761 983 CURVE",
"569 538 LINE SMOOTH",
"560.333 518.667 OFFCURVE",
"551.333 499.167 OFFCURVE",
"542 479.5 CURVE SMOOTH",
"532.667 459.833 OFFCURVE",
"524 440.333 OFFCURVE",
"516 421 CURVE",
"512 459.667 OFFCURVE",
"505 497.333 OFFCURVE",
"497 536 CURVE SMOOTH",
"407 983 LINE",
"399 1012.333 OFFCURVE",
"379 1037 OFFCURVE",
"335 1037 CURVE SMOOTH",
"73 1037 LINE",
"330 93 LINE",
"93 -329 LINE",
"325 -329 LINE SMOOTH",
"369 -329 OFFCURVE",
"399.667 -311.333 OFFCURVE",
"421 -270 CURVE SMOOTH"
);
}
);
userData = {
assembly = "NPUSHB[ ]\011/* 8 values pushed */
22 20 8 6 4 2 3 7 
CALL[ ]\011/* CallFunction */
MPPEM[ ]\011/* MeasurePixelPerEm */
PUSHB[ ]\011/* 1 value pushed */
108 
LT[ ]\011/* LessThan */
IF[ ]\011/* If */
NPUSHB[ ]\011/* 20 values pushed */
14 5 2 0 1 1 30 2 1 1 1 14 31 0 0 0 16 0 32 3 
ELSE[ ]\011/* Else */
MPPEM[ ]\011/* MeasurePixelPerEm */
PUSHB[ ]\011/* 1 value pushed */
232 
LT[ ]\011/* LessThan */
IF[ ]\011/* If */
NPUSHB[ ]\011/* 22 values pushed */
14 5 2 0 1 1 30 2 1 1 1 0 1 0 36 0 0 0 16 0 32 3 
ELSE[ ]\011/* Else */
NPUSHB[ ]\011/* 29 values pushed */
14 5 2 0 2 1 30 0 2 1 0 1 2 0 50 0 1 1 0 1 0 36 0 0 0 16 0 32 4 
EIF[ ]\011/* EndIf */
EIF[ ]\011/* EndIf */
PUSHB[ ]\011/* 1 value pushed */
56 
CALL[ ]\011/* CallFunction */";
};
width = 1032;
}
);
note = y;
unicode = 0079;
},
{
glyphname = z;
layers = (
{
layerId = "10974C74-6ED2-4F66-BD25-910E45086E66";
paths = (
{
closed = 1;
nodes = (
"905 1037 LINE",
"147 1037 LINE",
"119 807 LINE",
"513 807 LINE",
"61 228 LINE SMOOTH",
"34.333 193.333 OFFCURVE",
"13.667 151.333 OFFCURVE",
"11 126 CURVE SMOOTH",
"-5 0 LINE",
"771 0 LINE",
"799 230 LINE",
"391 230 LINE",
"839 802 LINE SMOOTH",
"861.667 830 OFFCURVE",
"883.667 870.333 OFFCURVE",
"889 913 CURVE SMOOTH"
);
}
);
userData = {
assembly = "NPUSHB[ ]\011/* 10 values pushed */
15 14 13 12 7 6 5 4 4 7 
CALL[ ]\011/* CallFunction */
MPPEM[ ]\011/* MeasurePixelPerEm */
PUSHB[ ]\011/* 1 value pushed */
94 
LT[ ]\011/* LessThan */
IF[ ]\011/* If */
NPUSHB[ ]\011/* 26 values pushed */
0 2 2 3 0 0 36 0 3 3 14 31 0 0 0 1 0 0 36 0 1 1 12 1 32 4 
ELSE[ ]\011/* Else */
MPPEM[ ]\011/* MeasurePixelPerEm */
PUSHB[ ]\011/* 1 value pushed */
108 
LT[ ]\011/* LessThan */
IF[ ]\011/* If */
NPUSHB[ ]\011/* 23 values pushed */
0 0 0 1 0 1 0 0 37 0 2 2 3 0 0 36 0 3 3 14 2 32 3 
ELSE[ ]\011/* Else */
NPUSHB[ ]\011/* 33 values pushed */
0 3 0 2 0 3 2 0 0 38 0 0 1 1 0 0 0 35 0 0 0 1 0 0 36 0 1 0 1 0 0 33 4 
EIF[ ]\011/* EndIf */
EIF[ ]\011/* EndIf */
PUSHB[ ]\011/* 1 value pushed */
56 
CALL[ ]\011/* CallFunction */";
};
width = 892;
}
);
note = z;
unicode = 007A;
},
{
glyphname = fi;
layers = (
{
layerId = "10974C74-6ED2-4F66-BD25-910E45086E66";
paths = (
{
closed = 1;
nodes = (
"497 1044 LINE SMOOTH",
"506.333 1128 OFFCURVE",
"529.667 1190.833 OFFCURVE",
"583 1231.5 CURVE SMOOTH",
"636.333 1272.167 OFFCURVE",
"718.333 1293 OFFCURVE",
"849 1293 CURVE SMOOTH",
"881.648 1293 OFFCURVE",
"913.462 1300.337 OFFCURVE",
"921 1333 CURVE SMOOTH",
"951 1484 LINE",
"908.333 1496 OFFCURVE",
"843 1502 OFFCURVE",
"787 1502 CURVE SMOOTH",
"604.333 1502 OFFCURVE",
"466.667 1452.5 OFFCURVE",
"372 1370.5 CURVE SMOOTH",
"277.333 1288.5 OFFCURVE",
"223.667 1175.333 OFFCURVE",
"209 1050 CURVE SMOOTH",
"207 1035 LINE",
"73 1035 LINE",
"68.157 988.51 OFFCURVE",
"62.245 935.127 OFFCURVE",
"60.5 920 CURVE SMOOTH",
"59.506 911.388 OFFCURVE",
"58 899.688 OFFCURVE",
"58 899 CURVE SMOOTH",
"58 864.333 OFFCURVE",
"85 847.333 OFFCURVE",
"125 838 CURVE SMOOTH",
"181 825 LINE",
"49 -248 LINE",
"175 -248 LINE SMOOTH",
"265.667 -248 OFFCURVE",
"311 -203.333 OFFCURVE",
"335 -126 CURVE SMOOTH",
"389 48 LINE",
"482 823 LINE",
"781 823 LINE",
"679 0 LINE",
"983 0 LINE",
"1109 1035 LINE",
"496 1035 LINE"
);
}
);
userData = {
assembly = "NPUSHB[ ]\011/* 16 values pushed */
38 36 29 27 22 21 11 9 5 4 3 2 1 0 7 7 
CALL[ ]\011/* CallFunction */
MPPEM[ ]\011/* MeasurePixelPerEm */
PUSHB[ ]\011/* 1 value pushed */
94 
LT[ ]\011/* LessThan */
IF[ ]\011/* If */
NPUSHB[ ]\011/* 55 values pushed */
31 1 6 5 12 1 2 0 2 30 0 6 6 5 1 0 36 0 5 5 19 31 0 2 2 0 0 0 36 4 1 0 0 14 31 0 1 1 12 31 0 3 3 0 0 0 36 4 1 0 0 14 3 32 8 
ELSE[ ]\011/* Else */
MPPEM[ ]\011/* MeasurePixelPerEm */
PUSHB[ ]\011/* 1 value pushed */
108 
LT[ ]\011/* LessThan */
IF[ ]\011/* If */
NPUSHB[ ]\011/* 58 values pushed */
31 1 6 5 12 1 2 0 2 30 0 1 2 3 2 1 3 50 0 6 6 5 1 0 36 0 5 5 19 31 0 2 2 0 0 0 36 4 1 0 0 14 31 0 3 3 0 0 0 36 4 1 0 0 14 3 32 8 
ELSE[ ]\011/* Else */
MPPEM[ ]\011/* MeasurePixelPerEm */
PUSHB[ ]\011/* 1 value pushed */
252 
LT[ ]\011/* LessThan */
IF[ ]\011/* If */
NPUSHB[ ]\011/* 50 values pushed */
31 1 6 5 12 1 2 0 2 30 0 1 2 3 2 1 3 50 0 2 1 0 2 0 0 35 4 1 0 0 3 0 3 1 0 37 0 6 6 5 1 0 36 0 5 5 19 6 32 6 
ELSE[ ]\011/* Else */
MPPEM[ ]\011/* MeasurePixelPerEm */
PUSHB[ ]\011/* 1 value pushed */
232 
LT[ ]\011/* LessThan */
IF[ ]\011/* If */
NPUSHB[ ]\011/* 55 values pushed */
31 1 6 5 12 1 2 0 2 30 0 1 2 3 2 1 3 50 0 5 0 6 0 5 6 1 0 38 4 1 0 0 2 1 0 2 0 0 38 4 1 0 0 3 1 0 36 0 3 0 3 1 0 33 6 
ELSE[ ]\011/* Else */
NPUSHB[ ]\011/* 61 values pushed */
31 1 6 5 12 1 2 4 2 30 0 1 2 3 2 1 3 50 0 5 0 6 0 5 6 1 0 38 0 4 2 3 4 0 0 35 0 0 0 2 1 0 2 0 0 38 0 4 4 3 1 0 36 0 3 4 3 1 0 33 7 
EIF[ ]\011/* EndIf */
EIF[ ]\011/* EndIf */
EIF[ ]\011/* EndIf */
EIF[ ]\011/* EndIf */
PUSHB[ ]\011/* 1 value pushed */
56 
CALL[ ]\011/* CallFunction */";
};
width = 1164;
}
);
note = fi;
unicode = FB01;
},
{
glyphname = fl;
layers = (
{
layerId = "10974C74-6ED2-4F66-BD25-910E45086E66";
paths = (
{
closed = 1;
nodes = (
"671 823 LINE",
"697 1035 LINE",
"499 1035 LINE",
"503 1073 LINE SMOOTH",
"515 1210.333 OFFCURVE",
"584.333 1276 OFFCURVE",
"695 1276 CURVE SMOOTH",
"744.333 1276 OFFCURVE",
"798.333 1268.667 OFFCURVE",
"853 1262 CURVE",
"699 0 LINE",
"999 0 LINE",
"1181 1475 LINE",
"984 1475 LINE SMOOTH",
"932.667 1475 OFFCURVE",
"882.167 1477 OFFCURVE",
"832.5 1481 CURVE SMOOTH",
"782.833 1485 OFFCURVE",
"729.667 1487 OFFCURVE",
"673 1487 CURVE SMOOTH",
"529 1487 OFFCURVE",
"420 1436.167 OFFCURVE",
"344 1359.5 CURVE SMOOTH",
"268 1282.833 OFFCURVE",
"224.333 1178.333 OFFCURVE",
"211 1073 CURVE SMOOTH",
"206 1035 LINE",
"74 1035 LINE",
"68.193 988.547 OFFCURVE",
"62.091 933.789 OFFCURVE",
"60.5 920 CURVE SMOOTH",
"59.506 911.388 OFFCURVE",
"58 899.688 OFFCURVE",
"58 899 CURVE SMOOTH",
"58 864.333 OFFCURVE",
"85 847.333 OFFCURVE",
"125 838 CURVE SMOOTH",
"180 825 LINE",
"49 -248 LINE",
"175 -248 LINE SMOOTH",
"265.667 -248 OFFCURVE",
"311 -203.333 OFFCURVE",
"335 -126 CURVE SMOOTH",
"389 48 LINE",
"484 823 LINE"
);
}
);
userData = {
assembly = "NPUSHB[ ]\011/* 22 values pushed */
0 0 0 39 0 39 38 37 34 32 29 28 27 25 24 22 17 16 6 4 9 7 
CALL[ ]\011/* CallFunction */
MPPEM[ ]\011/* MeasurePixelPerEm */
PUSHB[ ]\011/* 1 value pushed */
41 
LT[ ]\011/* LessThan */
IF[ ]\011/* If */
NPUSHB[ ]\011/* 53 values pushed */
7 1 7 1 1 30 0 5 5 2 1 0 36 3 1 2 2 13 31 8 1 7 7 1 0 0 36 6 1 1 1 14 31 0 4 4 12 31 0 0 0 1 0 0 36 6 1 1 1 14 0 32 8 
ELSE[ ]\011/* Else */
MPPEM[ ]\011/* MeasurePixelPerEm */
PUSHB[ ]\011/* 1 value pushed */
94 
LT[ ]\011/* LessThan */
IF[ ]\011/* If */
NPUSHB[ ]\011/* 57 values pushed */
7 1 7 1 1 30 0 3 3 17 31 0 5 5 2 1 0 36 0 2 2 13 31 8 1 7 7 1 0 0 36 6 1 1 1 14 31 0 4 4 12 31 0 0 0 1 0 0 36 6 1 1 1 14 0 32 9 
ELSE[ ]\011/* Else */
MPPEM[ ]\011/* MeasurePixelPerEm */
PUSHB[ ]\011/* 1 value pushed */
98 
LT[ ]\011/* LessThan */
IF[ ]\011/* If */
NPUSHB[ ]\011/* 57 values pushed */
7 1 7 1 1 30 0 3 0 4 0 3 4 0 0 38 0 5 5 2 1 0 36 0 2 2 13 31 8 1 7 7 1 0 0 36 6 1 1 1 14 31 0 0 0 1 0 0 36 6 1 1 1 14 0 32 8 
ELSE[ ]\011/* Else */
MPPEM[ ]\011/* MeasurePixelPerEm */
PUSHB[ ]\011/* 1 value pushed */
108 
LT[ ]\011/* LessThan */
IF[ ]\011/* If */
NPUSHB[ ]\011/* 55 values pushed */
7 1 7 1 1 30 0 2 0 5 1 2 5 1 0 38 0 3 0 4 0 3 4 0 0 38 8 1 7 7 1 0 0 36 6 1 1 1 14 31 0 0 0 1 0 0 36 6 1 1 1 14 0 32 7 
ELSE[ ]\011/* Else */
MPPEM[ ]\011/* MeasurePixelPerEm */
PUSHB[ ]\011/* 1 value pushed */
232 
LT[ ]\011/* LessThan */
IF[ ]\011/* If */
NPUSHB[ ]\011/* 54 values pushed */
7 1 7 1 1 30 0 2 0 5 1 2 5 1 0 38 6 1 1 8 1 7 4 1 7 0 0 38 0 3 0 4 0 3 4 0 0 38 6 1 1 1 0 1 0 36 0 0 1 0 1 0 33 6 
ELSE[ ]\011/* Else */
NPUSHB[ ]\011/* 60 values pushed */
7 1 7 6 1 30 0 2 0 5 1 2 5 1 0 38 0 1 6 0 1 0 0 35 0 6 8 1 7 4 6 7 0 0 38 0 3 0 4 0 3 4 0 0 38 0 1 1 0 1 0 36 0 0 1 0 1 0 33 7 
EIF[ ]\011/* EndIf */
EIF[ ]\011/* EndIf */
EIF[ ]\011/* EndIf */
EIF[ ]\011/* EndIf */
EIF[ ]\011/* EndIf */
PUSHB[ ]\011/* 1 value pushed */
56 
CALL[ ]\011/* CallFunction */";
};
width = 1176;
}
);
note = fl;
unicode = FB02;
},
{
glyphname = ordfeminine;
layers = (
{
layerId = "10974C74-6ED2-4F66-BD25-910E45086E66";
paths = (
{
closed = 1;
nodes = (
"642 842 LINE",
"690 1229 LINE SMOOTH",
"690.667 1233.667 OFFCURVE",
"691 1238.167 OFFCURVE",
"691 1242.5 CURVE SMOOTH",
"691 1246.833 OFFCURVE",
"691 1251.333 OFFCURVE",
"691 1256 CURVE SMOOTH",
"691 1380.901 OFFCURVE",
"604.009 1477 OFFCURVE",
"478 1477 CURVE SMOOTH",
"375.333 1477 OFFCURVE",
"280.667 1447.667 OFFCURVE",
"198 1377 CURVE",
"228 1310 LINE SMOOTH",
"237.333 1290 OFFCURVE",
"253.333 1272 OFFCURVE",
"284 1272 CURVE SMOOTH",
"341.734 1272 OFFCURVE",
"365.058 1312 OFFCURVE",
"430 1312 CURVE SMOOTH",
"478.509 1312 OFFCURVE",
"482 1272.966 OFFCURVE",
"482 1229 CURVE",
"480 1211 LINE",
"333.333 1207 OFFCURVE",
"244 1173 OFFCURVE",
"192 1129 CURVE SMOOTH",
"140 1085 OFFCURVE",
"124 1030 OFFCURVE",
"124 982 CURVE SMOOTH",
"124 888.667 OFFCURVE",
"181.333 834 OFFCURVE",
"284 834 CURVE SMOOTH",
"358.991 834 OFFCURVE",
"407.755 859.232 OFFCURVE",
"468 909 CURVE",
"476 882 LINE SMOOTH",
"486.667 848.667 OFFCURVE",
"503.333 842 OFFCURVE",
"542 842 CURVE SMOOTH"
);
},
{
closed = 1;
nodes = (
"341.333 974 OFFCURVE",
"330 983 OFFCURVE",
"330 1007 CURVE SMOOTH",
"330 1057.391 OFFCURVE",
"369.905 1080.472 OFFCURVE",
"465 1085 CURVE",
"457 1014 LINE",
"426.333 984.667 OFFCURVE",
"402.667 974 OFFCURVE",
"372 974 CURVE SMOOTH"
);
}
);
userData = {
assembly = "NPUSHB[ ]\011/* 26 values pushed */
46 45 1 0 50 49 45 56 46 56 36 34 29 27 24 22 17 16 10 8 0 44 1 44 10 7 
CALL[ ]\011/* CallFunction */
MPPEM[ ]\011/* MeasurePixelPerEm */
PUSHB[ ]\011/* 1 value pushed */
13 
LT[ ]\011/* LessThan */
IF[ ]\011/* If */
NPUSHB[ ]\011/* 54 values pushed */
32 1 3 5 18 1 2 3 4 1 0 6 3 30 9 1 6 7 0 7 6 0 50 1 8 2 0 0 51 0 2 0 7 6 2 7 1 0 38 4 1 3 3 5 1 0 36 0 5 5 17 3 32 6 
ELSE[ ]\011/* Else */
MPPEM[ ]\011/* MeasurePixelPerEm */
PUSHB[ ]\011/* 1 value pushed */
58 
LT[ ]\011/* LessThan */
IF[ ]\011/* If */
NPUSHB[ ]\011/* 61 values pushed */
32 1 3 5 18 1 2 4 4 1 0 6 3 30 0 4 3 2 3 4 2 50 9 1 6 7 0 7 6 0 50 1 8 2 0 0 51 0 2 0 7 6 2 7 1 0 38 0 3 3 5 1 0 36 0 5 5 17 3 32 7 
ELSE[ ]\011/* Else */
MPPEM[ ]\011/* MeasurePixelPerEm */
PUSHB[ ]\011/* 1 value pushed */
94 
LT[ ]\011/* LessThan */
IF[ ]\011/* If */
NPUSHB[ ]\011/* 67 values pushed */
32 1 3 5 18 1 2 4 4 1 0 6 3 30 0 4 3 2 3 4 2 50 9 1 6 7 0 7 6 0 50 8 1 0 1 7 0 1 48 0 1 1 51 0 2 0 7 6 2 7 1 0 38 0 3 3 5 1 0 36 0 5 5 17 3 32 8 
ELSE[ ]\011/* Else */
NPUSHB[ ]\011/* 76 values pushed */
32 1 3 5 18 1 2 4 4 1 0 6 3 30 0 4 3 2 3 4 2 50 9 1 6 7 0 7 6 0 50 8 1 0 1 7 0 1 48 0 1 1 51 0 5 0 3 4 5 3 1 0 38 0 2 7 7 2 1 0 35 0 2 2 7 1 0 36 0 7 2 7 1 0 33 9 
EIF[ ]\011/* EndIf */
EIF[ ]\011/* EndIf */
EIF[ ]\011/* EndIf */
PUSHB[ ]\011/* 1 value pushed */
56 
CALL[ ]\011/* CallFunction */";
};
width = 652;
}
);
note = ordfeminine;
unicode = 00AA;
},
{
glyphname = ordmasculine;
layers = (
{
layerId = "10974C74-6ED2-4F66-BD25-910E45086E66";
paths = (
{
closed = 1;
nodes = (
"383.333 1475 OFFCURVE",
"293.5 1439.667 OFFCURVE",
"227.5 1377 CURVE SMOOTH",
"161.5 1314.333 OFFCURVE",
"122 1222 OFFCURVE",
"122 1110 CURVE SMOOTH",
"122 937.814 OFFCURVE",
"235.213 830 OFFCURVE",
"408 830 CURVE SMOOTH",
"509.333 830 OFFCURVE",
"599.833 865 OFFCURVE",
"664.5 929 CURVE SMOOTH",
"729.167 993 OFFCURVE",
"768 1085.667 OFFCURVE",
"768 1199 CURVE SMOOTH",
"768 1367.201 OFFCURVE",
"656.451 1475 OFFCURVE",
"486 1475 CURVE SMOOTH"
);
},
{
closed = 1;
nodes = (
"379.333 998 OFFCURVE",
"354 1034 OFFCURVE",
"354 1106 CURVE SMOOTH",
"354 1222.87 OFFCURVE",
"366.291 1306 OFFCURVE",
"466 1306 CURVE SMOOTH",
"512.667 1306 OFFCURVE",
"536 1270.333 OFFCURVE",
"536 1199 CURVE SMOOTH",
"536 1068.333 OFFCURVE",
"508.667 998 OFFCURVE",
"430 998 CURVE SMOOTH"
);
}
);
userData = {
assembly = "NPUSHB[ ]\011/* 18 values pushed */
21 20 1 0 26 24 20 31 21 31 11 9 0 19 1 19 6 7 
CALL[ ]\011/* CallFunction */
MPPEM[ ]\011/* MeasurePixelPerEm */
PUSHB[ ]\011/* 1 value pushed */
26 
LT[ ]\011/* LessThan */
IF[ ]\011/* If */
NPUSHB[ ]\011/* 28 values pushed */
0 3 3 0 1 0 36 4 1 0 0 17 31 0 1 1 2 1 0 36 5 1 2 2 14 1 32 4 
ELSE[ ]\011/* Else */
MPPEM[ ]\011/* MeasurePixelPerEm */
PUSHB[ ]\011/* 1 value pushed */
94 
LT[ ]\011/* LessThan */
IF[ ]\011/* If */
NPUSHB[ ]\011/* 25 values pushed */
5 1 2 0 1 2 1 1 0 37 0 3 3 0 1 0 36 4 1 0 0 17 3 32 3 
ELSE[ ]\011/* Else */
NPUSHB[ ]\011/* 36 values pushed */
4 1 0 0 3 2 0 3 1 0 38 5 1 2 1 1 2 1 0 35 5 1 2 2 1 1 0 36 0 1 2 1 1 0 33 4 
EIF[ ]\011/* EndIf */
EIF[ ]\011/* EndIf */
PUSHB[ ]\011/* 1 value pushed */
56 
CALL[ ]\011/* CallFunction */";
};
width = 728;
}
);
note = ordmasculine;
unicode = 00BA;
},
{
glyphname = pi;
layers = (
{
layerId = "10974C74-6ED2-4F66-BD25-910E45086E66";
paths = (
{
closed = 1;
nodes = (
"220 1035 LINE SMOOTH",
"155.369 1035 OFFCURVE",
"104.081 982.647 OFFCURVE",
"98 934 CURVE SMOOTH",
"84 830 LINE",
"239 830 LINE",
"172 284 LINE SMOOTH",
"163.862 216.182 OFFCURVE",
"147.878 191 OFFCURVE",
"80 191 CURVE SMOOTH",
"32 191 OFFCURVE",
"21.333 170 OFFCURVE",
"16 142 CURVE SMOOTH",
"-8 21 LINE",
"40 -5.667 OFFCURVE",
"99.333 -16 OFFCURVE",
"146 -16 CURVE SMOOTH",
"252.667 -16 OFFCURVE",
"328 15 OFFCURVE",
"380 67 CURVE SMOOTH",
"432 119 OFFCURVE",
"459.333 193.333 OFFCURVE",
"470 280 CURVE SMOOTH",
"538 830 LINE",
"789 830 LINE",
"688 0 LINE",
"986 0 LINE",
"1088 830 LINE",
"1156 830 LINE SMOOTH",
"1212 830 OFFCURVE",
"1249.333 871 OFFCURVE",
"1256 919 CURVE SMOOTH",
"1272 1035 LINE"
);
}
);
userData = {
assembly = "NPUSHB[ ]\011/* 20 values pushed */
0 0 0 35 0 34 29 28 23 21 16 14 9 8 7 6 5 3 8 7 
CALL[ ]\011/* CallFunction */
MPPEM[ ]\011/* MeasurePixelPerEm */
PUSHB[ ]\011/* 1 value pushed */
30 
LT[ ]\011/* LessThan */
IF[ ]\011/* If */
NPUSHB[ ]\011/* 37 values pushed */
18 1 1 4 1 30 0 4 0 1 0 4 1 50 5 2 2 0 0 6 1 0 36 7 1 6 6 14 31 3 1 1 1 12 1 32 5 
ELSE[ ]\011/* Else */
MPPEM[ ]\011/* MeasurePixelPerEm */
PUSHB[ ]\011/* 1 value pushed */
94 
LT[ ]\011/* LessThan */
IF[ ]\011/* If */
NPUSHB[ ]\011/* 41 values pushed */
18 1 1 4 1 30 0 4 0 1 0 4 1 50 5 2 2 0 0 6 1 0 36 7 1 6 6 14 31 0 1 1 12 31 0 3 3 18 3 32 6 
ELSE[ ]\011/* Else */
MPPEM[ ]\011/* MeasurePixelPerEm */
PUSHB[ ]\011/* 1 value pushed */
108 
LT[ ]\011/* LessThan */
IF[ ]\011/* If */
NPUSHB[ ]\011/* 42 values pushed */
18 1 1 4 1 30 0 4 0 1 0 4 1 50 0 1 3 0 1 3 48 0 3 3 51 5 2 2 0 0 6 1 0 36 7 1 6 6 14 0 32 6 
ELSE[ ]\011/* Else */
MPPEM[ ]\011/* MeasurePixelPerEm */
PUSHB[ ]\011/* 1 value pushed */
232 
LT[ ]\011/* LessThan */
IF[ ]\011/* If */
NPUSHB[ ]\011/* 52 values pushed */
18 1 1 4 1 30 0 4 0 1 0 4 1 50 0 1 3 0 1 3 48 0 3 3 51 7 1 6 0 0 6 1 0 35 7 1 6 6 0 0 0 36 5 2 2 0 6 0 0 0 33 7 
ELSE[ ]\011/* Else */
NPUSHB[ ]\011/* 63 values pushed */
18 1 1 4 1 30 0 5 6 2 2 5 42 0 0 2 4 2 0 42 0 4 1 2 4 1 48 0 1 3 2 1 3 48 0 3 3 51 7 1 6 5 2 6 1 2 35 7 1 6 6 2 0 0 36 0 2 6 2 0 0 33 9 
EIF[ ]\011/* EndIf */
EIF[ ]\011/* EndIf */
EIF[ ]\011/* EndIf */
EIF[ ]\011/* EndIf */
PUSHB[ ]\011/* 1 value pushed */
56 
CALL[ ]\011/* CallFunction */";
};
width = 1240;
}
);
note = pi;
unicode = 03C0;
},
{
glyphname = zero;
layers = (
{
layerId = "10974C74-6ED2-4F66-BD25-910E45086E66";
paths = (
{
closed = 1;
nodes = (
"517.333 1471 OFFCURVE",
"359.5 1399 OFFCURVE",
"245.5 1251 CURVE SMOOTH",
"131.5 1103 OFFCURVE",
"62 879.667 OFFCURVE",
"62 577 CURVE SMOOTH",
"62 379.667 OFFCURVE",
"107.333 231.833 OFFCURVE",
"186 132.5 CURVE SMOOTH",
"264.667 33.167 OFFCURVE",
"377.333 -16 OFFCURVE",
"512 -16 CURVE SMOOTH",
"689.333 -16 OFFCURVE",
"848.5 56 OFFCURVE",
"962.5 204 CURVE SMOOTH",
"1076.5 352 OFFCURVE",
"1146 575.333 OFFCURVE",
"1146 878 CURVE SMOOTH",
"1146 1075.333 OFFCURVE",
"1100.667 1224.333 OFFCURVE",
"1022 1323 CURVE SMOOTH",
"943.333 1421.667 OFFCURVE",
"830.667 1471 OFFCURVE",
"696 1471 CURVE SMOOTH"
);
},
{
closed = 1;
nodes = (
"508 224 OFFCURVE",
"463.333 243.5 OFFCURVE",
"430 297.5 CURVE SMOOTH",
"396.667 351.5 OFFCURVE",
"374 441.667 OFFCURVE",
"374 583 CURVE SMOOTH",
"374 800.333 OFFCURVE",
"403.5 963 OFFCURVE",
"453.5 1071 CURVE SMOOTH",
"503.5 1179 OFFCURVE",
"573.333 1232 OFFCURVE",
"656 1232 CURVE SMOOTH",
"700 1232 OFFCURVE",
"744.667 1212.667 OFFCURVE",
"778 1158 CURVE SMOOTH",
"811.333 1103.333 OFFCURVE",
"834 1014.333 OFFCURVE",
"834 873 CURVE SMOOTH",
"834 654.333 OFFCURVE",
"804.5 491.833 OFFCURVE",
"754.5 384.5 CURVE SMOOTH",
"704.5 277.167 OFFCURVE",
"633.333 224 OFFCURVE",
"552 224 CURVE SMOOTH"
);
}
);
userData = {
assembly = "NPUSHB[ ]\011/* 18 values pushed */
21 20 1 0 31 29 20 39 21 39 11 9 0 19 1 19 6 7 
CALL[ ]\011/* CallFunction */
MPPEM[ ]\011/* MeasurePixelPerEm */
PUSHB[ ]\011/* 1 value pushed */
94 
LT[ ]\011/* LessThan */
IF[ ]\011/* If */
NPUSHB[ ]\011/* 28 values pushed */
0 3 3 0 1 0 36 4 1 0 0 17 31 5 1 2 2 1 1 0 36 0 1 1 18 1 32 4 
ELSE[ ]\011/* Else */
NPUSHB[ ]\011/* 36 values pushed */
4 1 0 0 3 2 0 3 1 0 38 5 1 2 1 1 2 1 0 35 5 1 2 2 1 1 0 36 0 1 2 1 1 0 33 4 
EIF[ ]\011/* EndIf */
PUSHB[ ]\011/* 1 value pushed */
56 
CALL[ ]\011/* CallFunction */";
};
width = 1160;
}
);
note = zero;
unicode = 0030;
},
{
glyphname = one;
layers = (
{
layerId = "10974C74-6ED2-4F66-BD25-910E45086E66";
paths = (
{
closed = 1;
nodes = (
"196 0 LINE",
"1020 0 LINE",
"1048 217 LINE",
"803 217 LINE",
"956 1458 LINE",
"708 1458 LINE",
"210 1077 LINE",
"288 951 LINE SMOOTH",
"298.667 935 OFFCURVE",
"323.333 918 OFFCURVE",
"358 918 CURVE SMOOTH",
"376.667 918 OFFCURVE",
"399.333 921.667 OFFCURVE",
"422 939 CURVE SMOOTH",
"619 1091 LINE",
"598 1001 LINE",
"504 217 LINE",
"222 217 LINE"
);
}
);
userData = {
assembly = "NPUSHB[ ]\011/* 12 values pushed */
17 16 15 14 13 12 8 6 1 0 5 7 
CALL[ ]\011/* CallFunction */
MPPEM[ ]\011/* MeasurePixelPerEm */
PUSHB[ ]\011/* 1 value pushed */
94 
LT[ ]\011/* LessThan */
IF[ ]\011/* If */
NPUSHB[ ]\011/* 35 values pushed */
11 3 2 1 2 1 30 0 1 2 0 2 1 0 50 0 2 2 11 31 3 1 0 0 4 0 2 36 0 4 4 12 4 32 5 
ELSE[ ]\011/* Else */
MPPEM[ ]\011/* MeasurePixelPerEm */
PUSHB[ ]\011/* 1 value pushed */
232 
LT[ ]\011/* LessThan */
IF[ ]\011/* If */
NPUSHB[ ]\011/* 42 values pushed */
11 3 2 1 2 1 30 0 2 1 2 52 0 1 0 1 52 3 1 0 4 4 0 0 0 35 3 1 0 0 4 0 2 36 0 4 0 4 0 2 33 6 
ELSE[ ]\011/* Else */
NPUSHB[ ]\011/* 47 values pushed */
11 3 2 1 2 1 30 0 2 1 2 52 0 1 0 1 52 0 3 0 4 0 3 42 0 0 3 4 0 0 0 35 0 0 0 4 0 2 36 0 4 0 4 0 2 33 7 
EIF[ ]\011/* EndIf */
EIF[ ]\011/* EndIf */
PUSHB[ ]\011/* 1 value pushed */
56 
CALL[ ]\011/* CallFunction */";
};
width = 1160;
}
);
note = one;
unicode = 0031;
},
{
glyphname = two;
layers = (
{
layerId = "10974C74-6ED2-4F66-BD25-910E45086E66";
paths = (
{
closed = 1;
nodes = (
"582 1471 OFFCURVE",
"460.667 1436 OFFCURVE",
"362 1364 CURVE SMOOTH",
"263.333 1292 OFFCURVE",
"188 1185 OFFCURVE",
"148 1041 CURVE",
"302 1014 LINE SMOOTH",
"315.333 1011.333 OFFCURVE",
"329.333 1010 OFFCURVE",
"344 1010 CURVE SMOOTH",
"398.667 1010 OFFCURVE",
"433.333 1033.667 OFFCURVE",
"460 1091 CURVE SMOOTH",
"495.42 1170.014 OFFCURVE",
"570.888 1228 OFFCURVE",
"664 1228 CURVE SMOOTH",
"768 1228 OFFCURVE",
"820 1168.333 OFFCURVE",
"820 1071 CURVE SMOOTH",
"820 996.333 OFFCURVE",
"803.167 931 OFFCURVE",
"762.5 863 CURVE SMOOTH",
"721.833 795 OFFCURVE",
"657.333 725 OFFCURVE",
"564 641 CURVE SMOOTH",
"88 215 LINE SMOOTH",
"46.667 179 OFFCURVE",
"26 132 OFFCURVE",
"22 96 CURVE SMOOTH",
"10 0 LINE",
"1028 0 LINE",
"1036.678 63.638 OFFCURVE",
"1045.692 137.301 OFFCURVE",
"1048 157.5 CURVE SMOOTH",
"1049.445 170.144 OFFCURVE",
"1051 184.053 OFFCURVE",
"1051 186 CURVE SMOOTH",
"1051 236.667 OFFCURVE",
"1018 270 OFFCURVE",
"958 270 CURVE SMOOTH",
"668 270 LINE SMOOTH",
"606.667 270 OFFCURVE",
"532.667 257.333 OFFCURVE",
"458 236 CURVE",
"788 537 LINE SMOOTH",
"884 625 OFFCURVE",
"969.667 704.667 OFFCURVE",
"1031 794 CURVE SMOOTH",
"1092.333 883.333 OFFCURVE",
"1130 980 OFFCURVE",
"1130 1100 CURVE SMOOTH",
"1130 1208 OFFCURVE",
"1090.833 1300.5 OFFCURVE",
"1019.5 1366.5 CURVE SMOOTH",
"948.167 1432.5 OFFCURVE",
"843.333 1471 OFFCURVE",
"714 1471 CURVE SMOOTH"
);
}
);
userData = {
assembly = "NPUSHB[ ]\011/* 16 values pushed */
1 0 46 44 38 36 24 23 16 13 0 52 1 52 6 7 
CALL[ ]\011/* CallFunction */
MPPEM[ ]\011/* MeasurePixelPerEm */
PUSHB[ ]\011/* 1 value pushed */
94 
LT[ ]\011/* LessThan */
IF[ ]\011/* If */
NPUSHB[ ]\011/* 45 values pushed */
48 1 4 3 11 1 2 1 2 30 0 4 3 1 3 4 1 50 0 3 3 0 1 0 36 5 1 0 0 17 31 0 1 1 2 0 0 36 0 2 2 12 2 32 6 
ELSE[ ]\011/* Else */
NPUSHB[ ]\011/* 52 values pushed */
48 1 4 3 11 1 2 1 2 30 0 4 3 1 3 4 1 50 5 1 0 0 3 4 0 3 1 0 38 0 1 2 2 1 1 0 35 0 1 1 2 0 0 36 0 2 1 2 0 0 33 6 
EIF[ ]\011/* EndIf */
PUSHB[ ]\011/* 1 value pushed */
56 
CALL[ ]\011/* CallFunction */";
};
width = 1160;
}
);
note = two;
unicode = 0032;
},
{
glyphname = three;
layers = (
{
layerId = "10974C74-6ED2-4F66-BD25-910E45086E66";
paths = (
{
closed = 1;
nodes = (
"618 1471 OFFCURVE",
"496.5 1436 OFFCURVE",
"398.5 1364 CURVE SMOOTH",
"300.5 1292 OFFCURVE",
"224.667 1185 OFFCURVE",
"186 1041 CURVE",
"340 1014 LINE SMOOTH",
"354.667 1011.333 OFFCURVE",
"369 1010 OFFCURVE",
"381 1010 CURVE SMOOTH",
"434.333 1010 OFFCURVE",
"469.333 1033.667 OFFCURVE",
"496 1091 CURVE SMOOTH",
"530.667 1168.333 OFFCURVE",
"603.333 1228 OFFCURVE",
"702 1228 CURVE SMOOTH",
"804.667 1228 OFFCURVE",
"858 1172 OFFCURVE",
"858 1072 CURVE SMOOTH",
"858 1000 OFFCURVE",
"840 944.5 OFFCURVE",
"792 906.5 CURVE SMOOTH",
"744 868.5 OFFCURVE",
"665.333 847.333 OFFCURVE",
"544 846 CURVE",
"516 641 LINE",
"637.333 641 OFFCURVE",
"708.5 625 OFFCURVE",
"750.5 597 CURVE SMOOTH",
"792.5 569 OFFCURVE",
"804 529 OFFCURVE",
"804 481 CURVE SMOOTH",
"804 340.144 OFFCURVE",
"713.363 227 OFFCURVE",
"562 227 CURVE SMOOTH",
"459.333 227 OFFCURVE",
"402 277 OFFCURVE",
"358 393 CURVE SMOOTH",
"346 423.667 OFFCURVE",
"314.333 440 OFFCURVE",
"273 440 CURVE SMOOTH",
"250.333 440 OFFCURVE",
"227.333 436.667 OFFCURVE",
"202 426 CURVE SMOOTH",
"62 372 LINE",
"91.333 236 OFFCURVE",
"139 139.833 OFFCURVE",
"215 76.5 CURVE SMOOTH",
"291 13.167 OFFCURVE",
"395.333 -16 OFFCURVE",
"534 -16 CURVE SMOOTH",
"582.667 -16 OFFCURVE",
"630.5 -11.333 OFFCURVE",
"677.5 -2 CURVE SMOOTH",
"771.5 16.667 OFFCURVE",
"856.167 55 OFFCURVE",
"927.5 111 CURVE SMOOTH",
"963.167 139 OFFCURVE",
"993.833 171.667 OFFCURVE",
"1019.5 209 CURVE SMOOTH",
"1070.833 283.667 OFFCURVE",
"1102 375.333 OFFCURVE",
"1102 486 CURVE SMOOTH",
"1102 623.333 OFFCURVE",
"1034.333 720 OFFCURVE",
"897 776 CURVE",
"982.333 800 OFFCURVE",
"1047.167 836 OFFCURVE",
"1090.5 892 CURVE SMOOTH",
"1133.833 948 OFFCURVE",
"1156 1025.667 OFFCURVE",
"1156 1131 CURVE SMOOTH",
"1156 1223 OFFCURVE",
"1120 1307.5 OFFCURVE",
"1052 1369.5 CURVE SMOOTH",
"984 1431.5 OFFCURVE",
"882 1471 OFFCURVE",
"750 1471 CURVE SMOOTH"
);
}
);
userData = {
assembly = "NPUSHB[ ]\011/* 22 values pushed */
1 0 61 59 55 53 47 46 45 44 36 34 30 28 21 19 0 68 1 68 9 7 
CALL[ ]\011/* CallFunction */
MPPEM[ ]\011/* MeasurePixelPerEm */
PUSHB[ ]\011/* 1 value pushed */
94 
LT[ ]\011/* LessThan */
IF[ ]\011/* If */
NPUSHB[ ]\011/* 67 values pushed */
64 1 7 6 10 1 4 5 25 1 3 2 3 30 0 7 6 5 6 7 5 50 0 2 4 3 4 2 3 50 0 5 0 4 2 5 4 1 0 38 0 6 6 0 1 0 36 8 1 0 0 17 31 0 3 3 1 1 0 36 0 1 1 18 1 32 8 
ELSE[ ]\011/* Else */
NPUSHB[ ]\011/* 74 values pushed */
64 1 7 6 10 1 4 5 25 1 3 2 3 30 0 7 6 5 6 7 5 50 0 2 4 3 4 2 3 50 8 1 0 0 6 7 0 6 1 0 38 0 5 0 4 2 5 4 1 0 38 0 3 1 1 3 1 0 35 0 3 3 1 1 0 36 0 1 3 1 1 0 33 8 
EIF[ ]\011/* EndIf */
PUSHB[ ]\011/* 1 value pushed */
56 
CALL[ ]\011/* CallFunction */";
};
width = 1160;
}
);
note = three;
unicode = 0033;
},
{
glyphname = four;
layers = (
{
layerId = "10974C74-6ED2-4F66-BD25-910E45086E66";
paths = (
{
closed = 1;
nodes = (
"1098 1457 LINE",
"804 1457 LINE",
"16 547 LINE",
"27 408 LINE SMOOTH",
"31 365.333 OFFCURVE",
"68.333 339 OFFCURVE",
"107 339 CURVE SMOOTH",
"691 339 LINE",
"650 0 LINE",
"920 0 LINE",
"961 339 LINE",
"1048 339 LINE SMOOTH",
"1086.667 339 OFFCURVE",
"1110 364.667 OFFCURVE",
"1114 394 CURVE SMOOTH",
"1138 561 LINE",
"988 561 LINE"
);
},
{
closed = 1;
nodes = (
"718 561 LINE",
"339 561 LINE",
"793 1097 LINE",
"779.667 1047.667 OFFCURVE",
"771.333 1001 OFFCURVE",
"766 961 CURVE SMOOTH"
);
}
);
userData = {
assembly = "NPUSHB[ ]\011/* 14 values pushed */
22 21 16 15 11 9 8 7 6 4 1 0 6 7 
CALL[ ]\011/* CallFunction */
MPPEM[ ]\011/* MeasurePixelPerEm */
PUSHB[ ]\011/* 1 value pushed */
94 
LT[ ]\011/* LessThan */
IF[ ]\011/* If */
NPUSHB[ ]\011/* 30 values pushed */
20 1 0 4 1 30 5 1 0 3 1 1 2 0 1 1 2 38 0 4 4 11 31 0 2 2 12 2 32 4 
ELSE[ ]\011/* Else */
MPPEM[ ]\011/* MeasurePixelPerEm */
PUSHB[ ]\011/* 1 value pushed */
232 
LT[ ]\011/* LessThan */
IF[ ]\011/* If */
NPUSHB[ ]\011/* 42 values pushed */
20 1 0 4 1 30 0 4 0 4 52 0 2 1 2 53 5 1 0 1 1 0 0 0 35 5 1 0 0 1 1 2 36 3 1 1 0 1 1 2 33 6 
ELSE[ ]\011/* Else */
NPUSHB[ ]\011/* 49 values pushed */
20 1 0 4 1 30 0 4 0 4 52 0 2 1 2 53 0 0 5 1 0 0 0 35 0 5 0 3 1 5 3 1 0 38 0 0 0 1 1 2 36 0 1 0 1 1 2 33 7 
EIF[ ]\011/* EndIf */
EIF[ ]\011/* EndIf */
PUSHB[ ]\011/* 1 value pushed */
56 
CALL[ ]\011/* CallFunction */";
};
width = 1160;
}
);
note = four;
unicode = 0034;
},
{
glyphname = five;
layers = (
{
layerId = "10974C74-6ED2-4F66-BD25-910E45086E66";
paths = (
{
closed = 1;
nodes = (
"1116 1457 LINE",
"376 1457 LINE",
"162 732 LINE",
"340 682 LINE",
"416 706 OFFCURVE",
"481 716 OFFCURVE",
"537 716 CURVE SMOOTH",
"682.333 716 OFFCURVE",
"754 642.333 OFFCURVE",
"754 525 CURVE SMOOTH",
"754 446.333 OFFCURVE",
"733 371.667 OFFCURVE",
"689 317 CURVE SMOOTH",
"645 262.333 OFFCURVE",
"576.667 226 OFFCURVE",
"482 226 CURVE SMOOTH",
"399.333 226 OFFCURVE",
"348 251.5 OFFCURVE",
"308 277.5 CURVE SMOOTH",
"271.111 301.478 OFFCURVE",
"236.248 329 OFFCURVE",
"200 329 CURVE SMOOTH",
"172 329 OFFCURVE",
"142.667 317.667 OFFCURVE",
"120 291 CURVE SMOOTH",
"12 166 LINE",
"57.333 116.667 OFFCURVE",
"115.5 71.333 OFFCURVE",
"185.5 38 CURVE SMOOTH",
"255.5 4.667 OFFCURVE",
"339.333 -16 OFFCURVE",
"434 -16 CURVE SMOOTH",
"608.667 -16 OFFCURVE",
"764 44.5 OFFCURVE",
"876 146.5 CURVE SMOOTH",
"988 248.5 OFFCURVE",
"1056 393.667 OFFCURVE",
"1056 563 CURVE SMOOTH",
"1056 672.333 OFFCURVE",
"1019.833 769.5 OFFCURVE",
"948.5 839.5 CURVE SMOOTH",
"877.167 909.5 OFFCURVE",
"769.667 952 OFFCURVE",
"627 952 CURVE SMOOTH",
"580.333 952 OFFCURVE",
"529.667 948.667 OFFCURVE",
"475 938 CURVE",
"550 1195 LINE",
"906 1195 LINE SMOOTH",
"1025.771 1195 OFFCURVE",
"1088.124 1243.929 OFFCURVE",
"1100 1333 CURVE SMOOTH"
);
}
);
userData = {
assembly = "NPUSHB[ ]\011/* 16 values pushed */
48 47 43 41 35 33 30 28 21 19 11 9 6 4 7 7 
CALL[ ]\011/* CallFunction */
MPPEM[ ]\011/* MeasurePixelPerEm */
PUSHB[ ]\011/* 1 value pushed */
94 
LT[ ]\011/* LessThan */
IF[ ]\011/* If */
NPUSHB[ ]\011/* 59 values pushed */
46 7 2 5 1 45 1 3 5 25 1 2 4 3 30 0 3 5 4 5 3 4 50 0 1 0 5 3 1 5 1 0 38 0 0 0 6 0 0 36 0 6 6 11 31 0 4 4 2 1 0 36 0 2 2 18 2 32 7 
ELSE[ ]\011/* Else */
NPUSHB[ ]\011/* 66 values pushed */
46 7 2 5 1 45 1 3 5 25 1 2 4 3 30 0 3 5 4 5 3 4 50 0 6 0 0 1 6 0 1 0 38 0 1 0 5 3 1 5 1 0 38 0 4 2 2 4 1 0 35 0 4 4 2 1 0 36 0 2 4 2 1 0 33 7 
EIF[ ]\011/* EndIf */
PUSHB[ ]\011/* 1 value pushed */
56 
CALL[ ]\011/* CallFunction */";
};
width = 1160;
}
);
note = five;
unicode = 0035;
},
{
glyphname = six;
layers = (
{
layerId = "10974C74-6ED2-4F66-BD25-910E45086E66";
paths = (
{
closed = 1;
nodes = (
"678 919 OFFCURVE",
"624.333 909.667 OFFCURVE",
"575 891 CURVE",
"1112 1455 LINE",
"846 1455 LINE SMOOTH",
"775.333 1455 OFFCURVE",
"711.333 1424.667 OFFCURVE",
"678 1386 CURVE SMOOTH",
"292 939 LINE SMOOTH",
"144 768.333 OFFCURVE",
"66 613 OFFCURVE",
"66 433 CURVE SMOOTH",
"66 302.333 OFFCURVE",
"107.5 189.833 OFFCURVE",
"185.5 110.5 CURVE SMOOTH",
"263.5 31.167 OFFCURVE",
"379.333 -16 OFFCURVE",
"526 -16 CURVE SMOOTH",
"695.333 -16 OFFCURVE",
"843.5 47.667 OFFCURVE",
"949.5 149 CURVE SMOOTH",
"1055.5 250.333 OFFCURVE",
"1118 390 OFFCURVE",
"1118 542 CURVE SMOOTH",
"1118 667.333 OFFCURVE",
"1071.667 762.333 OFFCURVE",
"1001 825 CURVE SMOOTH",
"930.333 887.667 OFFCURVE",
"835.333 919 OFFCURVE",
"738 919 CURVE SMOOTH"
);
},
{
closed = 1;
nodes = (
"350 587.836 OFFCURVE",
"456.744 703 OFFCURVE",
"606 703 CURVE SMOOTH",
"733.58 703 OFFCURVE",
"816 623.425 OFFCURVE",
"816 494 CURVE SMOOTH",
"816 338.611 OFFCURVE",
"695.321 220 OFFCURVE",
"550 220 CURVE SMOOTH",
"418.932 220 OFFCURVE",
"350 298.009 OFFCURVE",
"350 423 CURVE SMOOTH"
);
}
);
userData = {
assembly = "NPUSHB[ ]\011/* 16 values pushed */
1 0 43 41 33 31 23 21 11 9 0 26 1 26 6 7 
CALL[ ]\011/* CallFunction */
MPPEM[ ]\011/* MeasurePixelPerEm */
PUSHB[ ]\011/* 1 value pushed */
94 
LT[ ]\011/* LessThan */
IF[ ]\011/* If */
NPUSHB[ ]\011/* 41 values pushed */
24 1 4 0 1 30 5 1 0 2 4 2 0 4 50 0 4 3 2 4 3 48 0 2 2 11 31 0 3 3 1 1 0 36 0 1 1 18 1 32 6 
ELSE[ ]\011/* Else */
NPUSHB[ ]\011/* 45 values pushed */
24 1 4 0 1 30 0 2 0 2 52 5 1 0 4 0 52 0 4 3 4 52 0 3 1 1 3 1 0 35 0 3 3 1 1 0 36 0 1 3 1 1 0 33 7 
EIF[ ]\011/* EndIf */
PUSHB[ ]\011/* 1 value pushed */
56 
CALL[ ]\011/* CallFunction */";
};
width = 1160;
}
);
note = six;
unicode = 0036;
},
{
glyphname = seven;
layers = (
{
layerId = "10974C74-6ED2-4F66-BD25-910E45086E66";
paths = (
{
closed = 1;
nodes = (
"204 1457 LINE",
"195.499 1395.37 OFFCURVE",
"178 1276.749 OFFCURVE",
"178 1254 CURVE SMOOTH",
"178 1223.333 OFFCURVE",
"203.333 1195 OFFCURVE",
"238 1195 CURVE SMOOTH",
"888 1195 LINE",
"845.333 1155 OFFCURVE",
"809.333 1112.333 OFFCURVE",
"776 1059 CURVE SMOOTH",
"120 0 LINE",
"372 0 LINE SMOOTH",
"416 0 OFFCURVE",
"463.333 28.667 OFFCURVE",
"486 66 CURVE SMOOTH",
"1172 1212 LINE SMOOTH",
"1190.667 1241.333 OFFCURVE",
"1203.333 1288.667 OFFCURVE",
"1210 1342 CURVE SMOOTH",
"1224 1457 LINE"
);
}
);
userData = {
assembly = "NPUSHB[ ]\011/* 12 values pushed */
0 0 0 22 0 22 15 13 9 7 4 7 
CALL[ ]\011/* CallFunction */
MPPEM[ ]\011/* MeasurePixelPerEm */
PUSHB[ ]\011/* 1 value pushed */
94 
LT[ ]\011/* LessThan */
IF[ ]\011/* If */
NPUSHB[ ]\011/* 20 values pushed */
0 1 1 2 0 0 36 3 1 2 2 11 31 0 0 0 12 0 32 3 
ELSE[ ]\011/* Else */
NPUSHB[ ]\011/* 30 values pushed */
0 0 1 0 53 3 1 2 1 1 2 0 0 35 3 1 2 2 1 1 0 36 0 1 2 1 1 0 33 4 
EIF[ ]\011/* EndIf */
PUSHB[ ]\011/* 1 value pushed */
56 
CALL[ ]\011/* CallFunction */";
};
width = 1160;
}
);
note = seven;
unicode = 0037;
},
{
glyphname = eight;
layers = (
{
layerId = "10974C74-6ED2-4F66-BD25-910E45086E66";
paths = (
{
closed = 1;
nodes = (
"683.333 -16 OFFCURVE",
"827.5 31.167 OFFCURVE",
"929.5 114.5 CURVE SMOOTH",
"1031.5 197.833 OFFCURVE",
"1092 317.667 OFFCURVE",
"1092 463 CURVE SMOOTH",
"1092 596.333 OFFCURVE",
"1030 700 OFFCURVE",
"882 756 CURVE",
"1043.333 821.333 OFFCURVE",
"1124 945.333 OFFCURVE",
"1124 1116 CURVE SMOOTH",
"1124 1216 OFFCURVE",
"1081.5 1305.167 OFFCURVE",
"1007.5 1368.5 CURVE SMOOTH",
"933.5 1431.833 OFFCURVE",
"826.667 1471 OFFCURVE",
"700 1471 CURVE SMOOTH",
"553.333 1471 OFFCURVE",
"424.5 1423.833 OFFCURVE",
"330.5 1344.5 CURVE SMOOTH",
"236.5 1265.167 OFFCURVE",
"180 1154.667 OFFCURVE",
"180 1028 CURVE SMOOTH",
"180 906.667 OFFCURVE",
"234.333 814.667 OFFCURVE",
"345 760 CURVE",
"241 726.667 OFFCURVE",
"167 674.833 OFFCURVE",
"119 607.5 CURVE SMOOTH",
"71 540.167 OFFCURVE",
"50 458 OFFCURVE",
"50 366 CURVE SMOOTH",
"50 251.333 OFFCURVE",
"95.5 155.667 OFFCURVE",
"177.5 89 CURVE SMOOTH",
"259.5 22.333 OFFCURVE",
"375.333 -16 OFFCURVE",
"518 -16 CURVE SMOOTH"
);
},
{
closed = 1;
nodes = (
"421.986 210 OFFCURVE",
"362 282.853 OFFCURVE",
"362 391 CURVE SMOOTH",
"362 540.997 OFFCURVE",
"428.867 638 OFFCURVE",
"598 638 CURVE SMOOTH",
"727.361 638 OFFCURVE",
"784 570.738 OFFCURVE",
"784 458 CURVE SMOOTH",
"784 312.373 OFFCURVE",
"703.449 210 OFFCURVE",
"546 210 CURVE SMOOTH"
);
},
{
closed = 1;
nodes = (
"513.175 864 OFFCURVE",
"470 939.003 OFFCURVE",
"470 1032 CURVE SMOOTH",
"470 1155.845 OFFCURVE",
"535.395 1253 OFFCURVE",
"674 1253 CURVE SMOOTH",
"780.879 1253 OFFCURVE",
"830 1184.56 OFFCURVE",
"830 1095 CURVE SMOOTH",
"830 977.587 OFFCURVE",
"785.443 864 OFFCURVE",
"626 864 CURVE SMOOTH"
);
}
);
userData = {
assembly = "NPUSHB[ ]\011/* 26 values pushed */
55 54 35 34 1 0 65 63 54 73 55 73 45 43 34 53 35 53 19 17 0 33 1 33 9 7 
CALL[ ]\011/* CallFunction */
MPPEM[ ]\011/* MeasurePixelPerEm */
PUSHB[ ]\011/* 1 value pushed */
94 
LT[ ]\011/* LessThan */
IF[ ]\011/* If */
NPUSHB[ ]\011/* 46 values pushed */
26 10 2 3 4 1 30 8 1 4 0 3 2 4 3 1 0 38 0 5 5 1 1 0 36 0 1 1 17 31 7 1 2 2 0 1 0 36 6 1 0 0 18 0 32 6 
ELSE[ ]\011/* Else */
NPUSHB[ ]\011/* 54 values pushed */
26 10 2 3 4 1 30 0 1 0 5 4 1 5 1 0 38 8 1 4 0 3 2 4 3 1 0 38 7 1 2 0 0 2 1 0 35 7 1 2 2 0 1 0 36 6 1 0 2 0 1 0 33 6 
EIF[ ]\011/* EndIf */
PUSHB[ ]\011/* 1 value pushed */
56 
CALL[ ]\011/* CallFunction */";
};
width = 1160;
}
);
note = eight;
unicode = 0038;
},
{
glyphname = nine;
layers = (
{
layerId = "10974C74-6ED2-4F66-BD25-910E45086E66";
paths = (
{
closed = 1;
nodes = (
"604.667 570 OFFCURVE",
"678.667 586.667 OFFCURVE",
"744 620 CURVE",
"725.333 598.667 OFFCURVE",
"705.333 576.667 OFFCURVE",
"684 554 CURVE SMOOTH",
"156 0 LINE",
"432 0 LINE SMOOTH",
"502.667 0 OFFCURVE",
"562 28.333 OFFCURVE",
"594 67 CURVE SMOOTH",
"966 517 LINE SMOOTH",
"1034 598.333 OFFCURVE",
"1089.333 678.5 OFFCURVE",
"1128 764.5 CURVE SMOOTH",
"1166.667 850.5 OFFCURVE",
"1188 941.333 OFFCURVE",
"1188 1048 CURVE SMOOTH",
"1188 1172 OFFCURVE",
"1147.833 1277.333 OFFCURVE",
"1072.5 1352 CURVE SMOOTH",
"997.167 1426.667 OFFCURVE",
"885.333 1471 OFFCURVE",
"744 1471 CURVE SMOOTH",
"580 1471 OFFCURVE",
"436.5 1409.5 OFFCURVE",
"334.5 1311.5 CURVE SMOOTH",
"232.5 1213.5 OFFCURVE",
"172 1079.667 OFFCURVE",
"172 933 CURVE SMOOTH",
"172 810.333 OFFCURVE",
"216.333 720 OFFCURVE",
"283 660 CURVE SMOOTH",
"349.667 600 OFFCURVE",
"438 570 OFFCURVE",
"526 570 CURVE SMOOTH"
);
},
{
closed = 1;
nodes = (
"904 892.204 OFFCURVE",
"810.492 789 OFFCURVE",
"660 789 CURVE SMOOTH",
"537.333 789 OFFCURVE",
"476 853 OFFCURVE",
"476 973 CURVE SMOOTH",
"476 1124.199 OFFCURVE",
"568.926 1236 OFFCURVE",
"710 1236 CURVE SMOOTH",
"826.738 1236 OFFCURVE",
"904 1164.084 OFFCURVE",
"904 1044 CURVE SMOOTH"
);
}
);
userData = {
assembly = "NPUSHB[ ]\011/* 16 values pushed */
1 0 46 44 38 36 25 23 11 9 0 31 1 31 6 7 
CALL[ ]\011/* CallFunction */
MPPEM[ ]\011/* MeasurePixelPerEm */
PUSHB[ ]\011/* 1 value pushed */
94 
LT[ ]\011/* LessThan */
IF[ ]\011/* If */
NPUSHB[ ]\011/* 36 values pushed */
29 1 0 4 1 30 0 4 5 1 0 2 4 0 1 0 38 0 3 3 1 1 0 36 0 1 1 17 31 0 2 2 12 2 32 5 
ELSE[ ]\011/* Else */
NPUSHB[ ]\011/* 45 values pushed */
29 1 0 4 1 30 0 2 0 2 53 0 1 0 3 4 1 3 1 0 38 0 4 0 0 4 1 0 35 0 4 4 0 1 0 36 5 1 0 4 0 1 0 33 6 
EIF[ ]\011/* EndIf */
PUSHB[ ]\011/* 1 value pushed */
56 
CALL[ ]\011/* CallFunction */";
};
width = 1160;
}
);
note = nine;
unicode = 0039;
},
{
glyphname = onesuperior;
layers = (
{
layerId = "10974C74-6ED2-4F66-BD25-910E45086E66";
paths = (
{
closed = 1;
nodes = (
"206 900 LINE",
"636 900 LINE",
"654 1050 LINE",
"568 1050 LINE",
"642 1648 LINE",
"462 1648 LINE",
"198 1451 LINE",
"252 1363 LINE",
"260 1351 OFFCURVE",
"278.333 1340 OFFCURVE",
"301 1340 CURVE SMOOTH",
"314.333 1340 OFFCURVE",
"329.333 1342.333 OFFCURVE",
"344 1353 CURVE SMOOTH",
"402 1395 LINE",
"390 1342 LINE",
"355 1050 LINE",
"226 1050 LINE"
);
}
);
userData = {
assembly = "NPUSHB[ ]\011/* 12 values pushed */
17 16 15 14 13 12 8 6 1 0 5 7 
CALL[ ]\011/* CallFunction */
MPPEM[ ]\011/* MeasurePixelPerEm */
PUSHB[ ]\011/* 1 value pushed */
75 
LT[ ]\011/* LessThan */
IF[ ]\011/* If */
NPUSHB[ ]\011/* 32 values pushed */
11 3 2 1 2 1 30 0 2 1 2 52 0 1 0 1 52 0 4 4 0 0 0 36 3 1 0 0 14 4 32 5 
ELSE[ ]\011/* Else */
MPPEM[ ]\011/* MeasurePixelPerEm */
PUSHB[ ]\011/* 1 value pushed */
232 
LT[ ]\011/* LessThan */
IF[ ]\011/* If */
NPUSHB[ ]\011/* 42 values pushed */
11 3 2 1 2 1 30 0 2 1 2 52 0 1 0 1 52 3 1 0 4 4 0 0 0 35 3 1 0 0 4 0 2 36 0 4 0 4 0 2 33 6 
ELSE[ ]\011/* Else */
NPUSHB[ ]\011/* 47 values pushed */
11 3 2 1 2 1 30 0 2 1 2 52 0 1 0 1 52 0 3 0 4 0 3 42 0 0 3 4 0 0 0 35 0 0 0 4 0 2 36 0 4 0 4 0 2 33 7 
EIF[ ]\011/* EndIf */
EIF[ ]\011/* EndIf */
PUSHB[ ]\011/* 1 value pushed */
56 
CALL[ ]\011/* CallFunction */";
};
width = 668;
}
);
note = onesuperior;
unicode = 00B9;
},
{
glyphname = twosuperior;
layers = (
{
layerId = "10974C74-6ED2-4F66-BD25-910E45086E66";
paths = (
{
closed = 1;
nodes = (
"336 1656 OFFCURVE",
"216 1584 OFFCURVE",
"172 1424 CURVE",
"288 1405 LINE SMOOTH",
"298.667 1403 OFFCURVE",
"308.333 1402 OFFCURVE",
"317 1402 CURVE SMOOTH",
"353 1402 OFFCURVE",
"373.333 1417 OFFCURVE",
"392 1445 CURVE SMOOTH",
"413.333 1477 OFFCURVE",
"429.333 1491 OFFCURVE",
"460 1491 CURVE SMOOTH",
"492 1491 OFFCURVE",
"504 1466.667 OFFCURVE",
"504 1436 CURVE SMOOTH",
"504 1379.821 OFFCURVE",
"443.729 1297.562 OFFCURVE",
"384 1245 CURVE SMOOTH",
"160 1048 LINE SMOOTH",
"133.333 1024 OFFCURVE",
"120 992.333 OFFCURVE",
"116 967 CURVE SMOOTH",
"106 900 LINE",
"672 900 LINE",
"674 922.667 OFFCURVE",
"676.333 943.333 OFFCURVE",
"679 962 CURVE",
"680.333 978 OFFCURVE",
"681.833 992.833 OFFCURVE",
"683.5 1006.5 CURVE SMOOTH",
"685.167 1020.167 OFFCURVE",
"686 1028.667 OFFCURVE",
"686 1032 CURVE SMOOTH",
"686 1065.333 OFFCURVE",
"665.333 1086 OFFCURVE",
"624 1086 CURVE SMOOTH",
"544 1086 LINE SMOOTH",
"509.333 1086 OFFCURVE",
"464.333 1078.333 OFFCURVE",
"419 1065 CURVE",
"540 1175 LINE SMOOTH",
"634.72 1261.601 OFFCURVE",
"722 1335.595 OFFCURVE",
"722 1458 CURVE SMOOTH",
"722 1573.589 OFFCURVE",
"638.113 1656 OFFCURVE",
"492 1656 CURVE SMOOTH"
);
}
);
userData = {
assembly = "NPUSHB[ ]\011/* 16 values pushed */
1 0 44 42 38 36 24 23 16 13 0 48 1 48 6 7 
CALL[ ]\011/* CallFunction */
MPPEM[ ]\011/* MeasurePixelPerEm */
PUSHB[ ]\011/* 1 value pushed */
28 
LT[ ]\011/* LessThan */
IF[ ]\011/* If */
NPUSHB[ ]\011/* 43 values pushed */
46 1 4 3 11 1 2 1 2 30 0 4 3 1 3 4 1 50 5 1 0 0 3 4 0 3 1 0 38 0 2 2 1 1 0 36 0 1 1 20 2 32 5 
ELSE[ ]\011/* Else */
NPUSHB[ ]\011/* 52 values pushed */
46 1 4 3 11 1 2 1 2 30 0 4 3 1 3 4 1 50 5 1 0 0 3 4 0 3 1 0 38 0 1 2 2 1 1 0 35 0 1 1 2 0 0 36 0 2 1 2 0 0 33 6 
EIF[ ]\011/* EndIf */
PUSHB[ ]\011/* 1 value pushed */
56 
CALL[ ]\011/* CallFunction */";
};
width = 668;
}
);
note = twosuperior;
unicode = 00B2;
},
